<svg width="500" height="400" viewBox="0 0 500 400" fill="none" xmlns="http://www.w3.org/2000/svg">
<g clip-path="url(#clip0_13_2)">
<path d="M287.136 226.436C268.969 239.76 242.636 246.868 219.965 246.868C188.176 246.868 159.557 235.169 137.906 215.712C136.205 214.181 137.729 212.096 139.77 213.288C163.136 226.815 192.027 234.953 221.87 234.953C241.997 234.953 264.138 230.809 284.496 222.211C287.571 220.911 290.143 224.215 287.136 226.436Z" fill="#FF9900"/>
<path d="M294.689 217.837C292.375 214.886 279.338 216.443 273.487 217.133C271.704 217.35 271.432 215.806 273.038 214.696C283.421 207.425 300.459 209.524 302.445 211.961C304.432 214.412 301.928 231.405 292.171 239.516C290.674 240.762 289.245 240.098 289.912 238.446C292.103 233.003 297.016 220.803 294.689 217.837Z" fill="#FF9900"/>
<path d="M273.895 163.364V156.296C273.895 155.226 274.712 154.508 275.691 154.508H307.494C308.515 154.508 309.331 155.239 309.331 156.296V162.348C309.318 163.364 308.46 164.691 306.936 166.79L290.456 190.201C296.58 190.052 303.044 190.959 308.596 194.074C309.848 194.778 310.189 195.807 310.284 196.822V204.365C310.284 205.394 309.141 206.599 307.943 205.976C298.159 200.871 285.163 200.316 274.344 206.03C273.242 206.626 272.085 205.434 272.085 204.405V197.242C272.085 196.091 272.099 194.128 273.255 192.381L292.348 165.138H275.732C274.712 165.138 273.895 164.42 273.895 163.364Z" fill="#221F1F"/>
<path d="M157.883 207.465H148.208C147.282 207.398 146.548 206.707 146.479 205.827V156.417C146.479 155.429 147.31 154.644 148.344 154.644H157.366C158.305 154.684 159.054 155.402 159.122 156.296V162.754H159.299C161.653 156.512 166.076 153.601 172.036 153.601C178.092 153.601 181.875 156.512 184.597 162.754C186.937 156.512 192.258 153.601 197.96 153.601C202.015 153.601 206.452 155.267 209.16 159.004C212.222 163.161 211.596 169.2 211.596 174.494L211.582 205.678C211.582 206.667 210.752 207.465 209.718 207.465H200.056C199.09 207.398 198.314 206.626 198.314 205.678V179.491C198.314 177.405 198.504 172.206 198.042 170.229C197.321 166.911 195.157 165.977 192.353 165.977C190.013 165.977 187.563 167.534 186.57 170.026C185.576 172.517 185.672 176.688 185.672 179.491V205.678C185.672 206.667 184.842 207.465 183.807 207.465H174.145C173.166 207.398 172.404 206.626 172.404 205.678L172.39 179.491C172.39 173.98 173.302 165.869 166.429 165.869C159.476 165.869 159.748 173.776 159.748 179.491V205.678C159.748 206.667 158.918 207.465 157.883 207.465Z" fill="#221F1F"/>
<path d="M336.711 153.601C351.068 153.601 358.839 165.869 358.839 181.468C358.839 196.538 350.252 208.494 336.711 208.494C322.613 208.494 314.938 196.227 314.938 180.939C314.938 165.557 322.708 153.601 336.711 153.601ZM336.793 163.689C329.662 163.689 329.213 173.357 329.213 179.382C329.213 185.421 329.118 198.312 336.711 198.312C344.21 198.312 344.564 187.913 344.564 181.576C344.564 177.405 344.387 172.422 343.121 168.469C342.032 165.029 339.869 163.689 336.793 163.689Z" fill="#221F1F"/>
<path d="M377.455 207.465H367.82C366.854 207.398 366.078 206.626 366.078 205.678L366.065 156.255C366.146 155.348 366.949 154.644 367.929 154.644H376.897C377.741 154.684 378.435 155.253 378.625 156.025V163.58H378.802C381.51 156.824 385.307 153.601 391.989 153.601C396.33 153.601 400.562 155.158 403.284 159.423C405.815 163.377 405.815 170.026 405.815 174.806V205.908C405.706 206.775 404.903 207.465 403.951 207.465H394.248C393.363 207.398 392.628 206.748 392.533 205.908V179.071C392.533 173.668 393.159 165.76 386.477 165.76C384.123 165.76 381.959 167.331 380.884 169.714C379.524 172.734 379.347 175.74 379.347 179.071V205.678C379.333 206.667 378.489 207.465 377.455 207.465Z" fill="#221F1F"/>
<path d="M248.543 183.864V181.779C241.548 181.779 234.158 183.268 234.158 191.474C234.158 195.631 236.322 198.447 240.037 198.447C242.759 198.447 245.195 196.782 246.733 194.074C248.638 190.743 248.543 187.615 248.543 183.864ZM258.3 207.33C257.66 207.899 256.735 207.939 256.014 207.56C252.802 204.906 252.23 203.674 250.461 201.142C245.154 206.531 241.398 208.142 234.512 208.142C226.374 208.142 220.033 203.146 220.033 193.139C220.033 185.327 224.292 180.005 230.348 177.405C235.601 175.103 242.936 174.697 248.543 174.061V172.815C248.543 170.527 248.719 167.819 247.372 165.842C246.188 164.068 243.929 163.337 241.942 163.337C238.255 163.337 234.961 165.219 234.158 169.118C233.995 169.985 233.356 170.838 232.485 170.879L223.095 169.877C222.306 169.701 221.435 169.064 221.652 167.859C223.816 156.539 234.09 153.127 243.29 153.127C247.998 153.127 254.149 154.373 257.864 157.92C262.573 162.294 262.124 168.13 262.124 174.481V189.484C262.124 193.993 264.002 195.969 265.771 198.407C266.397 199.273 266.533 200.316 265.744 200.966C263.77 202.604 260.259 205.651 258.327 207.357L258.3 207.33Z" fill="#221F1F"/>
<path d="M121.699 183.864V181.779C114.704 181.779 107.314 183.268 107.314 191.474C107.314 195.631 109.478 198.447 113.193 198.447C115.915 198.447 118.351 196.782 119.889 194.074C121.794 190.743 121.699 187.615 121.699 183.864ZM131.456 207.33C130.816 207.899 129.891 207.939 129.17 207.56C125.958 204.906 125.386 203.674 123.617 201.142C118.31 206.531 114.554 208.142 107.668 208.142C99.5305 208.142 93.189 203.146 93.189 193.139C93.189 185.327 97.4484 180.005 103.504 177.405C108.757 175.103 116.092 174.697 121.699 174.061V172.815C121.699 170.527 121.875 167.819 120.528 165.842C119.344 164.068 117.085 163.337 115.099 163.337C111.411 163.337 108.117 165.219 107.314 169.118C107.151 169.985 106.512 170.838 105.641 170.879L96.2509 169.877C95.4616 169.701 94.5906 169.064 94.8084 167.859C96.9721 156.539 107.246 153.127 116.446 153.127C121.154 153.127 127.305 154.373 131.02 157.92C135.729 162.294 135.28 168.13 135.28 174.481V189.484C135.28 193.993 137.158 195.969 138.927 198.407C139.553 199.273 139.689 200.316 138.9 200.966C136.926 202.604 133.415 205.651 131.483 207.357L131.456 207.33Z" fill="#221F1F"/>
</g>
<defs>
<clipPath id="clip0_13_2">
<rect width="313" height="94" fill="white" transform="translate(93 153)"/>
</clipPath>
</defs>
</svg>
