<svg width="500" height="500" viewBox="0 0 500 500" fill="none" xmlns="http://www.w3.org/2000/svg">
<g clip-path="url(#clip0_13_2)">
<path d="M287.136 276.436C268.969 289.76 242.636 296.868 219.965 296.868C188.176 296.868 159.557 285.169 137.906 265.712C136.205 264.181 137.729 262.096 139.77 263.288C163.136 276.815 192.027 284.953 221.87 284.953C241.997 284.953 264.138 280.809 284.496 272.211C287.571 270.911 290.143 274.215 287.136 276.436Z" fill="#FF9900"/>
<path d="M294.689 267.837C292.375 264.886 279.338 266.443 273.487 267.133C271.704 267.35 271.432 265.806 273.038 264.696C283.421 257.425 300.459 259.524 302.445 261.961C304.432 264.412 301.928 281.405 292.171 289.516C290.674 290.762 289.245 290.098 289.912 288.446C292.103 283.003 297.016 270.803 294.689 267.837Z" fill="#FF9900"/>
<path d="M273.895 213.364V206.296C273.895 205.226 274.712 204.508 275.691 204.508H307.494C308.515 204.508 309.331 205.239 309.331 206.296V212.348C309.318 213.364 308.46 214.691 306.936 216.79L290.456 240.201C296.58 240.052 303.044 240.959 308.596 244.074C309.848 244.778 310.189 245.807 310.284 246.822V254.365C310.284 255.394 309.141 256.599 307.943 255.976C298.159 250.871 285.163 250.316 274.344 256.03C273.242 256.626 272.085 255.434 272.085 254.405V247.242C272.085 246.091 272.099 244.128 273.255 242.381L292.348 215.138H275.732C274.712 215.138 273.895 214.42 273.895 213.364Z" fill="#221F1F"/>
<path d="M157.883 257.465H148.208C147.282 257.398 146.548 256.707 146.479 255.827V206.417C146.479 205.429 147.31 204.644 148.344 204.644H157.366C158.305 204.684 159.054 205.402 159.122 206.296V212.754H159.299C161.653 206.512 166.076 203.601 172.036 203.601C178.092 203.601 181.875 206.512 184.597 212.754C186.937 206.512 192.258 203.601 197.96 203.601C202.015 203.601 206.452 205.267 209.16 209.004C212.222 213.161 211.596 219.2 211.596 224.494L211.582 255.678C211.582 256.667 210.752 257.465 209.718 257.465H200.056C199.09 257.398 198.314 256.626 198.314 255.678V229.491C198.314 227.405 198.504 222.206 198.042 220.229C197.321 216.911 195.157 215.977 192.353 215.977C190.013 215.977 187.563 217.534 186.57 220.026C185.576 222.517 185.672 226.688 185.672 229.491V255.678C185.672 256.667 184.842 257.465 183.807 257.465H174.145C173.166 257.398 172.404 256.626 172.404 255.678L172.39 229.491C172.39 223.98 173.302 215.869 166.429 215.869C159.476 215.869 159.748 223.776 159.748 229.491V255.678C159.748 256.667 158.918 257.465 157.883 257.465Z" fill="#221F1F"/>
<path d="M336.711 203.601C351.068 203.601 358.839 215.869 358.839 231.468C358.839 246.538 350.252 258.494 336.711 258.494C322.613 258.494 314.938 246.227 314.938 230.939C314.938 215.557 322.708 203.601 336.711 203.601ZM336.793 213.689C329.662 213.689 329.213 223.357 329.213 229.382C329.213 235.421 329.118 248.312 336.711 248.312C344.21 248.312 344.564 237.913 344.564 231.576C344.564 227.405 344.387 222.422 343.121 218.469C342.032 215.029 339.869 213.689 336.793 213.689Z" fill="#221F1F"/>
<path d="M377.455 257.465H367.82C366.854 257.398 366.078 256.626 366.078 255.678L366.065 206.255C366.146 205.348 366.949 204.644 367.929 204.644H376.897C377.741 204.684 378.435 205.253 378.625 206.025V213.58H378.802C381.51 206.824 385.307 203.601 391.989 203.601C396.33 203.601 400.562 205.158 403.284 209.423C405.815 213.377 405.815 220.026 405.815 224.806V255.908C405.706 256.775 404.903 257.465 403.951 257.465H394.248C393.363 257.398 392.628 256.748 392.533 255.908V229.071C392.533 223.668 393.159 215.76 386.477 215.76C384.123 215.76 381.959 217.331 380.884 219.714C379.524 222.734 379.347 225.74 379.347 229.071V255.678C379.333 256.667 378.489 257.465 377.455 257.465Z" fill="#221F1F"/>
<path d="M248.543 233.864V231.779C241.548 231.779 234.158 233.268 234.158 241.474C234.158 245.631 236.322 248.447 240.037 248.447C242.759 248.447 245.195 246.782 246.733 244.074C248.638 240.743 248.543 237.615 248.543 233.864ZM258.3 257.33C257.66 257.899 256.735 257.939 256.014 257.56C252.802 254.906 252.23 253.674 250.461 251.142C245.154 256.531 241.398 258.142 234.512 258.142C226.374 258.142 220.033 253.146 220.033 243.139C220.033 235.327 224.292 230.005 230.348 227.405C235.601 225.103 242.936 224.697 248.543 224.061V222.815C248.543 220.527 248.719 217.819 247.372 215.842C246.188 214.068 243.929 213.337 241.942 213.337C238.255 213.337 234.961 215.219 234.158 219.118C233.995 219.985 233.356 220.838 232.485 220.879L223.095 219.877C222.306 219.701 221.435 219.064 221.652 217.859C223.816 206.539 234.09 203.127 243.29 203.127C247.998 203.127 254.149 204.373 257.864 207.92C262.573 212.294 262.124 218.13 262.124 224.481V239.484C262.124 243.993 264.002 245.969 265.771 248.407C266.397 249.273 266.533 250.316 265.744 250.966C263.77 252.604 260.259 255.651 258.327 257.357L258.3 257.33Z" fill="#221F1F"/>
<path d="M121.699 233.864V231.779C114.704 231.779 107.314 233.268 107.314 241.474C107.314 245.631 109.478 248.447 113.193 248.447C115.915 248.447 118.351 246.782 119.889 244.074C121.794 240.743 121.699 237.615 121.699 233.864ZM131.456 257.33C130.816 257.899 129.891 257.939 129.17 257.56C125.958 254.906 125.386 253.674 123.617 251.142C118.31 256.531 114.554 258.142 107.668 258.142C99.5305 258.142 93.189 253.146 93.189 243.139C93.189 235.327 97.4484 230.005 103.504 227.405C108.757 225.103 116.092 224.697 121.699 224.061V222.815C121.699 220.527 121.875 217.819 120.528 215.842C119.344 214.068 117.085 213.337 115.099 213.337C111.411 213.337 108.117 215.219 107.314 219.118C107.151 219.985 106.512 220.838 105.641 220.879L96.2509 219.877C95.4616 219.701 94.5906 219.064 94.8084 217.859C96.9721 206.539 107.246 203.127 116.446 203.127C121.154 203.127 127.305 204.373 131.02 207.92C135.729 212.294 135.28 218.13 135.28 224.481V239.484C135.28 243.993 137.158 245.969 138.927 248.407C139.553 249.273 139.689 250.316 138.9 250.966C136.926 252.604 133.415 255.651 131.483 257.357L131.456 257.33Z" fill="#221F1F"/>
</g>
<defs>
<clipPath id="clip0_13_2">
<rect width="313" height="94" fill="white" transform="translate(93 203)"/>
</clipPath>
</defs>
</svg>
