<svg width="500" height="400" viewBox="0 0 500 400" fill="none" xmlns="http://www.w3.org/2000/svg">
<g clip-path="url(#clip0_13_2)">
<path fill-rule="evenodd" clip-rule="evenodd" d="M298.647 185.933H304.377L317.611 203.314V185.933H323.745V214.163H318.458L304.78 196.216V214.163H298.647V185.933ZM50.2325 185.917H63.3447C66.5723 185.917 69.1154 186.804 70.7284 188.418C72.0195 189.708 72.6666 191.281 72.6666 193.215V193.297C72.6666 196.482 70.9707 198.257 68.9528 199.386C72.2211 200.638 74.239 202.533 74.239 206.323V206.404C74.239 211.565 70.0438 214.146 63.6699 214.146H50.2308V185.917H50.2325ZM66.4926 194.264C66.4926 192.411 65.0406 191.361 62.4178 191.361H56.2845V197.33H62.0146C64.7577 197.33 66.4926 196.443 66.4926 194.347V194.265V194.264ZM63.4666 202.494H56.2845V208.704H63.6682C66.4113 208.704 68.0666 207.737 68.0666 205.638V205.557C68.0666 203.664 66.6536 202.494 63.4666 202.494ZM90.5512 185.715H96.2796L108.385 214.146H101.889L99.3073 207.815H87.3642L84.7804 214.146H78.4455L90.5528 185.715H90.5512ZM97.0877 202.331L93.3333 193.176L89.5821 202.331H97.0877ZM115.354 185.917H128.265C131.857 185.917 134.641 186.924 136.498 188.78C138.07 190.353 138.917 192.572 138.917 195.232V195.314C138.917 199.871 136.455 202.734 132.865 204.065L139.764 214.146H132.504L126.452 205.113H121.569V214.146H115.356L115.354 185.917ZM127.863 199.628C130.888 199.628 132.623 198.016 132.623 195.637V195.556C132.623 192.894 130.766 191.524 127.741 191.524H121.567V199.628H127.863ZM148.374 185.779H154.104L167.338 203.158V185.779H173.47V214.008H168.185L154.507 196.061V214.008H148.374V185.779ZM183.499 185.917H204.803V191.442H189.671V197.17H202.989V202.695H189.671V208.622H205.005V214.148H183.499V185.917ZM212.556 210.035L216.228 205.637C218.769 207.733 221.431 209.066 224.66 209.066C227.203 209.066 228.735 208.058 228.735 206.404V206.323C228.735 204.751 227.767 203.943 223.047 202.734C217.356 201.281 213.684 199.71 213.684 194.104V194.023C213.684 188.901 217.8 185.514 223.571 185.514C227.684 185.514 231.197 186.804 234.062 189.102L230.834 193.781C228.332 192.047 225.87 190.999 223.489 190.999C221.109 190.999 219.858 192.088 219.858 193.458V193.539C219.858 195.393 221.068 195.999 225.951 197.249C231.681 198.743 234.909 200.799 234.909 205.716V205.798C234.909 211.405 230.632 214.549 224.538 214.549C220.262 214.549 215.945 213.057 212.554 210.033M331.325 200.129V200.048C331.325 192.023 337.66 185.449 346.376 185.449C355.091 185.449 361.345 191.941 361.345 199.966V200.048C361.345 208.073 355.01 214.647 346.294 214.647C337.579 214.647 331.325 208.154 331.325 200.129ZM354.849 200.129V200.048C354.849 195.208 351.297 191.176 346.294 191.176C341.291 191.176 337.823 195.128 337.823 199.968V200.049C337.823 204.888 341.372 208.92 346.376 208.92C351.379 208.92 354.849 204.969 354.849 200.129ZM368.52 185.933H381.632C384.86 185.933 387.402 186.82 389.016 188.433C390.307 189.723 390.953 191.298 390.953 193.232V193.313C390.953 196.498 389.258 198.273 387.241 199.403C390.509 200.652 392.525 202.549 392.525 206.339V206.42C392.525 211.582 388.33 214.163 381.956 214.163H368.519L368.52 185.933ZM384.78 194.28C384.78 192.427 383.327 191.377 380.706 191.377H374.572V197.347H380.301C383.044 197.347 384.779 196.458 384.779 194.361L384.78 194.28ZM381.753 202.508H374.572V208.718H381.954C384.699 208.718 386.353 207.751 386.353 205.653V205.572C386.353 203.677 384.941 202.508 381.753 202.508ZM401.556 185.933H407.771V208.517H421.852V214.163H401.556V185.933ZM428.195 185.933H449.497V191.459H434.367V197.184H447.683V202.71H434.367V208.637H449.701V214.163H428.195V185.933Z" fill="#575555"/>
<path fill-rule="evenodd" clip-rule="evenodd" d="M263.224 185.145C262.6 185.145 262.002 185.298 261.498 185.587C260.281 186.284 259.579 187.833 259.748 189.442C260.016 192.005 261.367 193.96 263.328 196.066C265.717 194.147 266.852 192.084 266.893 189.598C266.92 187.943 266.428 186.728 265.39 185.876C264.774 185.391 264.009 185.133 263.224 185.145ZM260.745 200.472C258.849 202.234 257.767 204.626 257.767 207.216C257.767 209.321 258.371 211.011 259.563 212.238C260.75 213.46 262.441 214.08 264.58 214.08C266.551 214.08 268.537 213.339 270.198 212.022L260.745 200.472ZM272.543 214.08C269.867 216.062 266.782 217.21 263.519 217.21C260.367 217.21 257.673 216.384 255.511 214.756C253.32 213.109 252.21 210.847 252.21 208.029C252.21 204.32 254.406 201.021 258.641 198.575C257.12 196.653 256.072 195.279 255.624 194.132C255.157 192.938 254.916 191.667 254.915 190.384C254.915 188.021 255.78 186.1 257.485 184.673C259.174 183.26 261.296 182.544 263.793 182.544C265.998 182.544 267.881 183.154 269.393 184.358C270.81 185.486 271.528 187.228 271.528 189.534C271.528 192.876 269.384 195.604 264.976 197.872L274.028 208.387C274.855 206.67 275.328 204.697 275.328 202.555C275.328 201.597 275.351 200.904 275.263 200.324C275.223 200.04 275.193 199.929 275.085 199.802C275.002 199.705 274.68 199.531 274.45 199.481L271.421 198.767L271.359 197.282L271.694 197.298C273.411 197.361 275.128 197.392 276.845 197.391C277.61 197.391 278.325 197.384 278.992 197.368C279.658 197.352 280.289 197.329 280.888 197.296L281.223 197.272L281.311 198.754L278.273 199.672C278.101 199.718 278.062 199.944 278.078 200.048C278.171 200.883 278.216 201.504 278.216 202.196C278.216 205.478 277.463 208.352 275.979 210.748C276.906 212.102 277.758 213.109 278.512 213.746C279.273 214.388 280.18 214.738 281.195 214.762C281.478 214.77 281.73 214.752 282.45 214.621L282.751 214.553L283.008 216.033L282.813 216.14C281.509 216.851 280.046 217.219 278.561 217.21C276.187 217.21 274.229 216.126 272.543 214.08Z" fill="#C39F43"/>
</g>
<defs>
<clipPath id="clip0_13_2">
<rect width="400" height="36" fill="white" transform="translate(50 182)"/>
</clipPath>
</defs>
</svg>
