<svg width="500" height="500" viewBox="0 0 500 500" fill="none" xmlns="http://www.w3.org/2000/svg">
<g clip-path="url(#clip0_13_2)">
<path fill-rule="evenodd" clip-rule="evenodd" d="M298.647 235.933H304.377L317.611 253.314V235.933H323.745V264.163H318.458L304.78 246.216V264.163H298.647V235.933ZM50.2325 235.917H63.3447C66.5723 235.917 69.1154 236.804 70.7284 238.418C72.0195 239.708 72.6666 241.281 72.6666 243.215V243.297C72.6666 246.482 70.9707 248.257 68.9528 249.386C72.2211 250.638 74.239 252.533 74.239 256.323V256.404C74.239 261.565 70.0438 264.146 63.6699 264.146H50.2308V235.917H50.2325ZM66.4926 244.264C66.4926 242.411 65.0406 241.361 62.4178 241.361H56.2845V247.33H62.0146C64.7577 247.33 66.4926 246.443 66.4926 244.347V244.265V244.264ZM63.4666 252.494H56.2845V258.704H63.6682C66.4113 258.704 68.0666 257.737 68.0666 255.638V255.557C68.0666 253.664 66.6536 252.494 63.4666 252.494ZM90.5512 235.715H96.2796L108.385 264.146H101.889L99.3073 257.815H87.3642L84.7804 264.146H78.4455L90.5528 235.715H90.5512ZM97.0877 252.331L93.3333 243.176L89.5821 252.331H97.0877ZM115.354 235.917H128.265C131.857 235.917 134.641 236.924 136.498 238.78C138.07 240.353 138.917 242.572 138.917 245.232V245.314C138.917 249.871 136.455 252.734 132.865 254.065L139.764 264.146H132.504L126.452 255.113H121.569V264.146H115.356L115.354 235.917ZM127.863 249.628C130.888 249.628 132.623 248.016 132.623 245.637V245.556C132.623 242.894 130.766 241.524 127.741 241.524H121.567V249.628H127.863ZM148.374 235.779H154.104L167.338 253.158V235.779H173.47V264.008H168.185L154.507 246.061V264.008H148.374V235.779ZM183.499 235.917H204.803V241.442H189.671V247.17H202.989V252.695H189.671V258.622H205.005V264.148H183.499V235.917ZM212.556 260.035L216.228 255.637C218.769 257.733 221.431 259.066 224.66 259.066C227.203 259.066 228.735 258.058 228.735 256.404V256.323C228.735 254.751 227.767 253.943 223.047 252.734C217.356 251.281 213.684 249.71 213.684 244.104V244.023C213.684 238.901 217.8 235.514 223.571 235.514C227.684 235.514 231.197 236.804 234.062 239.102L230.834 243.781C228.332 242.047 225.87 240.999 223.489 240.999C221.109 240.999 219.858 242.088 219.858 243.458V243.539C219.858 245.393 221.068 245.999 225.951 247.249C231.681 248.743 234.909 250.799 234.909 255.716V255.798C234.909 261.405 230.632 264.549 224.538 264.549C220.262 264.549 215.945 263.057 212.554 260.033M331.325 250.129V250.048C331.325 242.023 337.66 235.449 346.376 235.449C355.091 235.449 361.345 241.941 361.345 249.966V250.048C361.345 258.073 355.01 264.647 346.294 264.647C337.579 264.647 331.325 258.154 331.325 250.129ZM354.849 250.129V250.048C354.849 245.208 351.297 241.176 346.294 241.176C341.291 241.176 337.823 245.128 337.823 249.968V250.049C337.823 254.888 341.372 258.92 346.376 258.92C351.379 258.92 354.849 254.969 354.849 250.129ZM368.52 235.933H381.632C384.86 235.933 387.402 236.82 389.016 238.433C390.307 239.723 390.953 241.298 390.953 243.232V243.313C390.953 246.498 389.258 248.273 387.241 249.403C390.509 250.652 392.525 252.549 392.525 256.339V256.42C392.525 261.582 388.33 264.163 381.956 264.163H368.519L368.52 235.933ZM384.78 244.28C384.78 242.427 383.327 241.377 380.706 241.377H374.572V247.347H380.301C383.044 247.347 384.779 246.458 384.779 244.361L384.78 244.28ZM381.753 252.508H374.572V258.718H381.954C384.699 258.718 386.353 257.751 386.353 255.653V255.572C386.353 253.677 384.941 252.508 381.753 252.508ZM401.556 235.933H407.771V258.517H421.852V264.163H401.556V235.933ZM428.195 235.933H449.497V241.459H434.367V247.184H447.683V252.71H434.367V258.637H449.701V264.163H428.195V235.933Z" fill="#575555"/>
<path fill-rule="evenodd" clip-rule="evenodd" d="M263.224 235.145C262.6 235.145 262.002 235.298 261.498 235.587C260.281 236.284 259.579 237.833 259.748 239.442C260.016 242.005 261.367 243.96 263.328 246.066C265.717 244.147 266.852 242.084 266.893 239.598C266.92 237.943 266.428 236.728 265.39 235.876C264.774 235.391 264.009 235.133 263.224 235.145ZM260.745 250.472C258.849 252.234 257.767 254.626 257.767 257.216C257.767 259.321 258.371 261.011 259.563 262.238C260.75 263.46 262.441 264.08 264.58 264.08C266.551 264.08 268.537 263.339 270.198 262.022L260.745 250.472ZM272.543 264.08C269.867 266.062 266.782 267.21 263.519 267.21C260.367 267.21 257.673 266.384 255.511 264.756C253.32 263.109 252.21 260.847 252.21 258.029C252.21 254.32 254.406 251.021 258.641 248.575C257.12 246.653 256.072 245.279 255.624 244.132C255.157 242.938 254.916 241.667 254.915 240.384C254.915 238.021 255.78 236.1 257.485 234.673C259.174 233.26 261.296 232.544 263.793 232.544C265.998 232.544 267.881 233.154 269.393 234.358C270.81 235.486 271.528 237.228 271.528 239.534C271.528 242.876 269.384 245.604 264.976 247.872L274.028 258.387C274.855 256.67 275.328 254.697 275.328 252.555C275.328 251.597 275.351 250.904 275.263 250.324C275.223 250.04 275.193 249.929 275.085 249.802C275.002 249.705 274.68 249.531 274.45 249.481L271.421 248.767L271.359 247.282L271.694 247.298C273.411 247.361 275.128 247.392 276.845 247.391C277.61 247.391 278.325 247.384 278.992 247.368C279.658 247.352 280.289 247.329 280.888 247.296L281.223 247.272L281.311 248.754L278.273 249.672C278.101 249.718 278.062 249.944 278.078 250.048C278.171 250.883 278.216 251.504 278.216 252.196C278.216 255.478 277.463 258.352 275.979 260.748C276.906 262.102 277.758 263.109 278.512 263.746C279.273 264.388 280.18 264.738 281.195 264.762C281.478 264.77 281.73 264.752 282.45 264.621L282.751 264.553L283.008 266.033L282.813 266.14C281.509 266.851 280.046 267.219 278.561 267.21C276.187 267.21 274.229 266.126 272.543 264.08Z" fill="#C39F43"/>
</g>
<defs>
<clipPath id="clip0_13_2">
<rect width="400" height="36" fill="white" transform="translate(50 232)"/>
</clipPath>
</defs>
</svg>
