<svg width="500" height="400" viewBox="0 0 500 400" fill="none" xmlns="http://www.w3.org/2000/svg">
<path fill-rule="evenodd" clip-rule="evenodd" d="M118.353 189.005C118.433 188.379 118.472 187.748 118.468 187.116C118.473 186.465 118.434 185.814 118.353 185.169C117.925 182.314 116.628 179.674 114.648 177.627C113.562 176.479 112.308 175.513 110.931 174.765C110.044 174.215 109.094 173.78 108.104 173.47C105.575 172.828 102.974 172.541 100.371 172.615H98.3049L66.358 172.674H50.6846C50.3149 172.674 50.0152 172.983 50.0152 173.363V175.382C50.0143 175.738 50.2817 176.034 50.6269 176.059H51.0654C51.4809 176.178 51.8964 176.178 52.3235 176.178C53.285 176.197 54.2429 176.304 55.1858 176.499C55.5595 176.576 55.9183 176.717 56.2476 176.914C56.7366 177.344 57.0294 177.964 57.0555 178.625C57.1881 179.716 57.2498 180.815 57.2402 181.914V191.618C57.2402 192.259 57.2402 192.912 57.2402 193.494C57.2402 194.183 57.2402 194.836 57.2402 195.299C57.3035 196.077 57.0579 196.849 56.5592 197.437C55.9999 197.73 55.3735 197.862 54.7472 197.817H54.5164C53.9624 197.817 53.5123 197.817 53.039 197.817C52.5658 197.817 51.8849 197.817 51.0424 197.9H50.6038C50.4129 197.923 50.24 198.027 50.1279 198.188C50.0158 198.348 49.9748 198.55 50.0152 198.744V200.763C50.0198 201.123 50.2894 201.421 50.6384 201.451H51.0654C51.7118 201.511 52.2196 201.511 52.8428 201.511H54.1586H55.2319H55.3243C55.9937 201.511 56.64 201.57 56.9632 202.366C57.0493 202.577 57.0963 202.802 57.1017 203.031V203.197C57.1017 203.862 57.2055 204.539 57.2171 205.216C57.2286 205.893 57.2171 206.404 57.2171 206.986V213.34C57.2171 213.791 57.2171 214.254 57.2171 214.73C57.2683 216.131 57.249 217.534 57.1594 218.934C57.1048 219.975 56.6963 220.963 56.0052 221.725C55.2582 222.391 54.3047 222.762 53.316 222.77H52.7043H52.3235H51.5386C51.2155 222.77 50.9039 222.77 50.6038 222.853H50.3614C50.0498 222.853 50.0498 223.186 50.0498 223.304C50.0151 223.428 50.0034 223.557 50.0152 223.685V225.965C50.0148 226.116 50.0729 226.261 50.1767 226.368C50.3958 226.545 50.6748 226.622 50.95 226.582H98.0625C99.1013 226.582 100.371 226.582 101.525 226.582H101.952C103.206 226.593 104.458 226.522 105.703 226.368C106.537 226.259 107.36 226.072 108.161 225.81C109.131 225.477 110.066 225.047 110.954 224.528C112.321 223.755 113.566 222.774 114.648 221.618C116.628 219.571 117.925 216.93 118.353 214.076C118.433 213.45 118.472 212.819 118.468 212.188C118.473 211.537 118.435 210.886 118.353 210.24C117.757 206.435 115.671 203.048 112.582 200.87L110.874 199.622L112.582 198.435C115.688 196.246 117.777 192.833 118.353 189.005ZM112.339 205.739C113.849 207.508 114.732 209.753 114.843 212.105C114.752 214.49 113.868 216.771 112.339 218.566C111.454 219.633 110.396 220.533 109.211 221.226C108.866 221.42 108.512 221.594 108.149 221.749C105.448 222.936 102.378 222.865 99.3777 222.794H97.3809H63.6105C62.8156 222.791 62.0548 222.462 61.496 221.88C60.9372 221.299 60.6266 220.512 60.6327 219.694V203.067C60.6452 202.228 61.3064 201.553 62.1216 201.546H76.6294C80.1726 201.546 84.1081 201.546 87.9169 201.546H97.5771H99.3892C101.915 201.357 104.455 201.577 106.914 202.2C109.048 202.764 110.951 204.012 112.35 205.763L112.339 205.739ZM109.269 196.131C106.626 197.663 103.279 197.675 100.832 197.675C93.1566 197.675 85.4699 197.675 78.9029 197.675H62.1561C61.321 197.675 60.6441 196.978 60.6441 196.119C60.6441 192.473 60.6441 188.993 60.6441 185.893V178.553C60.6441 177.432 61.5277 176.522 62.6177 176.522H80.507C82.0768 176.522 83.6694 176.522 85.216 176.522H85.2737C87.7551 176.522 90.5598 176.522 93.249 176.522C94.5301 176.522 95.8227 176.522 97.0692 176.522H97.1268C98.6966 176.522 100.312 176.463 101.905 176.522C104.525 176.629 107.526 176.879 109.869 178.494C112.045 179.937 113.675 182.104 114.485 184.634C114.725 185.436 114.861 186.266 114.889 187.105V187.176C114.755 189.521 113.856 191.751 112.339 193.506C111.472 194.559 110.433 195.447 109.269 196.131Z" fill="#573BA3"/>
<path d="M156.429 199.234C159.826 199.234 162.483 200.058 164.4 201.706C166.351 203.354 167.326 205.423 167.326 207.912C167.326 210.703 166.267 213.024 164.148 214.874C162.029 216.724 158.884 217.649 154.713 217.649H136.854V216.135C138.805 216.034 140.1 215.614 140.739 214.874C141.411 214.1 141.748 212.654 141.748 210.535V189.447C141.748 187.294 141.411 185.848 140.739 185.108C140.1 184.368 138.805 183.948 136.854 183.847V182.333H154.259C157.892 182.333 160.7 183.107 162.685 184.654C164.669 186.201 165.661 188.303 165.661 190.96C165.661 193.146 164.804 194.996 163.088 196.51C161.407 198.023 159.17 198.831 156.378 198.932H154.613V199.234H156.429ZM152.393 184.25H147.348V198.175H152.847C155.067 198.175 156.782 197.586 157.993 196.409C159.237 195.198 159.859 193.483 159.859 191.263C159.859 188.64 159.237 186.823 157.993 185.814C156.748 184.772 154.882 184.25 152.393 184.25ZM153.805 215.732C156.328 215.732 158.228 215.042 159.506 213.663C160.784 212.284 161.423 210.384 161.423 207.962C161.423 205.507 160.717 203.59 159.304 202.211C157.892 200.798 155.924 200.092 153.402 200.092H147.348V212.654C147.348 213.663 147.583 214.437 148.054 214.975C148.525 215.479 149.332 215.732 150.476 215.732H153.805ZM192.192 214.571C189.838 217.026 186.828 218.254 183.162 218.254C179.496 218.254 176.469 217.026 174.081 214.571C171.726 212.116 170.549 208.988 170.549 205.187C170.549 201.42 171.726 198.309 174.081 195.854C176.469 193.365 179.496 192.121 183.162 192.121C186.828 192.121 189.838 193.365 192.192 195.854C194.58 198.309 195.774 201.42 195.774 205.187C195.774 208.988 194.58 212.116 192.192 214.571ZM176.452 205.187C176.452 212.351 178.688 215.933 183.162 215.933C187.635 215.933 189.872 212.351 189.872 205.187C189.872 198.023 187.635 194.441 183.162 194.441C178.688 194.441 176.452 198.023 176.452 205.187ZM220.818 214.571C218.463 217.026 215.453 218.254 211.787 218.254C208.121 218.254 205.094 217.026 202.706 214.571C200.352 212.116 199.174 208.988 199.174 205.187C199.174 201.42 200.352 198.309 202.706 195.854C205.094 193.365 208.121 192.121 211.787 192.121C215.453 192.121 218.463 193.365 220.818 195.854C223.206 198.309 224.4 201.42 224.4 205.187C224.4 208.988 223.206 212.116 220.818 214.571ZM205.077 205.187C205.077 212.351 207.314 215.933 211.787 215.933C216.26 215.933 218.497 212.351 218.497 205.187C218.497 198.023 216.26 194.441 211.787 194.441C207.314 194.441 205.077 198.023 205.077 205.187ZM226.55 217.649V216.186C228.266 215.984 229.375 215.681 229.88 215.277C230.384 214.84 230.636 213.966 230.636 212.654V185.159C230.636 184.15 230.485 183.46 230.182 183.09C229.88 182.72 229.308 182.535 228.467 182.535C227.929 182.535 227.324 182.586 226.651 182.686V181.324L234.268 179.306H235.731V212.654C235.731 213.932 235.951 214.79 236.387 215.227C236.825 215.664 237.699 215.984 239.011 216.186V217.649H226.55ZM247.587 217.649L236.488 204.582L243.854 198.679C245.368 197.401 246.124 196.375 246.124 195.602C246.124 195.064 245.922 194.71 245.519 194.542C245.115 194.341 244.443 194.24 243.501 194.24V192.726H253.944V194.24C252.196 194.475 250.144 195.585 247.789 197.569L241.836 202.463L241.886 202.715L250.261 212.402C251.204 213.512 252.027 214.353 252.733 214.924C253.474 215.496 254.382 215.917 255.458 216.186V217.649H247.587ZM265.097 218.254C261.735 218.254 258.96 217.396 256.773 215.681V209.526H258.64C259.112 211.611 260.002 213.192 261.313 214.268C262.625 215.345 264.173 215.883 265.955 215.883C267.368 215.883 268.495 215.546 269.335 214.874C270.211 214.201 270.647 213.276 270.647 212.099C270.647 211.124 270.395 210.333 269.89 209.728C269.386 209.123 268.562 208.635 267.418 208.265L262.777 206.65C258.876 205.372 256.924 203.052 256.924 199.688C256.924 197.401 257.8 195.568 259.548 194.189C261.297 192.81 263.551 192.121 266.308 192.121C268.966 192.121 271.438 192.659 273.724 193.735V199.386H271.908C271.539 197.906 270.782 196.695 269.638 195.753C268.528 194.811 267.15 194.341 265.501 194.341C264.189 194.341 263.13 194.643 262.322 195.249C261.549 195.854 261.162 196.645 261.162 197.62C261.162 199.47 262.189 200.765 264.24 201.505L269.587 203.422C273.086 204.7 274.834 206.987 274.834 210.283C274.834 212.705 273.944 214.638 272.16 216.085C270.378 217.531 268.023 218.254 265.097 218.254ZM277.05 217.649V216.186C278.733 216.017 279.825 215.715 280.33 215.277C280.868 214.84 281.137 213.966 281.137 212.654V185.159C281.137 184.116 280.986 183.426 280.683 183.09C280.38 182.72 279.775 182.535 278.867 182.535C278.396 182.535 277.825 182.586 277.151 182.686V181.324L284.769 179.306H286.232V191.465C286.232 194.29 285.913 196.712 285.274 198.73L285.526 198.831C286.2 196.712 287.292 195.064 288.805 193.886C290.353 192.709 292.22 192.121 294.405 192.121C296.795 192.121 298.677 192.827 300.056 194.24C301.468 195.652 302.175 197.855 302.175 200.849V212.604C302.175 213.949 302.427 214.84 302.931 215.277C303.47 215.681 304.58 215.984 306.261 216.186V217.649H293.901V216.186C295.146 215.95 295.987 215.631 296.423 215.227C296.861 214.79 297.079 214.1 297.079 213.159V201.605C297.079 199.688 296.625 198.259 295.717 197.317C294.809 196.342 293.582 195.854 292.034 195.854C289.344 195.854 287.411 197.031 286.232 199.386V212.654C286.232 213.932 286.452 214.79 286.888 215.227C287.326 215.664 288.2 215.984 289.512 216.186V217.649H277.05ZM329.555 214.571C327.2 217.026 324.189 218.254 320.524 218.254C316.858 218.254 313.831 217.026 311.443 214.571C309.088 212.116 307.912 208.988 307.912 205.187C307.912 201.42 309.088 198.309 311.443 195.854C313.831 193.365 316.858 192.121 320.524 192.121C324.189 192.121 327.2 193.365 329.555 195.854C331.942 198.309 333.137 201.42 333.137 205.187C333.137 208.988 331.942 212.116 329.555 214.571ZM313.814 205.187C313.814 212.351 316.05 215.933 320.524 215.933C324.996 215.933 327.234 212.351 327.234 205.187C327.234 198.023 324.996 194.441 320.524 194.441C316.05 194.441 313.814 198.023 313.814 205.187ZM335.186 229V227.537C336.867 227.369 337.96 227.066 338.465 226.629C339.002 226.192 339.272 225.317 339.272 224.005V198.578C339.272 197.771 339.086 197.199 338.717 196.863C338.38 196.493 337.809 196.308 337.002 196.308C336.598 196.308 335.892 196.342 334.883 196.409V194.946L342.299 192.726H343.813V195.602C343.813 196.274 343.661 197.317 343.359 198.73L343.611 198.78C344.283 196.728 345.377 195.114 346.89 193.937C348.436 192.726 350.22 192.121 352.238 192.121C355.196 192.121 357.551 193.18 359.301 195.299C361.083 197.384 361.975 200.176 361.975 203.674C361.975 207.945 360.78 211.443 358.393 214.168C356.038 216.892 353.027 218.254 349.362 218.254C347.477 218.254 345.813 217.817 344.368 216.942V223.955C344.368 225.334 344.703 226.225 345.377 226.629C346.083 227.066 347.477 227.369 349.564 227.537V229H335.186ZM349.362 216.135C351.548 216.135 353.297 215.193 354.609 213.31C355.921 211.393 356.577 208.803 356.577 205.541C356.577 202.581 356.004 200.31 354.861 198.73C353.751 197.115 352.119 196.308 349.968 196.308C347.344 196.308 345.477 197.3 344.368 199.285V213.915C345.746 215.395 347.411 216.135 349.362 216.135ZM371.645 216.892C370.904 217.665 369.996 218.052 368.921 218.052C367.845 218.052 366.919 217.665 366.146 216.892C365.373 216.118 364.986 215.193 364.986 214.117C364.986 213.041 365.373 212.133 366.146 211.393C366.919 210.619 367.845 210.232 368.921 210.232C369.964 210.232 370.872 210.619 371.645 211.393C372.418 212.133 372.805 213.041 372.805 214.117C372.805 215.193 372.418 216.118 371.645 216.892ZM397.447 214.571C395.094 217.026 392.083 218.254 388.416 218.254C384.751 218.254 381.724 217.026 379.335 214.571C376.982 212.116 375.804 208.988 375.804 205.187C375.804 201.42 376.982 198.309 379.335 195.854C381.724 193.365 384.751 192.121 388.416 192.121C392.083 192.121 395.094 193.365 397.447 195.854C399.836 198.309 401.029 201.42 401.029 205.187C401.029 208.988 399.836 212.116 397.447 214.571ZM381.706 205.187C381.706 212.351 383.944 215.933 388.416 215.933C392.89 215.933 395.126 212.351 395.126 205.187C395.126 198.023 392.89 194.441 388.416 194.441C383.944 194.441 381.706 198.023 381.706 205.187ZM420.079 192.121C420.719 192.121 421.223 192.188 421.593 192.323V198.074H420.634C419.962 197.737 419.222 197.569 418.414 197.569C416.868 197.569 415.557 198.04 414.479 198.982C413.438 199.89 412.915 201.37 412.915 203.422V212.604C412.915 213.983 413.252 214.891 413.924 215.328C414.631 215.732 416.027 216.017 418.112 216.186V217.649H403.733V216.186C405.416 216.017 406.508 215.715 407.013 215.277C407.551 214.84 407.82 213.966 407.82 212.654V198.578C407.82 197.771 407.636 197.199 407.265 196.863C406.93 196.493 406.324 196.308 405.449 196.308C405.113 196.308 404.44 196.342 403.431 196.409V194.946L410.847 192.726H412.36V196.813C412.36 198.932 412.294 200.765 412.159 202.312H412.512L412.966 199.386C413.337 196.998 414.195 195.198 415.539 193.987C416.885 192.743 418.398 192.121 420.079 192.121ZM445.95 195.551C444.503 195.551 442.957 195.165 441.308 194.391L441.106 194.694C443.764 195.602 445.092 197.62 445.092 200.748C445.092 203.27 444.117 205.305 442.166 206.852C440.249 208.399 437.76 209.173 434.699 209.173C433.387 209.173 432.092 209.005 430.814 208.668C429.032 208.87 428.14 209.661 428.14 211.04C428.14 212.452 429.368 213.243 431.823 213.411L439.946 213.865C445.227 214.134 447.867 216.219 447.867 220.121C447.867 222.71 446.722 224.93 444.436 226.78C442.15 228.664 438.668 229.605 433.993 229.605C430.629 229.605 427.955 229.034 425.971 227.89C423.987 226.78 422.995 225.368 422.995 223.652C422.995 221.063 424.744 219.314 428.241 218.405V218.103C426.996 217.733 426.022 217.11 425.315 216.236C424.643 215.362 424.306 214.353 424.306 213.209C424.306 212.133 424.676 211.141 425.416 210.232C426.157 209.291 427.232 208.584 428.645 208.114V207.76C427.299 207.054 426.24 206.095 425.467 204.885C424.694 203.64 424.306 202.245 424.306 200.697C424.306 198.175 425.281 196.123 427.232 194.542C429.184 192.928 431.672 192.121 434.699 192.121C436.213 192.121 437.609 192.323 438.886 192.726H447.867V195.551H445.95ZM431.016 205.742C431.924 206.819 433.151 207.357 434.699 207.357C436.247 207.357 437.474 206.819 438.382 205.742C439.29 204.632 439.744 202.951 439.744 200.697C439.744 198.444 439.29 196.762 438.382 195.652C437.474 194.509 436.247 193.937 434.699 193.937C433.151 193.937 431.924 194.509 431.016 195.652C430.108 196.762 429.654 198.444 429.654 200.697C429.654 202.951 430.108 204.632 431.016 205.742ZM438.886 218.859L430.36 218.456C430.159 218.456 430.007 218.439 429.906 218.405C428.292 219.213 427.485 220.457 427.485 222.139C427.485 223.686 428.276 224.897 429.856 225.771C431.436 226.679 433.64 227.133 436.465 227.133C438.987 227.133 440.939 226.73 442.317 225.923C443.695 225.115 444.386 224.022 444.386 222.643C444.386 220.222 442.553 218.96 438.886 218.859Z" fill="#2B0F42"/>
</svg>
