<svg width="500" height="400" viewBox="0 0 500 400" fill="none" xmlns="http://www.w3.org/2000/svg">
<g clip-path="url(#clip0_13_2)">
<path d="M236.933 281.578C222 281.578 189.733 280.244 159.067 269.933C136.311 262.289 120.933 249.844 114.711 234.111C109.289 220.333 111.067 204.422 119.867 187.978C129.378 170.289 147.778 152.778 170.444 139.978C194.178 126.556 220.222 119.444 243.867 119.711C298.622 120.511 334.622 144.067 351.156 158.022C363.689 168.6 385.289 193.4 386.889 219.267C387.689 231.889 383.6 243.089 374.8 252.6C362.444 265.933 336.844 274.822 298.711 279.089C271.244 282.111 246.889 281.578 245.289 281.578C244.756 281.489 241.822 281.578 236.933 281.578ZM242.178 123.356C219.6 123.356 194.889 130.378 172.311 143.089C150.267 155.533 132.311 172.511 123.156 189.667C114.889 205.133 113.111 220.067 118.178 232.778C124.044 247.533 138.622 259.178 160.311 266.467C201.022 280.156 244.756 277.756 245.2 277.756H245.289H245.378C246.356 277.756 344.044 280.333 372.133 250.022C380.222 241.311 383.956 231 383.244 219.444C381.733 194.822 360.844 170.911 348.756 160.778C332.578 147.178 297.467 124.156 243.778 123.356C243.244 123.356 242.711 123.356 242.178 123.356Z" fill="black"/>
<path d="M243.067 304.956C175.333 303.711 131.333 291 108.578 266.111C94.4444 250.733 88.4889 230.911 90.2667 205.578C91.2444 191.444 96.6667 177.311 106.267 163.622C115.067 151.089 127.511 139.089 142.178 128.778C171.422 108.333 208.311 95.7111 240.844 95C275.422 94.2889 311.156 103.622 341.556 121.222C369.378 137.311 390.8 159.267 400.489 181.4C411.422 206.467 412.933 231.356 404.933 251.533C398.533 267.622 386.267 279.889 369.378 287.089C329.822 303.978 246.622 304.956 243.067 304.956ZM244.4 98.6444C243.244 98.6444 242.089 98.6444 240.933 98.6444C209.111 99.3556 173.022 111.711 144.311 131.8C114.178 152.867 95.7778 179.889 94 205.844C92.3111 230.111 97.9111 249.044 111.244 263.622C133.289 287.711 176.4 300.067 243.067 301.311C244.933 301.311 329.289 300.244 367.956 283.8C383.867 277.044 395.511 265.4 401.467 250.289C409.111 231 407.6 207.089 397.111 182.911C387.778 161.489 366.889 140.156 339.689 124.422C310.978 107.8 277.2 98.6444 244.4 98.6444Z" fill="black"/>
<path d="M142.889 134.822L153.911 127.356L156.844 131.622L156.311 131.978C155.067 130.556 153.911 129.844 152.756 129.844C152.133 129.844 151.333 130.111 150.356 130.733L157.911 141.933C158.444 142.733 158.889 143.178 159.333 143.267C159.778 143.356 160.311 143.178 161.022 142.644L161.378 143.178L154.889 147.622L154.533 147.089C155.244 146.644 155.6 146.2 155.689 145.756C155.778 145.311 155.511 144.778 154.978 143.978L147.422 132.778C146.533 133.4 146 134.022 145.733 134.644C145.2 135.8 145.467 137.133 146.356 138.733L145.822 139.089L142.889 134.822Z" fill="black"/>
<path d="M164.222 140.422C164.755 140.156 165.022 139.8 165.2 139.533C165.467 139.089 165.378 138.556 165.022 137.933L159.067 127.089C158.711 126.467 158.355 126.111 157.911 126.111C157.644 126.111 157.2 126.2 156.578 126.467L156.311 125.933L162.889 122.378L163.155 122.911C162.622 123.267 162.267 123.533 162.089 123.8C161.822 124.244 161.911 124.778 162.267 125.4L164.844 130.022L169.467 127.533L166.889 122.911C166.533 122.289 166.089 121.933 165.644 121.844C165.378 121.844 164.933 121.933 164.311 122.2L164.044 121.667L170.622 118.111L170.889 118.644C170.355 119 170 119.267 169.911 119.533C169.733 119.978 169.733 120.511 170.089 121.133L176.044 131.978C176.4 132.6 176.844 132.956 177.378 133.044C177.644 133.044 178.089 132.956 178.622 132.689L178.889 133.222L172.311 136.778L172.044 136.244C172.578 135.889 172.933 135.622 173.111 135.356C173.378 134.911 173.289 134.378 172.933 133.756L170 128.511L165.378 131L168.222 136.156C168.578 136.778 169.022 137.133 169.555 137.222C169.822 137.222 170.267 137.133 170.8 136.867L171.067 137.4L164.489 140.956L164.222 140.422Z" fill="black"/>
<path d="M179.6 132.867L179.333 132.244C179.867 131.978 180.311 131.711 180.489 131.444C180.755 131 180.755 130.467 180.489 129.844L175.6 118.467C175.333 117.756 174.889 117.4 174.444 117.311C174.178 117.222 173.733 117.311 173.111 117.578L172.844 116.956L184.489 111.978L186.533 116.689L186 116.867C185.111 115.444 184.222 114.644 183.333 114.289C182.444 114.022 181.2 114.2 179.6 114.911C178.978 115.178 178.622 115.444 178.533 115.622C178.444 115.8 178.444 116.156 178.622 116.6L180.933 122.022C182.089 121.578 182.8 120.956 182.978 120.244C183.155 119.533 183.067 118.556 182.711 117.133L183.244 116.956L186.622 124.867L186.089 125.044C185.378 123.8 184.667 122.911 183.955 122.556C183.244 122.2 182.355 122.289 181.2 122.733L183.6 128.422C183.778 128.956 184.044 129.222 184.4 129.311C184.667 129.4 185.2 129.311 185.911 128.956C187.244 128.422 188.133 127.622 188.667 126.733C189.2 125.844 189.467 124.422 189.467 122.556L190 122.289L191.244 127.533L179.6 132.867Z" fill="black"/>
<path d="M198.267 125.311L198.089 124.689C198.711 124.511 199.067 124.244 199.333 124.067C199.689 123.711 199.689 123.178 199.511 122.467L196.044 110.556C195.867 109.844 195.511 109.4 194.978 109.311C194.711 109.222 194.267 109.222 193.644 109.4L193.467 108.778L205.644 105.222L207.067 110.2L206.533 110.378C205.822 108.867 205.022 107.889 204.222 107.533C203.422 107.178 202.178 107.178 200.489 107.711C199.867 107.889 199.422 108.067 199.333 108.333C199.244 108.511 199.244 108.867 199.333 109.311L200.933 115C202.178 114.644 202.889 114.2 203.156 113.489C203.422 112.867 203.511 111.8 203.333 110.289L203.867 110.111L206.267 118.378L205.733 118.556C205.2 117.222 204.578 116.333 203.956 115.889C203.333 115.444 202.444 115.444 201.2 115.8L202.889 121.667C203.067 122.2 203.244 122.467 203.511 122.644C203.778 122.733 204.311 122.733 205.022 122.556C206.356 122.2 207.422 121.578 208.044 120.689C208.756 119.8 209.111 118.467 209.289 116.6L210 116.333L210.622 121.667L198.267 125.311Z" fill="black"/>
<path d="M212.222 120.6C212.844 120.511 213.2 120.333 213.467 120.067C213.822 119.711 214 119.178 213.822 118.467L211.6 106.289C211.511 105.578 211.155 105.133 210.711 104.956C210.444 104.867 210 104.867 209.378 104.867L209.289 104.244L216.844 102.822L216.933 103.444C216.044 103.622 215.511 103.889 215.244 104.156C214.978 104.422 214.978 105.133 215.155 106.111L217.378 118.022C217.467 118.556 217.644 118.911 217.911 119.089C218.178 119.178 218.711 119.178 219.422 119.089C220.755 118.822 221.733 118.289 222.533 117.489C223.333 116.689 223.778 115.178 224.133 113.133L224.755 113.044L224.933 118.911L212.4 121.222L212.222 120.6Z" fill="black"/>
<path d="M226.711 117.933C227.333 117.844 227.689 117.756 227.956 117.578C228.4 117.311 228.578 116.778 228.489 115.978L227.6 103.622C227.511 102.911 227.333 102.378 226.889 102.2C226.622 102.022 226.178 102.022 225.556 102.022V101.4L233.2 100.867V101.489C232.311 101.578 231.689 101.756 231.422 102.022C231.156 102.289 231.067 102.911 231.156 103.978L232.044 116.067C232.044 116.6 232.222 116.956 232.489 117.133C232.756 117.311 233.289 117.311 234 117.311C235.333 117.222 236.4 116.778 237.289 116.067C238.178 115.356 238.8 113.933 239.333 111.978H239.956L239.511 117.844L226.8 118.733L226.711 117.933Z" fill="black"/>
<path d="M241.378 117.133C242 117.133 242.444 117.044 242.711 116.867C243.155 116.6 243.422 116.067 243.422 115.356L243.689 103C243.689 102.289 243.511 101.756 243.067 101.489C242.8 101.311 242.355 101.222 241.733 101.133V100.511L249.467 100.689V101.311C248.755 101.311 248.311 101.4 248.044 101.578C247.6 101.844 247.422 102.289 247.333 103.089L247.067 115.444C247.067 116.156 247.244 116.6 247.511 116.867C247.867 117.133 248.4 117.222 249.022 117.222V117.844L241.289 117.667L241.378 117.133Z" fill="black"/>
<path d="M264.933 103.889C266.267 105.756 266.889 107.978 266.622 110.644C266.355 113.311 265.467 115.444 263.778 117.044C262.178 118.556 260.222 119.267 258 119.089C255.689 118.911 253.822 117.844 252.489 115.889C251.244 114.022 250.711 111.889 250.978 109.489C251.244 106.822 252.133 104.689 253.733 103.089C255.333 101.489 257.289 100.778 259.6 100.956C261.822 101.133 263.6 102.111 264.933 103.889ZM261.733 115.089C262.178 113.933 262.444 112.333 262.622 110.289C262.889 107.533 262.711 105.489 262.089 104.067C261.556 102.644 260.667 101.844 259.422 101.756C257.733 101.578 256.489 102.644 255.689 104.867C255.244 106.022 254.978 107.622 254.8 109.578C254.622 111.533 254.622 113.222 254.889 114.467C255.333 116.778 256.311 118.022 258 118.2C259.689 118.378 260.933 117.311 261.733 115.089Z" fill="black"/>
<path d="M270.089 102.467L283.156 104.778L282.267 109.844L281.644 109.756C281.733 107.889 281.378 106.556 280.578 105.756C280.133 105.311 279.333 104.956 278.267 104.778L275.955 118.022C275.778 118.911 275.867 119.622 276.044 119.978C276.311 120.333 276.844 120.6 277.733 120.778L277.644 121.4L269.911 120.067L270 119.444C270.889 119.622 271.422 119.533 271.778 119.267C272.133 119 272.4 118.378 272.489 117.489L274.8 104.244C273.733 104.067 272.844 104.156 272.222 104.422C271.067 104.867 270.267 106.022 269.822 107.8L269.2 107.711L270.089 102.467Z" fill="black"/>
<path d="M285.911 105.311L298.711 108.689L297.467 113.667L296.844 113.489C297.111 111.622 296.844 110.289 296.044 109.4C295.6 108.956 294.889 108.511 293.822 108.244L290.444 121.311C290.178 122.2 290.178 122.822 290.356 123.267C290.533 123.622 291.067 123.889 291.956 124.156L291.778 124.778L284.133 122.822L284.311 122.2C285.111 122.378 285.733 122.378 286.089 122.2C286.444 121.933 286.711 121.4 286.978 120.511L290.356 107.444C289.289 107.178 288.489 107.178 287.778 107.356C286.622 107.711 285.733 108.778 285.111 110.556L284.489 110.378L285.911 105.311Z" fill="black"/>
<path d="M300.578 126.733C301.111 126.911 301.555 127 301.911 126.911C302.444 126.822 302.8 126.467 303.067 125.756L307.511 114.2C307.778 113.489 307.778 112.956 307.511 112.6C307.333 112.333 306.978 112.156 306.355 111.889L306.622 111.267L312.933 113.756C314.178 114.2 315.067 114.822 315.778 115.444C317.022 116.689 317.378 118.022 316.755 119.711C316.4 120.689 315.778 121.4 314.889 121.667C314.089 122.022 313.2 122.111 312.489 122.022L312.4 122.2C313.111 122.644 313.644 123.178 314.089 123.8C314.889 125.044 314.978 126.378 314.444 127.711C313.911 129.044 313.022 129.933 311.6 130.289C310.267 130.733 308.667 130.556 306.889 129.933L300.311 127.356L300.578 126.733ZM306.089 128.067C306.089 128.511 306.355 128.778 306.889 128.956C307.867 129.311 308.667 129.311 309.289 128.867C309.911 128.422 310.444 127.622 310.889 126.467C311.511 124.778 311.511 123.444 310.889 122.556C310.533 122.022 309.733 121.578 308.578 121.133L306.267 127.089C306.178 127.533 306.089 127.8 306.089 128.067ZM311.778 120.689C312.4 120.422 312.933 119.622 313.467 118.378C313.822 117.489 314 116.689 313.911 115.889C313.911 115.178 313.467 114.644 312.667 114.289C312.222 114.111 311.867 114.111 311.689 114.2C311.422 114.289 311.244 114.556 311.067 115L309.022 120.333C310.178 120.867 311.155 120.956 311.778 120.689Z" fill="black"/>
<path d="M314.356 132.067C314.889 132.244 315.333 132.244 315.867 131.889C316.222 131.711 316.756 131.178 317.644 130.378L328.222 119.978L328.756 120.244L327.156 134.467C326.978 136.067 326.889 137.133 326.978 137.667C327.067 138.2 327.244 138.556 327.778 138.733L327.511 139.356L321.111 136.156L321.378 135.533C322 135.8 322.444 135.978 322.711 135.978C322.978 135.978 323.156 135.8 323.422 135.356C323.511 135.178 323.6 134.911 323.689 134.467C323.689 134.2 323.778 133.933 323.778 133.578L323.956 131.978L319.511 129.756C318.8 130.556 318.267 131 318.089 131.267C317.644 131.8 317.289 132.156 317.2 132.422C317.022 132.778 317.111 133.044 317.378 133.4C317.556 133.578 317.911 133.844 318.356 134.022L318.089 134.644L314.089 132.6L314.356 132.067ZM324.133 130.911L324.844 124.689L324.667 124.6L320.222 129.044L324.133 130.911Z" fill="black"/>
<path d="M341.733 127.8L341.378 128.333C340.667 127.978 340.222 127.8 340.044 127.711C339.778 127.711 339.6 127.8 339.511 127.978C339.422 128.067 339.422 128.156 339.333 128.333C339.333 128.511 339.244 128.689 339.156 129.133L338.444 135.889L342.8 133.311C343.067 133.133 343.422 132.956 343.689 132.689C344.222 132.333 344.578 131.978 344.667 131.711C344.933 131.356 344.933 131 344.756 130.733C344.667 130.556 344.311 130.2 343.689 129.844L344.044 129.311L348.222 131.8L347.867 132.333C347.511 132.244 347.244 132.156 346.978 132.156C346.711 132.156 346.356 132.244 346 132.422L338.267 137.044L335.867 141.044C335.333 141.844 335.156 142.467 335.244 142.911C335.333 143.267 335.689 143.711 336.4 144.156L336.044 144.689L329.556 140.689L329.911 140.156C330.622 140.6 331.156 140.689 331.6 140.6C331.956 140.511 332.4 140.067 332.933 139.267L334.889 136.067L335.867 126.733C335.956 126.111 335.867 125.578 335.6 125.222C335.422 124.956 335.244 124.778 335.067 124.6L335.422 124.067L341.733 127.8Z" fill="black"/>
<path d="M170.889 291.178C171.422 291.267 171.778 291.267 172.044 291.178C172.489 291 172.756 290.556 172.933 289.844L175.333 278.2C175.511 277.489 175.422 276.956 175.067 276.689C174.889 276.511 174.533 276.333 174 276.156L174.089 275.533L180.133 276.778C181.289 277.044 182.178 277.4 182.889 277.844C184.222 278.733 184.667 280.067 184.4 281.667C184.222 282.644 183.778 283.356 183.067 283.889C182.356 284.333 181.644 284.6 180.933 284.6V284.778C181.644 285.133 182.178 285.489 182.622 286.022C183.511 287 183.778 288.244 183.511 289.667C183.244 291 182.533 291.978 181.378 292.6C180.222 293.222 178.8 293.4 177.2 293.044L170.978 291.8L170.889 291.178ZM175.956 291.533C176.044 291.889 176.311 292.156 176.756 292.244C177.644 292.422 178.356 292.244 178.889 291.711C179.422 291.178 179.778 290.289 179.956 289.133C180.311 287.444 180.133 286.2 179.422 285.489C178.978 285.044 178.267 284.689 177.2 284.511L175.956 290.556C175.956 291 175.956 291.267 175.956 291.533ZM179.956 283.533C180.489 283.089 180.844 282.289 181.111 281.044C181.289 280.156 181.289 279.356 181.2 278.644C181.022 277.933 180.578 277.578 179.867 277.4C179.422 277.311 179.156 277.311 178.978 277.489C178.8 277.667 178.622 277.933 178.533 278.378L177.467 283.8C178.622 284.067 179.422 283.978 179.956 283.533Z" fill="black"/>
<path d="M198.444 281.844C199.511 283.622 199.956 285.844 199.511 288.422C199.156 291 198.178 292.956 196.578 294.378C195.067 295.8 193.289 296.333 191.333 296.067C189.2 295.8 187.689 294.644 186.622 292.689C185.644 290.911 185.289 288.778 185.644 286.467C186 283.889 186.978 281.933 188.489 280.422C190 278.911 191.867 278.378 193.911 278.644C195.867 279 197.378 280.067 198.444 281.844ZM194.978 292.422C195.422 291.267 195.778 289.756 196.044 287.889C196.4 285.311 196.4 283.267 195.956 281.844C195.511 280.422 194.8 279.622 193.733 279.533C192.222 279.356 191.067 280.244 190.178 282.378C189.733 283.533 189.378 284.956 189.111 286.822C188.844 288.689 188.756 290.289 188.933 291.444C189.2 293.667 190 294.911 191.511 295.178C192.933 295.444 194.089 294.467 194.978 292.422Z" fill="black"/>
<path d="M213.378 283.356C214.533 285.133 215.067 287.267 214.8 289.844C214.533 292.422 213.645 294.467 212.133 295.978C210.622 297.4 208.933 298.111 206.978 297.844C204.845 297.667 203.245 296.6 202.089 294.733C201.022 292.956 200.578 290.911 200.845 288.6C201.111 286.022 201.911 283.978 203.422 282.467C204.933 280.956 206.711 280.244 208.756 280.422C210.622 280.689 212.222 281.667 213.378 283.356ZM210.445 294.111C210.889 292.956 211.156 291.444 211.333 289.578C211.6 287 211.422 284.956 210.978 283.622C210.445 282.2 209.733 281.489 208.578 281.4C207.067 281.222 205.911 282.289 205.2 284.422C204.756 285.578 204.489 287.089 204.311 288.956C204.133 290.822 204.133 292.422 204.311 293.578C204.667 295.8 205.556 296.956 207.067 297.133C208.489 297.222 209.645 296.244 210.445 294.111Z" fill="black"/>
<path d="M215.245 297.578C215.778 297.578 216.133 297.489 216.4 297.4C216.756 297.133 217.022 296.689 217.022 295.978L217.733 284.067C217.733 283.356 217.645 282.911 217.289 282.644C217.111 282.467 216.667 282.378 216.133 282.289V281.667L222.8 282.022V282.644C222.089 282.644 221.645 282.822 221.378 283C221.111 283.267 220.933 283.8 220.933 284.778L220.667 290.022L225.2 284.956C225.556 284.6 225.733 284.333 225.822 284.244C225.911 284.067 226 283.889 226 283.711C226 283.444 225.911 283.178 225.733 283.089C225.556 283 225.111 282.911 224.4 282.822V282.2L230.089 282.556V283.178C229.022 283.178 228.222 283.533 227.511 284.067C226.8 284.6 225.467 286.022 223.422 288.333L228.933 297.933C229.022 298.111 229.2 298.289 229.289 298.289C229.378 298.378 229.645 298.378 229.822 298.467V299.089L223.156 298.733V298.111C223.778 298.111 224.133 298.111 224.4 298.111C224.578 298.111 224.756 297.933 224.756 297.756C224.756 297.667 224.756 297.489 224.667 297.311C224.578 297.133 224.489 296.956 224.311 296.6L221.022 290.822L220.489 291.444L220.222 296.244C220.222 296.956 220.311 297.489 220.667 297.756C220.845 297.933 221.289 298.022 221.822 298.111V298.733L215.156 298.378L215.245 297.578Z" fill="black"/>
<path d="M245.467 283.089C246.267 283.444 246.8 283.711 246.889 283.711C247.156 283.711 247.333 283.622 247.511 283.356C247.689 283.089 247.778 282.911 247.778 282.644H248.311L248.133 288.422H247.6C247.156 287.178 246.711 286.2 246.178 285.4C245.289 284.067 244.222 283.356 243.067 283.356C241.733 283.356 240.756 283.978 240.222 285.4C239.6 286.822 239.333 288.689 239.244 291.089C239.244 292.867 239.333 294.289 239.6 295.444C240.133 297.578 241.289 298.644 242.978 298.733C243.956 298.733 244.933 298.467 245.822 297.756C246.356 297.4 246.978 296.689 247.689 295.8L248.222 296.422C247.422 297.489 246.711 298.2 246.089 298.733C245.022 299.533 243.867 299.978 242.533 299.889C240.578 299.8 238.978 299.089 237.644 297.578C236.222 295.978 235.511 293.756 235.6 291.089C235.689 288.422 236.4 286.289 237.822 284.6C239.156 283.089 240.844 282.378 242.711 282.378C243.778 282.467 244.667 282.733 245.467 283.089Z" fill="black"/>
<path d="M261.378 284.244C262.8 285.844 263.6 287.889 263.689 290.467C263.778 293.044 263.156 295.178 261.911 296.867C260.667 298.556 258.978 299.356 257.022 299.444C254.889 299.533 253.111 298.733 251.778 297.044C250.444 295.444 249.733 293.489 249.645 291.178C249.556 288.6 250.089 286.467 251.333 284.778C252.578 283.089 254.267 282.111 256.311 282.022C258.356 282.022 260.044 282.733 261.378 284.244ZM259.867 295.356C260.133 294.2 260.222 292.6 260.133 290.733C260.044 288.156 259.6 286.111 258.978 284.867C258.267 283.533 257.378 282.911 256.311 283C254.8 283.089 253.822 284.244 253.378 286.467C253.111 287.622 253.022 289.222 253.111 291.089C253.2 293.044 253.378 294.556 253.733 295.711C254.356 297.844 255.422 298.911 256.933 298.911C258.444 298.644 259.422 297.578 259.867 295.356Z" fill="black"/>
<path d="M264.756 298.111C265.467 298.022 266 297.844 266.178 297.489C266.356 297.133 266.444 296.689 266.444 295.978L265.733 284.333C265.733 283.711 265.556 283.267 265.289 283C265.022 282.733 264.578 282.733 263.867 282.644V282.022L268.844 281.756L273.467 292.867H273.644L276.844 281.222L281.822 280.956V281.578C281.2 281.667 280.667 281.844 280.489 282.111C280.222 282.378 280.133 283 280.222 283.889L280.933 294.733C281.022 295.622 281.111 296.244 281.378 296.511C281.644 296.778 282.089 296.867 282.8 296.867V297.489L276.222 297.933V297.311C276.844 297.222 277.2 297.133 277.556 296.867C277.822 296.6 277.911 296.156 277.911 295.356L277.2 283.356H277.022L273.022 298.111H272.489L266.711 284.244H266.622L267.333 295.356C267.422 296.156 267.511 296.778 267.778 297.133C268.044 297.489 268.578 297.667 269.467 297.667V298.289L264.844 298.556L264.756 298.111Z" fill="black"/>
<path d="M283.333 296.956C283.956 296.867 284.4 296.6 284.578 296.333C284.756 296.067 284.844 295.444 284.756 294.556L283.867 283.711C283.778 282.822 283.6 282.2 283.422 282.022C283.156 281.844 282.711 281.667 282.089 281.667L282 281.044L288.4 280.511C290.089 280.333 291.422 280.6 292.311 281.222C293.289 281.844 293.822 282.911 293.911 284.6C294 285.4 293.911 286.2 293.556 286.911C293.289 287.622 292.756 288.244 291.956 288.778C291.422 289.133 290.8 289.4 290.178 289.489C289.556 289.578 288.667 289.667 287.511 289.844L287.867 294.378C287.956 295.267 288.133 295.889 288.4 296.156C288.667 296.422 289.111 296.511 289.822 296.511L289.911 297.133L283.333 297.667V296.956ZM289.822 288.156C290.444 287.622 290.622 286.556 290.444 284.867C290.356 283.711 290.089 282.822 289.733 282.2C289.378 281.578 288.756 281.222 287.867 281.311C287.511 281.311 287.156 281.4 287.067 281.578C286.889 281.667 286.8 281.933 286.889 282.289L287.422 288.867C288.667 288.778 289.467 288.511 289.822 288.156Z" fill="black"/>
<path d="M293.822 296.067C294.267 295.978 294.622 295.711 294.889 295.178C295.067 294.822 295.244 294.111 295.511 293.044L298.533 279.178L299.067 279.089L304.844 291.533C305.467 292.956 305.911 293.844 306.267 294.2C306.622 294.556 306.889 294.733 307.333 294.733L307.422 295.356L301.022 295.978L300.933 295.356C301.556 295.267 302 295.178 302.178 295C302.356 294.911 302.444 294.644 302.356 294.2C302.356 294.022 302.267 293.756 302.089 293.311C302 293.133 301.911 292.778 301.733 292.511L301.111 291.089L296.667 291.533C296.489 292.511 296.4 293.222 296.311 293.489C296.222 294.111 296.133 294.644 296.222 294.911C296.222 295.267 296.489 295.533 296.844 295.622C297.111 295.711 297.378 295.711 297.911 295.622L298 296.244L294 296.689L293.822 296.067ZM300.667 290.2L298.178 284.689H298L296.844 290.556L300.667 290.2Z" fill="black"/>
<path d="M307.778 294.644C308.489 294.556 308.933 294.289 309.111 293.933C309.289 293.578 309.289 293.133 309.2 292.511L307.689 280.956C306.978 280.244 306.533 279.8 306.356 279.622C306.178 279.533 306 279.444 305.733 279.444L305.644 278.822L309.822 278.289L317.911 287.622H318L317.022 280.422C316.933 279.622 316.756 279 316.4 278.733C316.133 278.378 315.6 278.289 314.889 278.289L314.8 277.667L318.978 277.133L319.067 277.756C318.444 277.933 318.089 278.2 317.911 278.467C317.733 278.733 317.733 279.178 317.822 279.978L319.689 294.378L319.156 294.467L308.756 282.556H308.667L309.911 292.156C310 292.867 310.178 293.4 310.356 293.756C310.711 294.2 311.244 294.378 312.044 294.378L312.133 295L307.689 295.622L307.778 294.644Z" fill="black"/>
<path d="M325.822 275.889L325.911 276.511C325.289 276.689 324.845 276.778 324.667 276.956C324.489 277.044 324.4 277.222 324.489 277.489C324.489 277.578 324.578 277.756 324.578 277.844C324.667 277.933 324.756 278.2 324.933 278.467L328.489 283.889L329.822 279.267C329.911 279 330 278.644 330.089 278.2C330.178 277.578 330.267 277.133 330.178 276.867C330.089 276.422 329.911 276.156 329.645 276.067C329.467 275.978 329.022 275.978 328.4 276.067L328.311 275.444L332.578 274.733L332.667 275.356C332.4 275.444 332.133 275.622 331.956 275.711C331.778 275.889 331.6 276.156 331.511 276.511L329.022 284.689L329.822 289.133C330 290.022 330.178 290.644 330.533 290.822C330.8 291 331.333 291.089 332.045 291L332.133 291.622L325.378 292.778L325.289 292.156C326 291.978 326.445 291.8 326.622 291.444C326.8 291.089 326.8 290.556 326.711 289.667L326.089 286.111L321.111 278.644C320.756 278.2 320.4 277.844 320.045 277.667C319.778 277.578 319.511 277.578 319.333 277.578L319.245 276.956L325.822 275.889Z" fill="black"/>
<path d="M172.933 181.4C172.933 181.4 172.933 181.4 172.756 181.311C170.533 181.4 166.356 181.667 162.089 182.111C156.133 182.733 147.067 182.733 145.556 186.822C144.4 190.111 156.667 197.222 156.667 197.222C156.667 197.222 162.267 202.289 179.422 207.356C179.422 207.356 183.156 208.689 183.156 209.4C183.156 210.111 183.067 215.089 184.133 214.911C184.133 214.911 183.689 209.844 183.867 209.667C184.044 209.4 185.111 209.222 185.022 208.511C184.933 207.8 170.356 204.689 163.511 200.689C156.667 196.689 146.711 190.111 146.533 187.622C146.356 185.133 150.711 183.711 158.711 183.178C165.022 182.822 172.044 182.2 175.956 181.756C173.2 181.844 172.933 181.4 172.933 181.4Z" fill="black"/>
<path d="M170.889 227.711C170.889 227.711 170.889 227.711 170.978 227.622C169.111 227.711 167.155 227.711 166.889 227.444C166.444 227 165.378 227.533 164.933 227.889C164.489 228.244 161.555 228.067 161.555 228.067H156.222C156.489 228.333 156.578 228.6 156.578 228.6L138.355 227.711C138.355 227.711 138.355 227.711 138.355 227.622C137.289 227.622 136.4 227.622 135.867 227.622C133.378 227.622 130.444 227.889 129.555 227.889C128.667 227.8 124.578 227.622 122.533 227.444C120.489 227.356 120.844 227.889 120.844 227.889C120.844 227.889 115.955 227.533 116.578 228.689C117.2 229.844 116.133 230.378 117.111 230.644C118.089 231 117.555 229.222 117.555 229.222C117.555 229.222 118.978 229.044 120.044 228.778C120.133 228.778 120.311 228.778 120.489 228.689L118.533 229.133C118.533 229.133 118.444 230.022 118.444 231.356C118.444 232.689 118.178 232.778 118.533 233.756C118.8 234.733 118.8 235.444 119.244 236.6C119.689 237.844 120.311 238.111 121.289 237.756C122.267 237.489 121.644 236.511 121.555 236.067C121.467 235.622 121.467 232.778 121.555 232.333C121.644 231.889 121.111 229.933 121.111 229.489C121.111 229.044 121.467 228.956 122 229.4C122.533 229.844 122.622 231.889 122.711 233.222C122.8 234.022 122.889 234.911 122.978 235.444C122.711 235.533 122.355 235.622 122.444 235.978C122.533 236.511 123.067 237.489 123.067 237.667C123.067 237.844 124.311 238.111 124.844 237.4C125.378 236.689 125.644 236.956 126.355 237.222C127.067 237.489 128.489 238.111 128.755 237.578C129.022 237.044 128.755 236.956 130.267 237.133C131.778 237.311 134.089 237.4 136.755 237.578C139.422 237.844 144.933 238.111 146.711 237.933C148.4 237.756 150.711 237.756 152.311 237.756C154 237.756 156.044 237.311 157.644 237.489C159.244 237.667 161.378 238.022 163.067 237.756C164.755 237.489 165.644 237.311 165.555 236.867C165.555 236.778 165.467 236.689 165.378 236.6C165.911 235.8 166.267 233.756 166.355 233.133C166.533 232.511 166.444 230.2 166.355 229.311C166.533 229.311 166.8 229.4 166.978 229.4C166.978 229.4 167.067 229.4 167.155 229.4C167.067 229.667 167.067 230.022 167.067 230.378C167.067 231.444 167.155 233.044 166.889 234.733C166.622 236.422 169.289 236.156 169.733 236.244C170.178 236.333 170.267 235.622 170.355 234.556C170.444 233.489 170.267 231.533 170.089 230.911C169.911 230.378 169.911 229.756 170.089 229.222C170.267 229.222 170.444 229.222 170.533 229.222C170.622 229.578 170.622 230.022 170.711 230.378C170.8 231.089 171.333 233.133 171.155 234.289C171.067 235.444 171.244 236.067 171.689 236.333C172.133 236.6 172.578 236.422 173.111 235.889C173.555 235.267 173.022 231.711 173.378 231.444C173.644 231.267 173.467 229.933 173.289 229.044C173.467 229.044 173.733 229.044 173.911 228.956C173.911 229.756 174.267 231 174.355 231.889C174.444 233.133 174 233.756 173.644 235C173.378 236.244 174.355 236.156 174.355 236.156C174.355 236.156 175.422 235.889 176.133 235.889C176.844 235.889 176.667 234.022 176.667 233.044C176.667 232.244 176.222 229.578 176.133 228.689H178C177.911 228.956 177.733 229.578 177.822 230.822C177.911 233.4 177.822 234.644 177.822 234.644C177.822 234.644 177.733 236.156 179.067 236.156C180.489 236.244 180.4 234.467 180.222 232.156C180.044 229.844 180.044 229.489 179.6 228.867C179.511 228.689 179.333 228.6 179.244 228.511L181.733 228.422C181.467 229.044 181.2 230.289 181.289 231.533C181.378 233.489 180.755 235.533 181.378 235.711C182.089 235.8 184.044 236.156 183.867 235C183.689 233.756 183.511 232.689 183.778 231.889C184.044 231.089 184.311 230.289 183.689 229.222C183.511 228.867 183.155 228.6 182.889 228.422L184.933 228.333C184.933 229.133 185.022 231.089 184.933 232.244C184.755 233.756 183.422 235.267 184.578 235.356C185.733 235.444 187.244 235.8 187.155 234.733C187.067 233.667 186.533 232.867 186.711 232.333C186.889 231.889 187.333 230.467 187.155 229.667C187.067 229.133 186.889 228.6 186.711 228.244H188.755C188.4 228.511 187.955 229.044 187.955 229.756C187.955 231 188.222 234.2 188.222 234.2C188.222 234.2 187.867 235.444 189.467 235.267C191.067 235.089 190.978 234.2 190.978 234.2L190.889 231.978C190.889 231.978 190.444 231.978 190.267 231.089C190.178 230.556 190.978 230.2 191.422 229.933C191.511 230.556 191.778 231.267 191.778 231.267C191.778 231.267 192.044 233.311 191.689 234.289C191.333 235.267 191.955 235.356 191.955 235.356H193.822C194.889 235.356 193.911 233.933 193.911 233.933V229.489C193.911 228.689 193.555 228.244 193.2 227.978C193.378 227.8 193.644 227.622 193.555 227.444C193.378 227 189.2 227.178 189.2 227.178H186.8C185.644 227.267 184.044 227.267 181.733 227.267C174.622 227.533 170.889 227.711 170.889 227.711ZM125.378 235.533C125.111 234.644 124.489 232.333 124.755 231.622C125.022 231 125.111 229.844 125.2 229.222C125.467 229.222 125.733 229.311 126 229.311C126 229.667 125.911 230.111 125.733 230.644C125.378 231.978 125.644 233.489 126 234.289C126.178 234.733 126.267 235.178 126.355 235.533C126.089 235.533 125.733 235.533 125.378 235.533ZM130.178 234.111C130.178 234.733 130.089 235.267 130 235.622C129.822 235.622 129.555 235.622 129.378 235.622C129.467 235.089 129.555 234.289 129.555 233.844C129.644 233.044 129.644 231 129.289 230.378C128.933 229.756 129.378 228.689 130 229.222C130.533 229.756 130.178 232.778 130.178 234.111ZM133.378 235.889C133.022 235.889 132.667 235.889 132.4 235.8C132.4 235.267 132.4 234.378 132.311 233.756C132.222 232.867 132.222 232.511 132.133 231.533C132.133 230.911 132.311 229.844 132.4 229.222H133.111V230.022C133.111 230.911 133.289 231.978 133.378 233.4C133.467 234.289 133.378 235.267 133.378 235.889ZM136.489 234.022C136.311 234.467 136.311 234.911 136.311 235.267C136.133 234.911 135.955 234.467 135.778 234.111C135.333 233.133 136.044 231.711 136.133 230.733C136.222 230.2 136.133 229.578 135.955 229.133H136.489C136.578 229.489 136.755 229.933 136.844 230.378C137.022 231.356 136.844 232.689 136.489 234.022ZM138.978 235.978C139.067 235.444 139.155 234.644 139.155 234.022C139.244 232.956 138.889 231.622 138.8 230.733C138.8 230.111 138.889 229.489 138.978 229.133L139.778 229.222C139.778 229.667 139.689 230.378 139.689 230.911C139.6 231.533 139.955 232.956 140.133 234.378C140.222 235.089 140.222 235.622 140.222 236.067C139.867 235.978 139.422 235.978 138.978 235.978ZM142.444 229.222H142.978C142.889 229.667 143.155 230.378 142.978 231.267C142.978 231.444 142.978 231.622 142.978 231.8C142.889 231.356 142.711 231 142.533 230.644C142.178 230.2 142.267 229.667 142.444 229.222ZM143.067 236.244C143.155 235.533 142.533 233.933 142.8 233.222C142.889 232.956 142.978 232.6 142.978 232.244C143.155 233.044 143.6 233.844 143.955 234.556C144.222 235.089 144.578 235.8 144.844 236.422C144.133 236.333 143.6 236.333 143.067 236.244ZM148.222 234.022C148.222 234.733 147.867 235.8 147.778 236.333C147.511 235.889 146.978 235.178 146.978 234.644C146.889 233.756 147.067 231.8 147.155 231.356C147.244 231 147.244 229.756 147.333 229.133L148.133 229.222V230.378C148.044 230.467 148.311 233.133 148.222 234.022ZM150.978 236.244C151.155 235.444 151.511 232.6 151.422 231.978C151.333 231.444 151.067 230.2 150.889 229.489H150.978H151.778C151.689 230.2 151.955 232.422 151.955 234.022C151.955 235 151.955 235.711 152.044 236.156C151.689 236.244 151.244 236.244 150.978 236.244ZM155.6 230.911C155.689 232.244 155.511 234.2 155.067 234.022C154.622 233.933 155.067 234.022 155.067 232.778C155.067 231.533 154.978 229.4 154.978 229.4L156.044 229.133C155.955 229.133 155.511 229.489 155.6 230.911ZM159.333 236.6C158.978 236.156 158.622 235.178 158.622 234.556C158.622 233.756 159.244 232.867 159.244 232.867C159.244 232.867 159.333 233.489 159.6 234.911C159.778 235.8 160.222 236.422 160.489 236.778C160.044 236.689 159.689 236.6 159.333 236.6ZM163.067 236.511C162.978 236.511 162.8 236.511 162.711 236.511C162.711 235.889 162.711 235 162.533 234.378C162.267 233.311 162.622 232.333 162.622 232.333C162.622 232.333 162.089 228.867 162.978 229.044C163.867 229.222 163.867 231.711 163.689 234.111C163.6 235.267 163.689 236.067 163.955 236.511C163.689 236.511 163.422 236.511 163.067 236.511ZM163.333 228.956L163.867 228.867C163.867 228.867 164.044 228.867 164.222 228.956H163.333ZM191.689 228.6C191.6 228.778 191.6 229.044 191.511 229.311C191.511 229.4 191.422 229.578 191.422 229.667C190.889 229.4 190.444 228.867 190.089 228.6H191.689Z" fill="black"/>
<path d="M372.755 195.267C372.4 194.822 371.244 195.356 370.444 195.711C359.511 194.2 338.355 181.667 323.689 170.467C315.333 164.067 308.311 157.044 303.155 151.178C304.133 151.178 304.4 150.822 304.044 149.933C303.867 149.578 302.889 149.4 301.555 149.311C297.2 144.244 294.355 140.333 293.378 139C293.289 137.756 292.667 138.022 291.867 138.289C291.511 138.378 291.6 138.911 291.689 139.622C288.755 147.889 278.711 150.2 270.622 152.067C268.667 152.511 266.622 152.867 264.667 153.044C264.489 152.156 264.4 151.356 264.222 150.644C264.489 150.644 264.667 150.467 265.022 150.022C265.378 149.489 264.667 149.044 263.955 148.778C263.867 148.067 263.778 147.711 263.778 147.711V147.533L263.6 147.444C260.755 146.022 254.711 138.556 252.578 135.978C254.089 136.067 255.511 136.156 256.667 136.244C258.622 136.422 261.022 136.689 260.755 135.889C260.578 135.089 255.867 134.644 251.511 134.111C251.511 134.022 251.511 133.933 251.511 133.756C251.6 131.267 251.422 128.067 250.978 126.289C251.067 126.111 250.978 125.933 250.889 125.844C250.711 125.311 250.622 125.044 250.444 125.044C250.178 125.044 250.089 125.578 250.089 126.467C248.933 128.156 245.022 131 243.067 132.333C242.622 132.244 241.289 131.978 241.289 132.867C241.289 133.844 242.889 134.467 243.955 134.467C245.022 134.467 246.533 135.356 249.289 135.711C249.555 135.711 249.733 135.8 250 135.8C247.067 139.978 239.867 145.844 239.778 145.933C239.778 145.933 239.778 145.933 239.778 146.022C239.511 146.111 239.244 146.378 239.333 146.733C239.422 147.356 239.955 148.6 240.311 148.422C240.667 148.244 241.467 148.244 242.8 148.244C244.044 148.244 249.911 149.489 249.911 149.489C249.911 149.489 250.178 149.489 250.711 149.578C250.889 151.889 250.711 155.8 250.711 157.933C250.711 159.356 250.711 162.022 250.8 163.8C249.378 163.622 247.867 163.444 246.444 163.267C241.644 162.644 238.444 162.022 236.4 161.667C236.133 160.956 235.955 160.422 235.955 160.333C235.867 160.156 235.689 160.067 235.511 160.156C235.333 160.244 235.244 160.422 235.333 160.6C235.333 160.6 235.511 160.956 235.689 161.489C234.533 161.222 234.089 161.133 234.089 161.133C233.111 162.022 234.711 163.711 236.489 164.511C236.578 165.133 236.578 165.667 236.578 166.111C236.311 168.156 235.6 172.333 235.6 172.333C235.6 172.511 235.689 172.689 235.867 172.778C235.867 172.778 235.867 172.778 235.955 172.778C236.133 172.778 236.311 172.689 236.311 172.511C236.311 172.511 237.022 168.333 237.289 166.2C237.378 165.756 237.289 165.311 237.289 164.778C237.822 164.956 238.267 165.044 238.711 164.956C240.755 164.689 242.533 165.133 242.8 165.133C243.067 165.133 246.355 164.6 247.6 165.4C248.311 165.844 249.733 166.022 250.978 166.022C250.978 166.467 250.978 167.533 250.889 168.867C250.089 168.778 249.644 168.689 249.644 168.689C249.467 168.689 249.289 168.778 249.2 168.956C249.2 169.133 249.289 169.311 249.467 169.4C249.467 169.4 250 169.489 250.8 169.578C250.711 173.311 250.622 178.733 250.533 182.111L249.644 179.089C249.2 178.111 250.089 176.867 249.467 176.333C248.844 175.8 248.133 176.244 248.133 177.756C248.133 179.267 249.822 183.533 249.822 183.533C249.822 183.533 250.089 184.511 250.533 186.111V186.2C248.933 185.667 248.755 185.044 247.867 185.222C246.978 185.4 244.311 184.778 242.8 184.422C241.289 184.067 238.267 183.889 235.778 183.622C233.733 183.356 233.378 182.733 233.289 182.467L235.067 177.4C235.867 177.133 235.511 176.778 235.067 176.6C234.622 176.333 230.711 177.133 227.333 177.667C227.244 177.667 227.155 177.667 227.067 177.667C226.978 176.689 226.978 175.711 227.155 175.178C227.6 173.933 227.067 172.6 227.067 170.822C227.067 170.111 227.067 168.511 227.067 166.911C227.511 166.822 227.867 166.822 228.222 166.733C228.755 166.644 230 166.467 231.155 166.2L231.244 166.289C231.333 166.378 231.422 166.378 231.511 166.378C231.6 166.378 231.689 166.378 231.778 166.289C231.867 166.2 231.867 166.111 231.867 166.022C232.755 165.756 233.467 165.489 233.467 165.311C233.378 164.956 232.578 165.044 231.244 165.311L227.244 161.578C227.333 160.6 226.622 158.556 226.267 158.378C225.911 158.2 225.822 165.578 225.822 165.578C225.822 165.578 225.822 165.667 225.822 165.933C223.155 165.844 220.4 165.489 220.4 165.489C220.4 165.489 219.955 165.756 220.044 166.467C220.133 167.178 220.4 167.978 220.755 167.533C221.111 167.178 223.867 167.267 223.867 167.267C223.867 167.267 224.844 167.178 225.911 167.089C225.911 167.622 226 168.333 226 169.044L223.244 172.511C223.155 172.689 223.155 172.867 223.333 173.044C223.422 173.133 223.511 173.133 223.6 173.133C223.689 173.133 223.778 173.044 223.867 172.956L226.089 170.2C226.178 171.978 226.178 173.756 226.089 174.378C226 175.533 226 177.133 226 177.844C222.622 178.111 218.355 177.933 218.355 177.933C218.355 177.933 217.111 177.844 217.2 178.644C217.378 180.067 222.978 178.911 225.289 178.733C225.467 178.733 225.733 178.733 226 178.644V181.044L225.733 180.867C225.555 180.778 225.378 180.778 225.2 180.956C225.111 181.133 225.111 181.311 225.289 181.489L226 182.022V186.378C225.378 186.022 224.311 185.489 223.955 185.667C223.333 185.933 223.778 186.467 224.311 187.622C224.844 188.689 224.578 190.022 224.578 190.022C224.578 190.022 222.889 190.111 222.089 190.378C221.289 190.644 220.933 190.911 220.4 190.556C219.955 190.2 217.111 190.556 217.111 190.556C217.111 190.556 214.533 190.911 214 190.556C213.467 190.2 212.667 190.022 212.933 190.733C213.2 191.444 214.444 191.978 215.422 191.711C216.4 191.444 218.622 191.089 218.533 191.533C218.444 191.978 217.555 192.778 216.311 192.956C215.155 193.044 214.267 193.044 213.467 193.756C212.667 194.467 211.955 195.267 215.333 194.467C215.333 194.467 222.533 193.133 226.178 192.333L226.267 196.689C226.267 196.689 225.289 204.511 225.555 211.267C225.733 216.333 225.378 218.644 225.2 219.533C221.2 219.356 216.489 219.178 214.889 218.733C212.4 218.111 213.022 216.778 212.667 215.889C212.311 215 198 215.978 198 215.978V216.067C194.978 216.067 185.022 216.156 184.578 216.244C183.955 216.333 184.222 216.867 184.222 217.311C184.222 217.756 180.222 217.4 179.511 217.311C178.8 217.222 179.6 216.067 179.6 216.067C179.6 216.067 179.778 212.244 179.778 211.533C179.778 210.822 182.355 211 182.355 210.378C182.355 209.756 180.755 209.933 180.755 209.933C180.755 209.933 180.933 208.956 178.711 208.867C176.489 208.778 170.889 207.089 164.933 204.6C158.978 202.111 152.933 198.467 151.689 197.578C150.444 196.689 150.444 195.711 151.867 196.156C153.289 196.6 153.822 196.778 153.822 196.156C153.822 195.533 141.378 189.133 140.578 188.778C139.689 188.333 139.333 189.222 138 189.578C136.755 189.844 133.111 192.6 131.6 193.4C130.089 194.2 127.511 194.022 125.644 193.756C123.778 193.489 119.689 193.489 119.689 193.489C119.689 193.489 118.089 196.156 116.4 203.267C114.711 210.378 114.889 219.267 114.889 219.267L116.578 219.444C117.644 220.6 119.067 222.2 119.955 222.378C120.844 222.556 123.244 226.378 123.778 226.822C124.311 227.267 127.244 226.111 127.422 225.933C127.689 225.844 125.378 222.733 125.911 222.467C126.444 222.2 127.422 223.356 128.578 224.333C129.644 225.4 129.378 226.822 129.822 227.089C130.267 227.356 131.689 226.644 132.311 226.378C132.844 226.111 133.2 226.378 133.555 226.111C133.822 225.844 130.889 223.889 131.511 223.622C132.133 223.356 136.311 225.933 137.467 226.378C138.355 226.822 138.533 227.444 138.622 227.622C142.8 227.711 150 227.978 150 227.978H156.4C156.044 227.444 155.422 226.822 154.711 226.644C153.644 226.378 148.489 225.222 149.2 224.956C149.911 224.689 156.4 226.644 157.022 226.467C157.733 226.2 158.267 226.467 159.511 226.467C160.755 226.467 160.311 225.933 160.222 225.4C160.133 224.956 158 224.956 158 224.956C158 224.956 154.978 223.267 154.711 223.889C154.444 224.422 155.955 224.6 155.6 224.956C155.244 225.311 152.933 224.867 149.2 224.067C145.555 223.178 142.711 222.2 139.511 221.4C136.311 220.6 133.555 219.533 134.267 219.356C134.978 219.178 136.667 220.067 137.733 220.067C138.8 220.067 139.6 220.067 142 220.511C144.4 220.956 150.355 223.178 152.489 223.533C154.622 223.978 152.844 222.822 152.844 222.822C152.844 222.822 147.867 220.956 145.822 220.422C143.778 219.889 143.955 219.178 144.578 218.911C145.111 218.644 146.444 219.444 147.511 219.356C148.578 219.267 148.4 219.622 148.844 219.622C149.289 219.711 149.555 219.444 149.555 219.444C149.555 219.444 152.4 219.711 154.089 220.156C155.778 220.6 156.133 221.044 157.022 221.4C157.911 221.667 158 221.311 160.044 221.756C162.089 222.2 161.555 222.644 162.8 222.822C164.044 222.911 165.378 223.356 168.044 223.889C170.711 224.422 170.711 224.778 170.711 225.222C170.711 225.667 166.8 225.133 166.089 224.956C165.378 224.778 160.667 223.178 160.667 223.178C160.667 223.178 150.267 219.356 150.089 220.067C149.911 220.778 153.733 222.111 153.733 222.111C153.733 222.111 167.422 226.733 167.778 226.733C168.222 226.822 167.778 225.667 167.778 225.667C167.778 225.667 170.533 225.756 171.155 225.667C171.778 225.578 171.778 225.133 172.133 225.4C172.4 225.667 171.422 226.822 171.155 227.089C172.755 227 174.267 226.911 174.267 226.911H186.978C189.378 226.733 189.644 226.556 189.644 226.556C189.644 226.556 189.822 226.2 189.378 225.756C188.933 225.311 188.844 224.689 189.467 224.689C190.089 224.689 197.822 225.311 199.422 225.489C201.111 225.667 200.933 225.4 200.844 225.044C200.755 224.689 198.089 224.333 196.667 224.156C195.244 223.978 193.111 223.356 193.822 223.267C194.533 223.178 198.355 223.533 199.067 223.533C199.778 223.533 198.711 221.667 198.178 221.133C197.733 220.6 198.622 220.511 198.8 220.511C199.955 223.178 203.333 226.289 204.4 227.267C205.467 228.333 207.067 229.667 207.778 231.356C208.489 233.133 209.644 233.4 209.644 233.4C209.644 233.4 217.555 232.689 217.733 233.489C217.911 234.289 209.733 234.289 209.733 234.289C209.733 234.289 208.755 234.467 208.4 235.444C208.044 236.422 209.289 236.867 209.289 236.867C209.289 236.867 205.822 238.822 203.422 240.511C200.933 242.2 199.6 244.956 199.244 245.667C198.889 246.378 169.822 250.111 158.089 251.444C146.355 252.778 138.267 252.067 138.978 253.4C139.689 254.733 177.378 249.756 177.378 249.756C177.378 249.756 196.133 246.911 197.289 246.822C198.533 246.733 199.333 247.178 199.333 247.178C199.333 247.178 201.555 245.667 201.644 247.089C201.733 248.422 188.311 250.911 189.2 251.622C190.089 252.333 194 250.911 196.4 250.289C198.889 249.667 201.822 249.222 203.778 249.222C205.733 249.222 207.422 248.333 208.755 247.533C210.089 246.644 211.955 246.822 214.267 246.644C216.578 246.556 220.133 246.2 222.089 245.933C224.044 245.667 226.089 249.222 226.267 250.378C226.355 251.444 227.778 251.267 228.578 250.467C229.467 249.756 228.489 248.244 227.067 247.622C225.733 247 228.044 246.733 228.667 246.378C229.289 246.022 227.778 244.778 227.422 244.689C227.067 244.6 227.867 243.8 227.867 243.8C227.867 243.8 232.489 243.533 237.2 243.356C241.822 243.089 249.644 241.844 250.533 241.844C251.422 241.844 250.889 243.889 250.978 245.489C251.067 247.089 252.933 246.2 253.822 245.756C254.711 245.311 253.378 244.156 253.2 243.711C253.111 243.267 265.644 243.089 270.089 243.267C274.533 243.356 279.422 243.711 279.244 242.911C279.155 242.022 275.244 241.844 273.378 241.844C271.511 241.844 256.933 242.2 256.933 241.578C256.933 240.956 273.733 240.511 276.844 240.689C280.044 240.956 288.133 241.133 288.133 242.022C288.133 242.911 284.133 242.733 283.955 243.267C283.867 243.711 285.644 243.711 286.622 243.889C287.6 243.978 293.022 247.444 293.022 247.444C292.044 249.133 292.044 251.267 293.733 252.067C295.422 252.867 294.711 250.822 294.711 250.822L296.044 249.222C296.044 249.222 297.289 248.333 296.4 247.267C295.511 246.2 296.133 245.044 296.133 245.044L308.489 246.022C308.489 246.022 310 247.889 311.511 248.6C313.022 249.311 317.644 249.311 320.222 250.2C322.8 251.089 330.978 253.844 331.867 254.467C332.755 255.089 334.711 255.711 334.533 253.756C334.444 251.8 330.355 251.444 327.955 251.267C325.467 251.178 327.6 250.289 327.6 250.289C334.711 250.556 330.178 251.267 341.2 255.711C352.222 260.156 355.511 260.244 355.511 259.711C355.511 259.178 346.089 257.222 338.355 253.489C334.889 251.8 333.2 248.956 330 247.089C326.8 245.222 318.711 246.022 318.711 246.022C318.711 246.022 312.489 245.133 308.667 244.333C304.844 243.444 300.578 242.822 301.644 242.644C302.711 242.467 315.333 243.533 318.622 244.6C321.911 245.667 323.6 244.511 325.022 243.978C326.355 243.533 323.778 240.689 323.778 240.689C323.778 240.689 325.022 241.311 328.755 240.333C332.489 239.356 337.822 240.333 343.689 241.311C349.555 242.289 351.511 242.556 351.511 242.556C344.044 239 328.844 239.356 326.533 239.356C324.222 239.356 323.244 238.378 322.622 237.667C322 236.956 320.044 237.044 320.044 237.044C320.044 237.044 319.422 238.556 316.4 239.533C313.378 240.511 310.444 237.489 310.444 237.489C310.444 237.489 304.311 236.511 300.755 236.511C297.2 236.511 286.089 237.489 281.911 237.578C277.733 237.667 266.355 238.2 266.355 238.2C266.355 238.2 254.978 238.911 255.333 238.289C255.689 237.667 274.444 236.422 277.022 236.067C279.6 235.711 292.578 235.711 297.467 235.356C302.355 235 302.355 233.844 302.355 233.844C302.355 233.844 318 233.489 319.155 233.133C320.311 232.778 321.2 233.4 322.355 233.489C323.422 233.578 323.244 228.867 324.578 226.022C325.911 223.178 330.711 217.044 333.289 214.733C335.867 212.422 346.533 207.711 349.555 207.089C352.578 206.467 352.222 206.2 352.755 205.4C353.2 204.511 363.067 200.6 367.6 198.644C372.4 197.133 373.2 195.889 372.755 195.267ZM228.933 165.667C228.4 165.756 227.778 165.756 227.067 165.844C227.067 164.511 227.067 163.356 227.067 162.467L230.267 165.4C229.911 165.489 229.467 165.578 228.933 165.667ZM119.955 202.556C119.333 202.822 118.889 203.533 118.355 203.356C117.822 203.178 118.622 201.667 119.067 201.133C119.511 200.6 120.311 201.044 120.311 201.044C120.311 201.044 120.578 202.289 119.955 202.556ZM133.822 204.867C134.178 205.133 133.111 206.467 133.111 206.467C133.111 206.467 133.022 207.533 131.955 207.356C130.889 207.178 132.578 206.111 132.578 206.111C132.578 206.111 133.467 204.511 133.822 204.867ZM132.933 201.578C132.933 201.578 131.689 204.511 131.067 204.422C130.533 204.333 130.978 203.711 131.422 202.822C131.867 202.022 133.2 200.156 132.933 201.578ZM121.911 202.289C121.467 202.556 121.378 202.378 121.467 201.667C121.555 200.956 121.911 200.867 121.911 200.867C121.911 200.867 122.355 202.022 121.911 202.289ZM123.867 204.067C123.778 204.511 123.511 205.578 122.978 204.867C122.533 204.156 122.889 204.067 123.333 203.356C123.778 202.644 124.222 200.067 125.111 201.489C125.111 201.578 123.955 203.622 123.867 204.067ZM122.355 197.933C121.911 197.667 122.978 196.689 122.622 196.511C122.267 196.333 121.733 196.778 121.555 196.422C121.289 196.156 122.444 195.178 123.067 195.356C123.689 195.533 124.311 195.978 124.755 195.444C125.2 195 128.578 194.822 126.8 195.711C126.8 195.8 122.8 198.2 122.355 197.933ZM126.178 197.311C126.622 196.6 127.689 196.333 127.689 196.333C127.689 196.333 129.911 195.089 130.711 195.089C131.511 195.178 132.311 195.267 131.422 195.978C130.533 196.689 128.667 196.956 127.6 197.311C126.622 197.667 125.644 198.022 126.178 197.311ZM128.044 206.2C127.778 207 127.067 207.533 126.8 207.444C126.533 207.356 127.244 205.4 127.778 204.689C128.222 203.978 129.467 203.267 129.467 204.244C129.467 204.156 128.311 205.4 128.044 206.2ZM129.822 202.289C129.822 202.289 129.911 203.8 128.933 203.356C127.955 202.822 128.489 202.289 129.111 201.667C129.111 201.667 129.378 200.956 129.822 201.133C130.267 201.222 129.822 202.289 129.822 202.289ZM138.444 223C141.022 223.444 142.355 224.244 144.222 224.867C146.089 225.489 150.889 226.644 150.889 227.089C150.889 227.533 146.355 226.556 144.311 226.111C142.267 225.667 136.133 223.889 134.267 223.356C132.4 222.822 131.422 221.133 131.422 221.133C131.867 221.044 133.111 221.4 133.822 221.844C134.533 222.2 135.867 222.644 138.444 223ZM140.4 219.622C140.311 219.978 138.889 219.356 137.911 219.356C136.933 219.356 134.622 218.644 133.378 218.289C132.133 217.844 130.355 216.511 130.889 216.422C131.333 216.333 138.8 218.911 138.8 218.911C138.8 218.911 140.489 219.267 140.4 219.622ZM140.4 218.733C139.867 218.378 139.511 217.044 140.489 217.578C140.489 217.578 143.6 218.644 143.511 219.267C143.422 219.889 140.933 219.089 140.4 218.733ZM145.289 194.022C143.155 193.933 142.089 195 141.644 195.089C141.2 195.178 142.089 194.378 141.733 194.022C141.378 193.667 141.022 193.489 141.022 193.489C141.022 193.489 138.889 192.156 138.355 191.711C137.911 191.267 138.444 190.644 139.6 191C140.844 191.267 147.422 194.111 145.289 194.022ZM300.578 149.311C298.444 149.222 295.867 149.311 294 149.311C294 147.356 293.733 142.822 293.555 140.422C294.8 142.2 297.2 145.4 300.578 149.311ZM305.733 165.4L311.689 182.2C311.6 182.2 311.6 182.2 311.511 182.2C303.689 176.778 295.867 170.289 295.778 170.2C295.778 170.2 295.689 170.111 295.6 170.111C294.622 168.956 294 168.422 293.733 168.244C293.733 167.444 293.733 166.822 293.822 166.556C293.822 166.289 293.911 165.756 293.911 165.044C294.533 165.133 298.267 165.4 298.622 165.489C298.978 165.578 301.022 165.4 302.622 164.956C303.333 164.778 304.311 164.778 305.111 164.778C305.289 164.956 305.555 165.222 305.733 165.4ZM328.844 211.889C326.978 210.022 312.933 195.711 305.111 185.756C305.644 185.756 306.178 185.756 306.622 185.844C315.778 195.533 328.933 207.356 332.667 210.644C331.422 211 330.178 211.444 328.844 211.889ZM302.978 183C301.822 181.311 300.933 179.889 300.4 178.733C301.378 180.067 302.622 181.489 303.955 183C303.6 183 303.333 183 302.978 183ZM286.8 162.822C285.733 162.822 282.444 162.911 281.378 162.022C283.155 160.511 288.844 155.622 293.111 150.556C293.111 151.444 293.2 152.422 293.2 153.4C293.2 155.889 293.111 159.978 292.933 163.356C292.489 163.356 292.133 163.444 291.778 163.444C289.378 163.711 286.711 164.6 286.8 164.067C286.889 163.711 287.867 162.822 286.8 162.822ZM293.911 182.378C293.911 179.8 293.733 173.133 293.733 169.311C294.711 170.111 296.933 172.689 299.511 178.911C299.955 180.067 300.844 181.489 302 183.089C299.333 182.822 296.222 182.556 293.911 182.378ZM299.333 176.067L306.444 182.911C306 182.911 305.467 182.911 304.933 182.911C302.533 180.333 300.578 178.022 299.333 176.067ZM307.511 182.911L298.267 174.022C298.178 173.933 298.178 173.933 298.089 173.933C297.733 173.311 297.467 172.778 297.111 172.244C299.778 174.378 305.111 178.644 310.533 182.378C309.822 182.556 308.844 182.822 307.511 182.911ZM302.622 163.267C300.222 163.178 296.667 163.267 294 163.444C294.089 159.622 294 153.667 294 151C295.511 153.133 299.155 158.111 303.778 163.356C303.422 163.267 302.978 163.267 302.622 163.267ZM292.044 140.867C292.222 141.4 292.311 141.933 292.4 142.378C292.489 143.267 292.844 146.022 293.022 149.4C292.667 149.4 292.4 149.4 292.222 149.4C290.089 149.4 285.733 148.689 284.578 148.422C287.778 146.644 290.533 144.333 292.044 140.867ZM270.8 152.867C274.8 151.978 279.244 150.911 283.067 149.133C283.067 149.133 283.067 149.133 283.067 149.222C283.333 149.489 289.555 150.378 292.311 150.378C287.955 155.533 282.178 160.422 280.667 161.756C279.689 161.4 278.711 162.022 279.511 162.822C279.6 162.911 279.689 163 279.778 163C278.178 163.533 274.355 164.778 270.355 166.022C270.711 165.756 268.133 165.222 267.422 165.311C267.244 165.311 267.067 165.311 266.8 165.311C266 161.044 265.289 157.044 264.755 153.844C266.711 153.667 268.844 153.311 270.8 152.867ZM270.178 166.022C269.111 166.289 268.133 166.644 267.067 166.911C267.067 166.822 267.067 166.733 266.978 166.556C267.778 166.378 268.578 166.111 269.822 166.022C270 166.111 270.089 166.111 270.178 166.022ZM263.067 148.067C263.067 148.156 263.155 148.422 263.155 148.6C262.622 148.422 262.089 148.333 262.089 148.333L254.8 148.156C254.8 148.156 253.822 148.156 252.311 148.067C252.222 144.867 251.689 139.533 251.511 135.978C253.111 137.933 259.689 146.2 263.067 148.067ZM244.044 132.6C245.555 131.533 248.578 129.311 250.178 127.622C250.267 129.044 250.444 130.911 250.444 132.333C250.444 132.778 250.444 133.311 250.444 134.111C247.511 133.578 245.111 132.956 244.044 132.6ZM248.044 147.622C245.378 147.267 242.178 146.378 240.844 146.022C242.533 144.6 247.778 140.156 250.444 136.511C250.444 140.333 250.444 145.489 250.533 147.889C249.733 147.8 248.933 147.711 248.044 147.622ZM258.089 150.2C259.422 150.467 262.178 150.2 263.155 150.378C263.244 150.378 263.422 150.467 263.511 150.467C263.6 151.267 263.778 152.156 263.955 153.222C258.8 153.756 254.178 153.578 252.489 153.578C252.489 151.978 252.4 150.556 252.4 149.578C254.444 149.756 257.2 150.022 258.089 150.2ZM252.489 154.289C253.2 154.289 254.444 154.378 255.955 154.378C258.178 154.378 261.022 154.289 264.044 153.933C264.578 157.044 265.289 161.044 266 165.222C265.289 165.222 264.667 165.133 264.667 165.133C264.667 165.133 259.244 164.689 252.755 163.889C252.667 161.933 252.578 157.756 252.489 154.289ZM252.844 166.2C253.644 166.556 257.911 165.756 259.155 165.933C260.4 166.111 265.022 166.733 266.178 166.733C266.267 166.733 266.267 166.733 266.355 166.733C266.355 166.911 266.444 167 266.444 167.178C264.4 167.711 262.533 168.156 261.022 168.422C257.822 168.956 254.889 169.044 252.844 168.956V166.2ZM254.089 169.667C256.044 169.667 258.444 169.578 261.022 169.133C262.533 168.867 264.489 168.422 266.444 167.889C268.044 176.6 269.911 185.489 271.155 188.6C269.111 188.333 264.578 188.244 262.889 187.978C260.844 187.711 255.511 186.822 255.067 186.911C254.8 187 253.733 186.911 252.489 186.644L252.667 169.667C253.2 169.667 253.644 169.667 254.089 169.667ZM227.155 178.467C229.555 178.2 232.578 177.667 234.089 177.489H234.178L231.778 184.244C231.689 184.422 231.778 184.6 231.955 184.689H232.044C232.222 184.689 232.311 184.6 232.4 184.422L233.022 182.644C232.933 183.089 233.022 183.8 234.089 184.067C235.778 184.422 238.533 184.6 240.044 184.778C241.644 184.956 243.067 186.111 240.844 186.022C238.622 185.933 235.778 184.867 234.178 185.133C233.555 185.222 232.933 185.4 232.489 185.667L227.333 182.022L227.422 180.333C227.511 180.511 227.333 179.533 227.155 178.467ZM231.955 186.289C231.689 186.556 231.778 186.822 232.133 186.911C232.4 187 232.755 187.089 233.111 187.089L235.955 189.133C233.467 189.489 228.755 189.844 227.067 189.933L227.333 183L231.955 186.289ZM227.511 210.022C227.511 207.978 226.8 201.756 227.422 202.022C228.044 202.289 231.155 215 231.155 217.133C231.155 219.267 231.867 218.644 232.4 218.644C232.933 218.644 230.889 211.622 230.889 211.622C230.889 211.622 228.667 201.667 227.689 198.2C226.978 195.8 226.978 193.4 226.978 192.067C227.067 192.067 227.155 192.067 227.244 191.978C230 191.356 229.911 191 232.311 190.733C234.711 190.467 238.8 190.2 239.867 190.644C240.844 191.089 240.578 189.133 240.578 189.133C240.578 189.133 239.333 188.689 237.022 188.956L234.533 187.178C235.422 187.178 236.4 187.178 237.111 187.267C238.622 187.444 239.955 187.978 241.555 187.711C243.155 187.444 244.311 187.711 245.022 188.067C245.555 188.333 248.489 188.6 250.355 188.689C250.355 191 250.267 201.933 250.444 207.089C250.622 211.889 249.644 219.089 249.378 221.4C249.289 221.4 249.2 221.4 249.111 221.4C238.355 221.667 233.822 220.156 230.089 219.8C229.378 219.711 228.489 219.711 227.511 219.622C227.511 217.489 227.511 211.622 227.511 210.022ZM153.733 216.511C153.111 216.422 153.644 213.044 153.644 213.044C154.267 211.8 154.711 212.956 155.333 213.578C155.955 214.289 156.222 214.733 157.378 215.089C158.533 215.444 158.622 215.089 159.244 215.711C159.867 216.333 161.111 216.244 161.111 216.778C161.022 217.133 154.355 216.511 153.733 216.511ZM164.844 214.111C163.689 213.667 162.444 212.867 162.178 213.311C162.089 213.578 161.911 213.667 161.822 213.667L162.267 214.467C162.267 214.467 168.044 217.044 167.867 217.489C167.689 217.933 163.422 216.244 162.355 215.711C161.289 215.267 156.489 212.689 155.955 212.244C155.422 211.889 155.244 212.422 154.444 212.333C153.644 212.244 153.289 210.644 154.178 210.644C155.067 210.644 154.267 209.933 154.178 209.489C154.089 209.044 155.244 209.578 155.244 209.578C155.244 209.578 156.044 209.667 156.044 210.378C156.044 211.089 156.844 211 157.111 211.444C157.378 211.889 157.289 212.156 158.622 212.067C159.955 211.978 157.911 211.178 158.355 211C158.8 210.822 164.311 211.978 165.733 212.511C167.244 213.044 168.044 213.311 168.755 213.667C169.467 214.022 170 214.822 170.889 215.089C171.778 215.356 174.889 216.778 174.089 217.578C173.467 218.289 166 214.556 164.844 214.111ZM180.311 226.556L172.933 224.6C172.222 223.8 181.644 225.844 181.644 226.289C181.555 226.733 180.311 226.556 180.311 226.556ZM197.822 219.178C197.911 219.622 190.978 219.444 187.955 219.533C184.933 219.622 179.689 219.089 179.689 219.089C178.178 218.556 181.378 218.467 182.533 218.467C183.689 218.467 185.022 218.733 185.644 218.378C186.355 218.111 195.778 218.289 196.933 218.378C198.178 218.556 197.733 218.644 197.822 219.178ZM205.555 243.889C205.555 243.889 207.867 242.911 209.022 242.2C210.178 241.578 211.689 240.689 212.311 241.222C212.933 241.667 212.578 242.467 212.578 242.467C212.578 242.467 215.333 242.556 216.933 242.289C218.533 242.022 219.955 242.022 219.955 242.378C219.955 242.733 218.444 243 217.289 243C216.133 243 213.733 243.178 212.578 243.533C211.511 243.978 204.667 244.333 205.555 243.889ZM224.044 244.511C223.778 244.6 216.844 245.667 215.067 245.933C213.733 246.022 211.867 245.933 210.178 245.756C209.467 245.667 208.755 245.667 208.133 245.667C206.178 245.578 203.955 246.467 203.955 246.467H203.867C203.689 246.467 203.6 246.378 203.511 246.2C203.422 246.022 203.511 245.844 203.689 245.756C203.778 245.756 206.089 244.778 208.133 244.867C208.755 244.867 209.467 244.956 210.178 245.044C211.867 245.133 213.733 245.311 214.978 245.222C216.755 245.044 223.867 243.889 223.955 243.889C224.133 243.889 224.311 243.978 224.4 244.156C224.4 244.244 224.222 244.422 224.044 244.511ZM217.911 224.689C214.355 224.067 200.755 219.978 200.755 219.978C200.755 219.978 198.978 219.089 200.667 219.356C202.355 219.622 214.533 223.178 220.933 224.067C227.333 224.867 239.155 225.133 238.889 225.933C238.8 226.644 221.467 225.4 217.911 224.689ZM239.511 241.4C239.155 241.667 237.022 241.844 232.489 242.111L230.978 242.2C230.089 242.289 229.289 242.289 228.578 242.289C227.333 242.289 226.622 242.2 226.533 242.2C226.355 242.2 226.178 242.022 226.178 241.756C226.178 241.578 226.355 241.4 226.622 241.4C226.622 241.4 228.222 241.578 230.889 241.4L232.4 241.311C234.711 241.133 238.622 240.956 239.067 240.689C239.244 240.6 239.422 240.689 239.6 240.778C239.778 241.044 239.689 241.311 239.511 241.4ZM254.978 235.267C243.867 235.533 229.022 235.622 228.933 234.467C228.933 234.467 233.555 234.556 238.8 234.556C244.044 234.556 263.6 234.644 263.6 234.644C263.6 234.644 266 235 254.978 235.267ZM269.289 225.756C266.889 225.844 257.822 227 257.911 226.2C257.911 226.2 259.689 226.022 260.133 225.133C260.578 224.244 268.311 224.778 268.311 224.778C268.311 224.778 280.311 223.978 280.311 224.511C280.311 224.956 271.6 225.667 269.289 225.756ZM275.155 219.533C275.155 219.533 275.867 220.511 268.133 221.578C261.467 222.556 260.133 221.578 253.022 221.489C252.933 217.489 252.578 204.778 252.489 201.4C252.489 199.533 252.489 196.422 252.489 193.489C253.911 198.556 255.244 203.711 255.333 204.511C255.511 206.111 257.378 211.622 257.555 212.244C257.733 212.867 258.089 214.556 258.178 216.511C258.267 218.467 259.689 218.822 260.133 218.822C260.578 218.822 257.378 206.911 256.933 206.289C256.489 205.667 256.755 204.511 256.755 204.511L254.711 196.956L252.489 189.222C252.489 189.133 252.489 188.956 252.489 188.867C254 188.778 257.733 188.689 261.2 188.956C265.733 189.4 270.089 190.822 271.244 190.111C272.311 189.489 273.022 189.222 272.044 188.778C270.889 186.556 268.933 176.956 267.155 167.711C272.933 166.111 279.333 163.978 280.578 163.533C281.644 163.978 282.978 164.156 283.511 164.156C284.222 164.156 285.822 164.511 286.444 164.867C286.978 165.222 290.355 164.867 292.755 165.044C292.578 167.8 292.489 169.933 292.489 169.933L292.755 181.844C291.955 177.933 291.155 174.467 291.155 174.467C290.978 174.2 290 175 290 175.267C290 175.444 290.622 178.467 291.422 182.2C290.8 182.111 290.355 182.111 290.355 182.111L280.489 181.133C280.489 181.133 277.733 180.956 276.844 180.6C275.955 180.244 274.8 180.422 275.778 181.489C276.667 182.556 277.022 182.289 278.178 182.289C279.244 182.289 282.355 181.933 283.244 182.467C284.044 183 285.022 183.622 287.333 183.533C288.755 183.444 290.533 183.533 291.778 183.622C291.867 183.978 291.955 184.333 292.044 184.689C291.333 184.867 290.533 184.867 290 184.867C289.111 184.867 283.155 184.867 280.044 185.044C277.022 185.222 275.689 184.689 275.155 185.222C274.622 185.756 274.355 186.644 275.867 186.644C277.378 186.644 279.6 186.2 280.311 186.556C280.933 186.911 282 187.089 283.422 186.822C284.933 186.556 287.955 186.111 291.867 186.022C291.867 186.022 291.955 186.022 292.222 185.933C292.311 186.378 292.489 186.911 292.578 187.356C292.489 188.244 292.4 189.667 292.4 191.356C292.4 194.378 292.133 212.956 292.044 216.511C291.067 216.778 290 216.956 288.933 217.222C285.467 217.844 275.155 219.533 275.155 219.533ZM301.467 218.911C301.467 218.911 299.511 216.6 298.178 216.867C296.844 217.133 296.489 215.978 296.489 215.622C296.489 215.444 295.867 215.533 294.889 215.8C294.622 211.8 294 200.6 294.089 198.467C294.089 197.311 294.089 194.733 294.089 191.978C296.044 198.556 298.8 212.511 298.889 213.933C298.978 215.267 300.755 214.467 300.755 214.467C300.489 213.844 296.044 194.911 295.333 192.422C295.067 191.622 294.622 189.578 294.089 187.089C294.089 186.644 294.089 186.2 294.089 185.756C294.889 185.667 295.955 185.667 297.2 185.578C298.889 185.489 301.733 185.667 304.222 185.756C311.689 195.444 325.378 209.4 328.133 212.156C315.244 216.511 301.467 218.911 301.467 218.911ZM333.378 210.378C330.267 207.622 316.933 195.711 307.6 185.933C308.044 185.933 308.4 185.933 308.755 185.933C310.444 185.756 312.933 185.311 313.378 184.422C314.089 184.867 314.8 185.4 315.511 185.844C324.755 191.711 330 194.289 338.978 198.467C345.2 201.311 349.378 203.178 351.333 204.067C351.155 204.156 350.978 204.156 350.889 204.244C348.311 205.133 343.067 207 333.378 210.378ZM352.311 203.711C350.711 203 346.444 201.044 339.333 197.756C330.444 193.667 325.2 191.089 315.955 185.222C315.067 184.689 314.178 184.067 313.289 183.444C313.111 183 312.844 182.733 312.578 182.467L306.978 166.733C308.489 168.333 310.089 169.844 311.778 171.267C321.733 179.978 347.867 196.244 361.022 200.244C360.578 200.422 360.133 200.6 359.689 200.867C357.644 201.756 354.889 202.733 352.311 203.711ZM365.911 197.933C364.667 198.644 363.422 199.178 362 199.711C349.289 196.156 322.267 179.444 312.222 170.644C310.178 168.867 308.222 166.911 306.355 164.956L306.267 164.689C306.533 164.6 306.8 164.511 306.711 164.244C306.622 163.8 306.444 163.533 305.733 163.356C305.644 163.267 305.555 163.267 305.467 163.267C305.289 163.267 305.111 163.178 304.844 163.178C299.867 157.667 296.044 152.422 294.533 150.289C297.2 150.467 300.667 150.822 302.178 151C307.422 156.956 314.622 164.244 323.333 170.911C340.044 183.622 359.244 194.111 369.378 196.067C368.578 196.6 367.244 197.222 365.911 197.933Z" fill="black"/>
<path d="M141.378 180.778C142 181.133 145.822 181.133 145.822 181.133C145.822 181.133 150.622 181.044 152.222 180.867C153.822 180.778 163.956 180.422 167.156 180.422C170.978 180.333 172.489 181.044 172.844 181.311C173.822 181.222 174.356 181.222 174.356 181.222L178.356 181.4C177.822 181.489 177.022 181.667 176.044 181.756C176.933 181.756 178 181.667 179.511 181.489C185.644 180.867 196.756 180.6 201.911 180.511C207.067 180.422 213.022 180.156 213.022 180.156C213.022 180.156 211.689 179.711 209.822 179.533C207.956 179.356 205.111 179.444 205.111 179.444C205.111 179.444 204.489 179.533 202.711 177.311C200.933 175.089 199.511 173.222 199.511 173.222C199.511 173.222 198.889 173.489 198.711 172.778C198.533 172.067 198.444 171.444 197.911 171.089C197.378 170.822 197.111 169.844 196.667 169.756C196.222 169.667 195.067 171.356 193.911 171.444C192.756 171.533 191.511 172.244 189.911 171C188.222 169.756 185.467 169.133 185.467 169.133C185.467 169.133 185.467 168.333 185.111 168.067C184.756 167.8 184.4 168.689 183.956 168.6C183.511 168.511 184.044 167.089 183.6 166.911C183.156 166.733 182.622 167.622 182.533 167.889C182.444 168.156 182.267 168.067 181.733 167.178C181.2 166.289 180.756 165.933 180.4 165.4C179.956 164.867 179.956 164.422 179.156 164.333C178.356 164.244 177.644 164.689 177.644 164.867C177.644 165.044 177.644 166.022 177.2 166.111C176.756 166.2 176.489 165.222 176.133 164.956C175.778 164.689 175.511 164.778 175.244 165.044C174.889 165.311 174.356 165.133 173.733 164.778C173.2 164.422 172.756 165.4 172.844 165.756C172.933 166.111 172.844 167.356 172.844 167.356C172.844 167.356 172.044 167.622 172.578 168.067C173.111 168.511 173.2 169.844 172.667 169.667C172.133 169.489 171.689 169.667 170.711 168.956C169.733 168.244 169.111 167.889 168.933 167.444C168.756 167 168.489 166.911 168.133 166.911C167.778 166.911 166.444 166.733 166.089 166.022C165.733 165.311 164.4 165.4 164.311 164.6C164.222 163.8 164.222 162.822 163.956 162.822C163.689 162.822 163.778 165.133 163.333 165.222C162.889 165.311 161.822 165.756 161.644 164.422C161.467 163.178 161.289 163.356 161.022 162.733C160.756 162.111 159.778 163.089 159.778 163.089C159.778 163.089 159.333 162.733 159.333 162.467C159.333 162.2 159.067 161.933 158.533 161.756C158 161.578 158 160.778 157.644 160.6C157.289 160.422 156.756 160.6 156.667 161.133C156.667 161.578 156.667 163 156.667 163C156.667 163 155.422 162.822 155.333 162.2C155.244 161.578 155.333 161.044 154.978 161.044C154.622 161.044 154.356 161.578 154.267 162.022C154.267 162.467 154.267 163.711 153.911 163.533C153.556 163.356 153.822 162.911 153.467 162.289C153.111 161.667 153.467 161.489 152.667 161.489C151.956 161.489 152.044 162.911 152.044 162.911C152.044 162.911 151.778 162.911 151.6 162.644C151.422 162.378 150.978 162.378 150.889 163C150.889 163.533 150.533 163.533 149.467 164.067C148.4 164.6 148.044 165.222 146.444 165.311C144.844 165.4 143.244 166.2 142.533 166.289C141.822 166.289 140.667 166.733 140.489 166.289C140.311 165.844 142.711 166.467 142.089 165.311C141.822 164.867 139.067 165.4 139.067 165.4C139.067 165.4 138.8 165.4 138.889 166.2C138.889 166.911 138.889 167.267 139.333 167.267C139.778 167.267 142 167.267 142 167.267C142 167.267 142.267 167.8 142.533 167.8C142.889 167.8 143.6 167.8 143.6 167.8C143.6 167.8 142 169.489 141.467 169.489C140.933 169.489 140.578 169.578 140.222 168.956C139.867 168.333 139.067 169.311 139.067 169.311C139.067 169.311 138.622 169.578 138.267 168.778C137.911 167.978 136.222 170.467 136.222 170.467C136.222 170.467 135.689 171.178 135.244 170.111C135.244 170.111 133.289 170.644 132.4 171.622C131.6 172.6 125.822 181.489 125.822 181.489V181.667L137.733 181.578C137.822 181.578 140.756 180.422 141.378 180.778ZM180.311 171.978C180.311 171.978 182 170.733 182.622 170.911C183.244 171.178 184.133 171.089 184.133 170.556C184.133 170.111 184.133 169.578 185.111 169.756C186.089 170.022 189.289 171.622 188.933 172.067C188.578 172.511 188.4 171.978 187.689 172.333C186.978 172.689 186.444 172.689 186 172.333C185.556 171.978 185.2 171.444 184.489 171.533C183.778 171.622 183.778 171.978 182.978 171.978C182.178 171.978 181.2 172.333 180.578 172.422C179.956 172.511 180.311 171.978 180.311 171.978ZM173.378 175.356C173.378 175.356 175.244 173.844 175.689 174.556C176.133 175.178 173.378 176.244 173.378 176.244C173.378 176.244 172.4 176.422 172.578 177.133C172.756 177.844 173.822 177.133 174.267 177.311C174.622 177.4 174.8 178.111 175.067 178.556C175.244 178.556 175.511 178.556 175.689 178.556C175.867 178.2 176.044 177.667 176.4 177.489C176.933 177.222 177.022 176.689 177.378 176.6C177.733 176.6 177.644 175.711 177.911 175.889C178.178 176.067 178.622 176.333 179.156 176.422C179.689 176.511 179.689 176.156 179.6 175.8C179.511 175.444 180.044 175.356 180.044 175.356C180.044 175.356 181.911 174.467 182.8 174.467C183.689 174.467 184.311 174.378 184.756 174.111C185.2 173.844 186.978 173.311 188.311 173.133C189.556 172.956 190.622 173.133 192.133 173.133C193.644 173.133 193.733 172.778 194.267 173.311C194.8 173.844 194.978 173.578 195.511 174.022C196.044 174.467 196.222 174.111 196.489 174.022C196.844 174.022 197.378 174.822 197.644 174.644C197.911 174.467 199.422 174.378 199.422 174.378C199.422 174.378 200.756 176.156 201.644 177.311C202.533 178.467 203.6 179.533 203.6 179.533H192.4C190.8 179.533 190.8 179.267 190.8 179.267C190.8 179.267 190.089 178.733 188.756 178.644C187.511 178.644 186.889 179.267 186.622 179.444C186.356 179.622 185.378 179 184.578 179.267C183.867 179.533 183.156 178.111 182.622 177.844C182.089 177.578 181.111 178.289 181.111 178.289C181.111 178.289 178.622 178.378 175.689 178.378C175.6 178.556 175.511 178.733 175.333 178.733C175.244 178.733 175.156 178.556 174.978 178.378C171.067 178.378 166.711 178.378 166.8 178.111C166.889 177.667 167.778 177.4 167.778 177.4L173.378 175.356ZM164.844 169.133C165.467 169.311 166.089 168.067 166.444 168.244C166.711 168.511 167.6 168.244 167.6 168.244C167.6 168.244 168.756 169.133 168.133 169.133C167.511 169.133 166.978 169.133 166.622 169.311C166.267 169.489 165.556 169.756 165.289 170.111C165.022 170.467 164.578 170.378 164.222 169.933C163.867 169.4 164.222 168.956 164.844 169.133ZM163.422 172.156C163.422 172.156 163.689 173.044 164.133 172.244C164.578 171.444 166.444 171 166.444 171C166.444 171 170.267 169.756 170.444 170.022C170.622 170.289 170.8 170.467 171.6 170.911C172.4 171.356 172.844 171.889 172.044 172.156C171.244 172.511 169.556 172.867 169.111 173.133C168.667 173.489 168.222 173.4 167.956 173.222C167.689 173.044 166.444 172.333 166 172.333C165.556 172.333 163.689 173.489 162.8 172.867C162.089 172.156 163.422 172.156 163.422 172.156ZM159.778 166.911C160.222 166.733 160.222 167.711 160.756 167.711C161.378 167.711 160.756 166.2 161.467 166.022C162.178 165.844 162.178 166.911 162.178 166.911L160.133 169.222C159.422 169.756 159.333 167.178 159.778 166.911ZM157.022 169.133C157.467 168.778 157.644 168.689 157.644 168.067C157.644 167.444 157.822 167.178 158.267 167.178C158.711 167.178 158.178 168.511 158.444 168.956C158.711 169.4 158.978 170.111 158.978 170.111C158.978 170.111 157.467 171.622 156.844 171.178C156.044 170.822 156.578 169.489 157.022 169.133ZM147.867 179.622C147.867 179.622 152.044 179.267 153.467 179.356C154.8 179.533 156.133 179.356 157.2 179.178C158.178 179.089 160.4 178.822 160.489 179.533C160.489 179.978 159.156 179.978 157.111 179.978C155.067 179.978 153.822 179.978 152.311 179.978C150.8 179.978 147.333 180.778 147.867 179.622ZM129.467 180.244C129.2 180.689 127.6 180.244 127.6 180.244L128.4 178.733C128.4 178.822 129.733 179.889 129.467 180.244ZM135.867 180.156C134.8 180.156 131.956 180.333 132.489 179.622C132.489 179.622 135.6 177.311 135.6 177.578C135.6 177.933 135.6 178.2 135.956 178.2C136.311 178.2 136.578 179.089 137.289 179.356C138 179.622 138.178 179.622 138.178 179.8C138.178 179.978 136.933 180.156 135.867 180.156Z" fill="black"/>
<path d="M160.311 212.067C159.244 211.533 160.311 213.133 160.578 213.578C160.756 213.933 161.556 213.756 161.822 213.667C161.467 213.489 161.111 212.422 160.311 212.067Z" fill="black"/>
<path d="M329.289 258.556C324.933 257.933 317.644 258.111 314.356 258.111C311.067 258.111 305.111 258.2 302.089 258.2C299.067 258.2 295.6 257.844 295.6 257.844C295.6 257.844 294.711 257.133 293.822 257.133C293.022 257.133 292.489 256.422 291.778 256.956C291.156 257.489 291.156 257.844 291.156 257.844C291.156 257.844 282 256.689 276.133 256.689C270.267 256.689 257.289 257.222 254.8 257.222C252.311 257.222 250.356 257.4 250.089 257.133C249.822 256.867 249.2 257.489 249.2 257.489C249.2 257.489 247.244 258.289 248.844 258.556C250.444 258.822 251.956 259.533 252.756 259C253.556 258.467 253.644 257.933 255.422 257.756C257.2 257.578 279.067 257.044 285.289 257.844C291.422 258.644 291.422 259.178 292.4 259.444C293.289 259.622 295.6 259.978 296.133 259.711C296.667 259.444 297.733 259.178 299.6 259.267C301.556 259.356 319.778 259.533 321.022 259.356C322.178 259.178 323.867 259.533 325.111 259.622C326.356 259.711 329.022 259.089 331.422 259.533C333.822 259.978 344.222 262.467 343.422 262.111C343.422 262.022 333.644 259.178 329.289 258.556Z" fill="black"/>
</g>
<defs>
<clipPath id="clip0_13_2">
<rect width="320" height="209.956" fill="white" transform="translate(90 95)"/>
</clipPath>
</defs>
</svg>
