<svg width="500" height="400" viewBox="0 0 500 400" fill="none" xmlns="http://www.w3.org/2000/svg">
<g clip-path="url(#clip0_13_2)">
<path d="M89.5963 208.291H89.4182C87.4592 216.899 78.6138 221.945 70.3028 221.945C56.7082 221.945 50 211.141 50 198.674C50 185.614 57.1831 174.809 70.8964 174.809C80.1573 174.809 87.4592 180.983 89.3589 188.938H89.537V175.937H91.4366V223.014C91.4366 236.252 83.8379 242.485 71.1932 242.485C61.3387 242.485 52.9089 238.033 52.6121 227.169H54.5117C54.8679 236.846 62.2885 240.586 71.0745 240.586C82.8287 240.586 89.537 235.005 89.537 222.954V208.291H89.5963ZM70.8964 176.709C58.3111 176.709 51.8403 186.861 51.8403 198.674C51.8403 210.725 58.2517 220.105 70.1247 220.105C82.6506 220.105 89.4776 210.428 89.4776 198.674C89.5963 187.454 83.1256 176.709 70.8964 176.709Z" fill="#372213"/>
<path d="M118.744 174.809C132.933 174.809 140.591 187.039 140.591 200.277C140.591 213.634 132.933 225.744 118.626 225.744C104.438 225.744 96.7201 213.634 96.7201 200.277C96.7795 187.039 104.438 174.809 118.744 174.809ZM118.744 223.845C131.686 223.845 138.691 212.565 138.691 200.277C138.691 188.167 131.686 176.709 118.744 176.709C105.565 176.709 98.6791 188.167 98.6791 200.277C98.6791 212.565 105.565 223.845 118.744 223.845Z" fill="#372213"/>
<path d="M165.524 174.809C179.712 174.809 187.37 187.039 187.37 200.277C187.37 213.634 179.712 225.744 165.405 225.744C151.217 225.744 143.559 213.634 143.559 200.277C143.559 187.039 151.217 174.809 165.524 174.809ZM165.524 223.845C178.525 223.845 185.471 212.565 185.471 200.277C185.471 188.167 178.465 176.709 165.524 176.709C152.345 176.709 145.459 188.167 145.459 200.277C145.399 212.565 152.345 223.845 165.524 223.845Z" fill="#372213"/>
<path d="M230.706 157H232.606V224.617H230.706V210.963H230.528C228.094 219.452 220.971 225.744 211.057 225.744C198.175 225.744 190.338 215.059 190.338 200.396C190.338 186.742 197.64 174.809 211.057 174.809C221.386 174.809 228.272 180.805 230.528 189.591H230.706V157ZM211.057 176.709C197.7 176.709 192.238 189.116 192.238 200.396C192.238 212.862 198.471 223.845 211.057 223.845C223.583 223.845 230.766 212.981 230.766 200.396C230.706 185.317 222.87 176.709 211.057 176.709Z" fill="#372213"/>
<path d="M241.808 175.759H247.269V187.217H247.447C250.475 179.381 257.124 174.691 265.91 175.106V181.043C255.105 180.449 247.744 188.404 247.744 198.555V224.616H241.748V175.759H241.808Z" fill="#372213"/>
<path d="M271.075 201.761C271.134 210.488 275.705 220.995 287.162 220.995C295.889 220.995 300.579 215.89 302.479 208.529H308.474C305.922 219.63 299.451 226.041 287.162 226.041C271.668 226.041 265.138 214.109 265.138 200.218C265.138 187.335 271.668 174.394 287.162 174.394C302.894 174.394 309.127 188.107 308.652 201.82H271.075V201.761ZM302.657 196.774C302.36 187.81 296.78 179.321 287.103 179.321C277.427 179.321 272.024 187.87 271.075 196.774H302.657Z" fill="#372213"/>
<path d="M313.758 190.719C314.292 179.262 322.366 174.335 333.526 174.335C342.134 174.335 351.514 177.006 351.514 190.066V216.009C351.514 218.264 352.642 219.63 355.016 219.63C355.669 219.63 356.441 219.452 356.916 219.274V224.26C355.61 224.557 354.66 224.617 352.998 224.617C346.943 224.617 345.993 221.233 345.993 216.068H345.815C341.659 222.42 337.385 225.982 328.005 225.982C319.041 225.982 311.621 221.53 311.621 211.675C311.621 197.962 324.978 197.487 337.86 195.943C342.787 195.35 345.518 194.697 345.518 189.294C345.518 181.221 339.76 179.262 332.695 179.262C325.334 179.262 319.813 182.705 319.635 190.66H313.758V190.719ZM345.577 197.902H345.399C344.627 199.327 341.956 199.802 340.353 200.099C330.202 201.88 317.616 201.82 317.616 211.378C317.616 217.374 322.9 221.055 328.48 221.055C337.563 221.055 345.637 215.296 345.518 205.739V197.902H345.577Z" fill="#372213"/>
<path d="M404.111 224.617H398.649V215.296H398.471C395.919 221.648 388.142 225.982 381.078 225.982C366.177 225.982 359.113 213.99 359.113 200.158C359.113 186.326 366.177 174.335 381.078 174.335C388.379 174.335 395.444 178.015 397.996 185.02H398.175V157H404.111V224.617ZM381.018 220.995C393.722 220.995 398.175 210.31 398.175 200.158C398.175 190.007 393.722 179.321 381.018 179.321C369.679 179.321 364.99 190.007 364.99 200.158C364.99 210.31 369.62 220.995 381.018 220.995Z" fill="#372213"/>
<path d="M442.342 190.007C442.045 182.646 436.405 179.321 429.579 179.321C424.295 179.321 418.062 181.399 418.062 187.751C418.062 193.034 424.117 194.934 428.213 196.003L436.168 197.784C442.995 198.852 450.059 202.83 450.059 211.319C450.059 221.945 439.552 225.982 430.469 225.982C419.13 225.982 411.354 220.698 410.404 208.766H416.34C416.815 216.78 422.811 220.995 430.766 220.995C436.346 220.995 444.123 218.561 444.123 211.734C444.123 206.035 438.839 204.195 433.437 202.83L425.779 201.108C418.002 199.03 412.125 196.359 412.125 188.048C412.125 178.134 421.861 174.335 430.469 174.335C440.205 174.335 447.982 179.44 448.338 190.066H442.342V190.007Z" fill="#372213"/>
</g>
<defs>
<clipPath id="clip0_13_2">
<rect width="400" height="85.4853" fill="white" transform="translate(50 157)"/>
</clipPath>
</defs>
</svg>
