<svg width="500" height="500" viewBox="0 0 500 500" fill="none" xmlns="http://www.w3.org/2000/svg">
<g clip-path="url(#clip0_13_2)">
<path d="M89.5963 258.291H89.4182C87.4592 266.899 78.6138 271.945 70.3028 271.945C56.7082 271.945 50 261.141 50 248.674C50 235.614 57.1831 224.809 70.8964 224.809C80.1573 224.809 87.4592 230.983 89.3589 238.938H89.537V225.937H91.4366V273.014C91.4366 286.252 83.8379 292.485 71.1932 292.485C61.3387 292.485 52.9089 288.033 52.6121 277.169H54.5117C54.8679 286.846 62.2885 290.586 71.0745 290.586C82.8287 290.586 89.537 285.005 89.537 272.954V258.291H89.5963ZM70.8964 226.709C58.3111 226.709 51.8403 236.861 51.8403 248.674C51.8403 260.725 58.2517 270.105 70.1247 270.105C82.6506 270.105 89.4776 260.428 89.4776 248.674C89.5963 237.454 83.1256 226.709 70.8964 226.709Z" fill="#372213"/>
<path d="M118.744 224.809C132.933 224.809 140.591 237.039 140.591 250.277C140.591 263.634 132.933 275.744 118.626 275.744C104.438 275.744 96.7201 263.634 96.7201 250.277C96.7795 237.039 104.438 224.809 118.744 224.809ZM118.744 273.845C131.686 273.845 138.691 262.565 138.691 250.277C138.691 238.167 131.686 226.709 118.744 226.709C105.565 226.709 98.6791 238.167 98.6791 250.277C98.6791 262.565 105.565 273.845 118.744 273.845Z" fill="#372213"/>
<path d="M165.524 224.809C179.712 224.809 187.37 237.039 187.37 250.277C187.37 263.634 179.712 275.744 165.405 275.744C151.217 275.744 143.559 263.634 143.559 250.277C143.559 237.039 151.217 224.809 165.524 224.809ZM165.524 273.845C178.525 273.845 185.471 262.565 185.471 250.277C185.471 238.167 178.465 226.709 165.524 226.709C152.345 226.709 145.459 238.167 145.459 250.277C145.399 262.565 152.345 273.845 165.524 273.845Z" fill="#372213"/>
<path d="M230.706 207H232.606V274.617H230.706V260.963H230.528C228.094 269.452 220.971 275.744 211.057 275.744C198.175 275.744 190.338 265.059 190.338 250.396C190.338 236.742 197.64 224.809 211.057 224.809C221.386 224.809 228.272 230.805 230.528 239.591H230.706V207ZM211.057 226.709C197.7 226.709 192.238 239.116 192.238 250.396C192.238 262.862 198.471 273.845 211.057 273.845C223.583 273.845 230.766 262.981 230.766 250.396C230.706 235.317 222.87 226.709 211.057 226.709Z" fill="#372213"/>
<path d="M241.808 225.759H247.269V237.217H247.447C250.475 229.381 257.124 224.691 265.91 225.106V231.043C255.105 230.449 247.744 238.404 247.744 248.555V274.616H241.748V225.759H241.808Z" fill="#372213"/>
<path d="M271.075 251.761C271.134 260.488 275.705 270.995 287.162 270.995C295.889 270.995 300.579 265.89 302.479 258.529H308.474C305.922 269.63 299.451 276.041 287.162 276.041C271.668 276.041 265.138 264.109 265.138 250.218C265.138 237.335 271.668 224.394 287.162 224.394C302.894 224.394 309.127 238.107 308.652 251.82H271.075V251.761ZM302.657 246.774C302.36 237.81 296.78 229.321 287.103 229.321C277.427 229.321 272.024 237.87 271.075 246.774H302.657Z" fill="#372213"/>
<path d="M313.758 240.719C314.292 229.262 322.366 224.335 333.526 224.335C342.134 224.335 351.514 227.006 351.514 240.066V266.009C351.514 268.264 352.642 269.63 355.016 269.63C355.669 269.63 356.441 269.452 356.916 269.274V274.26C355.61 274.557 354.66 274.617 352.998 274.617C346.943 274.617 345.993 271.233 345.993 266.068H345.815C341.659 272.42 337.385 275.982 328.005 275.982C319.041 275.982 311.621 271.53 311.621 261.675C311.621 247.962 324.978 247.487 337.86 245.943C342.787 245.35 345.518 244.697 345.518 239.294C345.518 231.221 339.76 229.262 332.695 229.262C325.334 229.262 319.813 232.705 319.635 240.66H313.758V240.719ZM345.577 247.902H345.399C344.627 249.327 341.956 249.802 340.353 250.099C330.202 251.88 317.616 251.82 317.616 261.378C317.616 267.374 322.9 271.055 328.48 271.055C337.563 271.055 345.637 265.296 345.518 255.739V247.902H345.577Z" fill="#372213"/>
<path d="M404.111 274.617H398.649V265.296H398.471C395.919 271.648 388.142 275.982 381.078 275.982C366.177 275.982 359.113 263.99 359.113 250.158C359.113 236.326 366.177 224.335 381.078 224.335C388.379 224.335 395.444 228.015 397.996 235.02H398.175V207H404.111V274.617ZM381.018 270.995C393.722 270.995 398.175 260.31 398.175 250.158C398.175 240.007 393.722 229.321 381.018 229.321C369.679 229.321 364.99 240.007 364.99 250.158C364.99 260.31 369.62 270.995 381.018 270.995Z" fill="#372213"/>
<path d="M442.342 240.007C442.045 232.646 436.405 229.321 429.579 229.321C424.295 229.321 418.062 231.399 418.062 237.751C418.062 243.034 424.117 244.934 428.213 246.003L436.168 247.784C442.995 248.852 450.059 252.83 450.059 261.319C450.059 271.945 439.552 275.982 430.469 275.982C419.13 275.982 411.354 270.698 410.404 258.766H416.34C416.815 266.78 422.811 270.995 430.766 270.995C436.346 270.995 444.123 268.561 444.123 261.734C444.123 256.035 438.839 254.195 433.437 252.83L425.779 251.108C418.002 249.03 412.125 246.359 412.125 238.048C412.125 228.134 421.861 224.335 430.469 224.335C440.205 224.335 447.982 229.44 448.338 240.066H442.342V240.007Z" fill="#372213"/>
</g>
<defs>
<clipPath id="clip0_13_2">
<rect width="400" height="85.4853" fill="white" transform="translate(50 207)"/>
</clipPath>
</defs>
</svg>
