<svg width="500" height="400" viewBox="0 0 500 400" fill="none" xmlns="http://www.w3.org/2000/svg">
<g clip-path="url(#clip0_13_203)">
<mask id="mask0_13_203" style="mask-type:luminance" maskUnits="userSpaceOnUse" x="445" y="223" width="20" height="26">
<path d="M445.559 223.832H464.998V248.053H445.559V223.832Z" fill="white"/>
</mask>
<g mask="url(#mask0_13_203)">
<path fill-rule="evenodd" clip-rule="evenodd" d="M457.714 248.132C456.282 248.132 454.881 247.898 453.551 247.43C449.502 245.934 446.754 242.686 445.817 238.451C445.12 235.291 445.849 231.87 447.819 229.067C449.813 226.229 452.828 224.363 456.088 223.941C456.65 223.867 457.273 223.832 457.881 223.832C458.489 223.832 459.085 223.867 459.591 223.941C461.2 224.167 462.729 224.721 464.141 225.589L462.171 227.049C461.343 226.661 460.486 226.392 459.625 226.255L459.026 226.166C458.673 226.131 458.309 226.115 457.94 226.115C457.129 226.115 456.266 226.197 455.369 226.361C452.748 226.962 450.662 228.585 449.157 231.185C447.104 234.732 447.303 238.408 449.735 241.811C451.431 244.186 453.683 245.557 456.429 245.893C456.659 245.92 456.884 245.934 457.107 245.946C457.341 245.962 457.562 245.974 457.793 245.974C457.8 245.974 458.281 245.965 458.478 245.954C458.695 245.942 458.918 245.926 459.144 245.901C460.383 245.758 461.517 245.412 462.52 244.872L462.684 244.785V238.916H457.66V236.729H464.998V245.966C464.204 246.527 463.304 246.992 462.318 247.36L461.969 247.474C460.711 247.898 459.411 248.115 458.093 248.126L457.714 248.132Z" fill="black"/>
</g>
<path fill-rule="evenodd" clip-rule="evenodd" d="M423.999 247.814V224.697L439.034 241.203V224.262H441.227V247.411L426.217 230.994V247.814H423.999Z" fill="black"/>
<path fill-rule="evenodd" clip-rule="evenodd" d="M415.267 247.83H417.332V224.229H415.267V247.83Z" fill="black"/>
<path fill-rule="evenodd" clip-rule="evenodd" d="M406.447 247.868V239.021H392.824V247.833H390.663V224.272H392.784V236.624H406.386V224.254H408.568V247.868H406.447Z" fill="black"/>
<path fill-rule="evenodd" clip-rule="evenodd" d="M379.258 247.957C376.861 247.957 374.595 246.806 373.271 244.936L375.012 243.74L375.423 244.159C376.42 245.173 377.751 245.731 379.17 245.731C380.209 245.731 381.22 245.426 382.096 244.851C383.235 244.101 383.955 242.859 384.02 241.531C384.079 240.3 383.568 239.158 382.618 238.389C381.449 237.443 380.115 236.686 378.826 235.952L377.828 235.38C375.909 234.258 374.509 233.124 373.926 231.235C373.41 229.567 373.681 227.803 374.671 226.384C375.738 224.855 377.481 223.922 379.448 223.824L379.887 223.81C381.921 223.81 383.596 224.536 385.001 226.024C384.631 226.303 383.233 227.331 383.233 227.331C382.021 226.154 381.29 226.03 379.893 226.03C378.441 226.03 376.605 226.924 376.063 228.58C375.558 230.125 376.111 231.582 377.576 232.574C378.221 233.011 378.903 233.393 379.585 233.77C380.034 234.022 380.481 234.269 380.916 234.536L381.443 234.855C382.195 235.307 382.97 235.772 383.642 236.325C386.012 238.282 386.773 240.754 385.843 243.475C384.991 245.973 382.531 247.768 379.723 247.941C379.57 247.952 379.414 247.957 379.258 247.957Z" fill="black"/>
<path fill-rule="evenodd" clip-rule="evenodd" d="M366.548 247.826H368.612V224.231H366.548V247.826Z" fill="black"/>
<path fill-rule="evenodd" clip-rule="evenodd" d="M351.431 247.825V224.272H353.563L353.562 245.635H361.947V247.825H351.431Z" fill="black"/>
<mask id="mask1_13_203" style="mask-type:luminance" maskUnits="userSpaceOnUse" x="291" y="224" width="56" height="25">
<path d="M291.014 224.113H346.12V248.053H291.014V224.113Z" fill="white"/>
</mask>
<g mask="url(#mask1_13_203)">
<path fill-rule="evenodd" clip-rule="evenodd" d="M335.688 226.401H334.218V233.504C334.218 233.504 335.266 233.504 335.632 233.504C337.314 233.504 338.464 232.923 339.246 231.681C339.95 230.566 339.95 229.338 339.247 228.222C338.473 226.992 337.343 226.401 335.688 226.401ZM334.173 235.584V245.667H337.505C338.128 245.667 338.743 245.651 339.354 245.594C341.716 245.374 343.565 243.552 343.852 241.165C344.005 239.9 343.46 238.363 342.468 237.244C341.796 236.486 340.623 235.579 338.846 235.579L334.173 235.584ZM331.95 247.85V224.113H333.771C335.557 224.113 335.968 224.137 337.187 224.364C339.142 224.724 340.643 225.82 341.415 227.452C342.211 229.134 342.089 231.144 341.079 232.969C341.026 233.063 340.719 233.729 340.719 233.729L341.042 233.853C343.116 234.653 344.536 235.874 345.381 237.581C346.44 239.722 346.358 242.13 345.156 244.194C343.933 246.299 341.724 247.639 339.247 247.78C338.031 247.85 336.808 247.865 335.57 247.865L331.95 247.85Z" fill="black"/>
</g>
<mask id="mask2_13_203" style="mask-type:luminance" maskUnits="userSpaceOnUse" x="291" y="224" width="56" height="25">
<path d="M291.014 224.113H346.12V248.053H291.014V224.113Z" fill="white"/>
</mask>
<g mask="url(#mask2_13_203)">
<path fill-rule="evenodd" clip-rule="evenodd" d="M316.572 248.11C312.513 248.11 308.811 245.826 307.771 242.679C307.635 242.268 307.515 241.913 307.515 241.591C307.501 237.014 307.501 232.442 307.501 227.825L307.502 224.474H309.705V229.991C309.7 233.646 309.695 237.301 309.754 240.953C309.802 243.885 313.323 245.855 316.583 245.855C319.772 245.797 323.212 243.872 323.283 241.203C323.38 237.502 323.384 233.799 323.385 230.098L323.395 224.452H325.55C325.551 226.1 325.562 227.742 325.572 229.376C325.597 233.42 325.623 237.6 325.502 241.687C325.409 244.815 321.696 247.74 317.394 248.078C317.12 248.099 316.844 248.11 316.572 248.11Z" fill="black"/>
</g>
<mask id="mask3_13_203" style="mask-type:luminance" maskUnits="userSpaceOnUse" x="291" y="224" width="56" height="25">
<path d="M291.014 224.113H346.12V248.053H291.014V224.113Z" fill="white"/>
</mask>
<g mask="url(#mask3_13_203)">
<path fill-rule="evenodd" clip-rule="evenodd" d="M294.445 226.742C294.144 226.742 293.839 226.753 293.524 226.784L293.237 226.807V239.282C293.237 239.282 294.018 239.327 294.255 239.327C296.749 239.327 298.662 238.347 299.944 236.417C301.422 234.187 301.46 231.848 300.052 229.649C298.819 227.722 296.932 226.742 294.445 226.742ZM291.014 248.148V224.425L293.153 224.412C295.464 224.412 297.714 224.551 299.832 226.201C302.799 228.518 303.87 231.463 303.013 234.949C302.172 238.384 299.918 240.537 296.314 241.349C295.731 241.483 295.131 241.531 294.491 241.587C294.166 241.615 293.199 241.714 293.199 241.714V248.148H291.014Z" fill="black"/>
</g>
<path fill-rule="evenodd" clip-rule="evenodd" d="M44.8198 199.83H46.5335V153.916H44.8198V199.83Z" fill="black"/>
<path fill-rule="evenodd" clip-rule="evenodd" d="M81.2074 202.43L80.6962 203.804L78.5605 209.671H80.2726L82.4082 203.804L82.9211 202.43H81.2074Z" fill="black"/>
<path fill-rule="evenodd" clip-rule="evenodd" d="M133.793 174.069L133.83 153.916H132.118L132.078 176.372L133.793 174.069Z" fill="black"/>
<path fill-rule="evenodd" clip-rule="evenodd" d="M135.606 193.24L134.707 192.159L131.881 195.906L131.922 198.125V209.671H133.634V198.125L133.593 195.906L135.606 193.24Z" fill="black"/>
<path fill-rule="evenodd" clip-rule="evenodd" d="M181.471 178.786H183.183V162.669H181.471V178.786Z" fill="black"/>
<path fill-rule="evenodd" clip-rule="evenodd" d="M181.471 199.829H183.183V191.807H181.471V199.829Z" fill="black"/>
<path fill-rule="evenodd" clip-rule="evenodd" d="M233.171 196.833C234.135 197.518 235.165 198.044 236.227 198.496C233.367 195.336 231.9 191.571 231.9 187.279V153.916H230.187V187.279C230.187 190.842 231.198 194.041 233.171 196.833Z" fill="black"/>
<path fill-rule="evenodd" clip-rule="evenodd" d="M344.476 209.576H346.189V153.913H344.476V209.576Z" fill="black"/>
<path fill-rule="evenodd" clip-rule="evenodd" d="M374.845 163.351C373.579 163.798 372.343 164.32 371.169 165C370.957 165.2 370.736 165.378 370.527 165.587C366.054 170.054 363.788 175.529 363.788 181.86C363.788 187.099 365.387 191.753 368.505 195.747C369.738 196.717 371.039 197.523 372.392 198.2C372.343 198.152 372.289 198.11 372.239 198.061C367.767 193.594 365.5 188.141 365.5 181.86C365.5 175.529 367.767 170.054 372.239 165.587C373.072 164.755 373.947 164.027 374.845 163.351Z" fill="black"/>
<path fill-rule="evenodd" clip-rule="evenodd" d="M312.14 188.284V186.295L283.118 152.586V154.575L312.14 188.284Z" fill="black"/>
<path fill-rule="evenodd" clip-rule="evenodd" d="M286.907 176.642V209.671H288.619V178.631L286.907 176.642Z" fill="black"/>
<path fill-rule="evenodd" clip-rule="evenodd" d="M456.226 188.283V186.293L427.206 152.586V154.575L456.226 188.283Z" fill="black"/>
<path fill-rule="evenodd" clip-rule="evenodd" d="M430.995 176.642V209.671H432.707V178.631L430.995 176.642Z" fill="black"/>
<path fill-rule="evenodd" clip-rule="evenodd" d="M90.4764 178.173L86.1653 189.407H87.8773L91.3285 180.414L90.4764 178.173Z" fill="black"/>
<path fill-rule="evenodd" clip-rule="evenodd" d="M375.363 162.93C374.143 163.325 372.948 163.788 371.814 164.395C371.371 164.779 370.932 165.163 370.508 165.587C366.036 170.054 363.767 175.529 363.767 181.86C363.767 188.141 366.036 193.594 370.508 198.061C370.934 198.485 371.375 198.872 371.817 199.256C372.95 199.862 374.143 200.326 375.364 200.721C374.265 199.94 373.206 199.064 372.203 198.061C367.729 193.594 365.461 188.141 365.461 181.86C365.461 175.529 367.729 170.054 372.203 165.587C373.206 164.585 374.264 163.71 375.363 162.93Z" fill="black"/>
<path fill-rule="evenodd" clip-rule="evenodd" d="M35 209.671V153.916H40.5677V204.102H58.8013V209.671H35Z" fill="black"/>
<path fill-rule="evenodd" clip-rule="evenodd" d="M99.8758 193.678L90.102 168.061L80.2725 193.678H99.8758ZM105.897 209.671L103.763 203.802L102.002 199.249H78.1385L76.4424 203.804L74.3067 209.671H68.301L90.1036 151.758L111.841 209.671H105.897Z" fill="black"/>
<path fill-rule="evenodd" clip-rule="evenodd" d="M151.888 209.671L133.736 187.806L127.627 195.906L127.668 198.125V209.671H122.042L122.107 153.916H127.864L127.807 186.37L152.011 153.916H158.924L137.15 183.207L159.093 209.671H151.888Z" fill="black"/>
<path fill-rule="evenodd" clip-rule="evenodd" d="M171.523 209.671V153.916H194.371V159.488H177.219V183.057H194.498V188.627H177.219V204.102H196.285V209.671H171.523Z" fill="black"/>
<path fill-rule="evenodd" clip-rule="evenodd" d="M242.762 209.671C236.608 209.671 231.268 207.454 226.89 203.084C222.517 198.712 220.301 193.395 220.301 187.279V153.916H225.933V187.279C225.933 191.869 227.591 195.863 230.857 199.152C234.122 202.438 238.129 204.102 242.762 204.102C247.312 204.102 251.295 202.438 254.596 199.149C257.906 195.862 259.586 191.869 259.586 187.279V153.916H265.152V187.279C265.152 193.395 262.935 198.712 258.563 203.084C254.193 207.454 248.877 209.671 242.762 209.671Z" fill="black"/>
<path fill-rule="evenodd" clip-rule="evenodd" d="M282.653 167.896V209.671H277.152V152.586L315.414 197.028V153.921H320.917V212.343L282.653 167.896Z" fill="black"/>
<path fill-rule="evenodd" clip-rule="evenodd" d="M334.401 209.576H340.224V153.913H334.401V209.576Z" fill="black"/>
<path fill-rule="evenodd" clip-rule="evenodd" d="M382.48 158.847C376.2 158.847 370.75 161.115 366.274 165.587C361.8 170.054 359.534 175.529 359.534 181.86C359.534 188.141 361.8 193.594 366.274 198.061C370.749 202.538 376.2 204.803 382.48 204.803C388.799 204.803 394.273 202.538 398.753 198.061C403.222 193.586 405.49 188.138 405.49 181.86C405.49 175.537 403.222 170.062 398.753 165.587C394.271 161.115 388.798 158.847 382.48 158.847ZM382.48 210.436C374.628 210.436 367.839 207.617 362.306 202.062C356.772 196.504 353.969 189.706 353.969 181.86C353.969 174.008 356.772 167.187 362.306 161.592C367.839 155.991 374.627 153.15 382.48 153.15C390.331 153.15 397.151 155.991 402.746 161.589C408.344 167.187 411.18 174.005 411.18 181.86C411.18 189.668 408.344 196.454 402.746 202.031C397.151 207.606 390.333 210.436 382.48 210.436Z" fill="black"/>
<path fill-rule="evenodd" clip-rule="evenodd" d="M426.741 167.896V209.671H421.24V152.586L459.501 197.028V153.921H465V212.343L426.741 167.896Z" fill="black"/>
</g>
<defs>
<clipPath id="clip0_13_203">
<rect width="430" height="98" fill="white" transform="translate(35 151)"/>
</clipPath>
</defs>
</svg>
