<svg width="500" height="500" viewBox="0 0 500 500" fill="none" xmlns="http://www.w3.org/2000/svg">
<path d="M64.3923 243.987H104.718V202.129H67.2322C65.3305 206.559 61.0416 224.022 64.3923 243.987Z" fill="#8C191C"/>
<path d="M143.18 202.129H105.714V295.118V299.931C108.499 298.413 111.08 296.736 113.507 295.118C158.625 263.977 146.769 210.404 143.18 202.129Z" fill="#8C191C"/>
<path d="M96.9199 295.118C99.3624 296.736 101.946 298.41 104.718 299.931V295.118V245.016H64.5708C67.617 262.079 76.3558 280.958 96.9199 295.118Z" fill="#8C191C"/>
<path d="M104.718 202.129V243.987H64.3922C64.445 244.328 64.4979 244.674 64.5708 245.016H104.718V295.118V299.931C104.889 299.994 105.05 300.064 105.218 300.24C105.392 300.064 105.548 299.994 105.714 299.931V295.118V202.129H104.718Z" fill="white"/>
<path d="M84.4481 209.829L84.4758 210.966C85.2632 210.364 86.3951 209.852 87.3007 209.666C86.7951 211.894 85.6908 212.489 84.4884 212.708L84.4381 214.577C85.4418 213.807 86.9133 212.738 88.0402 212.522C87.3887 215.34 86.0228 216.392 84.4909 216.598V218.447C85.7059 217.677 87.6428 216.274 89.0489 216.058C88.244 218.957 86.4354 220.084 84.501 220.267L84.5085 222.014C85.7159 221.183 87.6428 219.998 89.0364 219.727C88.2641 222.563 86.38 224.24 84.5135 224.476V225.926C85.726 225.164 87.6428 223.914 89.0364 223.703C88.2943 226.627 86.4328 228.228 84.4884 228.399V229.563C85.9599 228.682 88.3698 227.186 90.0526 226.96C89.0892 230.09 86.8001 231.779 84.4884 231.98V233.365C85.2782 232.705 86.9309 232.068 87.8415 231.892C87.351 233.983 85.638 234.778 84.4834 235.029L84.4783 237.572C84.755 237.567 85.0015 237.534 85.2933 237.514C85.2103 236.623 85.721 235.717 86.8756 234.989C86.9259 235.622 86.546 236.641 86.3146 237.268C86.941 237.173 87.5422 236.997 88.161 236.706C87.834 235.426 88.2566 233.704 89.7281 232.211C90.0224 233.19 89.7432 234.813 89.6275 235.893C90.269 235.509 90.9381 235.037 91.5569 234.49C90.845 233.252 90.9859 231.383 92.3568 229.508C92.7719 230.434 92.7844 232.241 92.7995 233.325C93.358 232.69 93.9516 232.063 94.4874 231.337C93.529 230.123 93.4963 228.998 94.6534 226.672C95.0484 227.651 95.4106 229.016 95.4282 230.108C95.9388 229.49 96.2935 228.953 96.7111 228.133C96.4671 227.55 96.5878 227.129 96.8822 226.74C97.3274 226.208 97.9588 225.723 98.5273 226.075C99.3448 226.441 98.9222 227.329 98.6606 227.942C98.4568 228.424 98.1173 228.745 97.5261 228.682C97.096 229.41 96.5174 230.251 96.0244 230.858C97.1941 231.225 98.0066 231.528 98.8065 232.306C97.0683 233.022 96.0596 232.848 95.1993 232.131C94.6434 232.861 93.8258 233.699 93.2347 234.286C94.3818 234.64 95.1289 234.972 96.0571 235.9C94.1629 236.661 92.7844 236.44 91.9417 235.544C91.3053 236.096 90.6614 236.666 90.0073 237.052C91.1192 237.609 91.9141 238.254 92.5907 239.168C90.4501 239.62 89.0339 239.032 88.4201 237.808C87.7786 238.096 87.1825 238.305 86.5561 238.445C87.1573 238.975 87.5598 239.366 87.8818 240.061C86.4178 239.979 85.5801 239.63 85.3562 238.786C85.0795 238.806 84.7726 238.997 84.4808 238.995V241.813L82.6898 241.038V238.977C82.5037 238.902 82.0635 238.804 81.8874 238.726C81.6358 239.595 80.9843 239.941 79.5958 239.956C79.8825 239.251 80.0536 238.801 80.763 238.438C80.1341 238.267 79.5052 237.936 78.8763 237.617C78.3204 238.987 77.0501 239.539 74.8063 239.015C75.4578 238.094 76.303 237.238 77.4274 236.864C76.8539 236.498 76.3181 236.144 75.7546 235.597C74.9195 236.515 73.5259 236.846 71.6041 236.068C72.3889 235.235 73.1763 234.628 74.3611 234.417C73.7674 233.779 73.214 233.057 72.6455 232.331C71.7852 233.094 70.4948 233.358 68.7365 232.622C69.5313 231.789 70.4319 230.984 71.5538 230.989C71.2092 230.477 70.8922 229.922 70.535 229.357C70.1627 229.352 69.8433 229.357 69.4534 228.853C69.0408 228.326 68.6509 227.194 69.3502 226.832C69.7703 226.461 70.7639 227.006 71.0859 227.588C71.4003 228.135 71.2796 228.471 71.1815 228.85C71.5362 229.395 71.9236 229.945 72.2808 230.449C72.0368 228.853 72.4895 227.558 72.8895 226.634C74.3057 228.609 74.034 230.283 73.2543 231.516C73.8353 232.241 74.3384 232.783 74.9145 233.358C74.7484 232.259 74.8893 230.6 75.2893 229.666C76.6124 231.435 76.791 233.335 76.1823 234.517C76.7332 235.007 77.2664 235.426 77.8098 235.775C77.4954 234.781 77.3822 233.027 77.6463 232.058C79.1329 233.551 79.6008 235.238 79.2587 236.525C79.875 236.841 80.5114 237.065 81.1302 237.225C80.8334 236.631 80.5466 235.564 80.5894 234.876C81.7063 235.594 81.9981 236.445 81.9628 237.331C82.1364 237.343 82.5942 237.549 82.7703 237.549L82.7376 235.029C81.6358 234.781 79.9781 234.116 79.4348 231.975C80.4661 232.254 81.7893 232.484 82.7376 233.348V232.04C80.5139 231.862 78.2651 230.263 77.1507 227.134C79.0902 227.472 80.9466 228.391 82.7376 229.53V228.384C80.7831 228.238 78.9443 226.428 78.1393 223.874C79.7467 224.187 81.2484 224.88 82.7351 225.934V224.473C80.9189 224.278 79.0449 222.759 78.1393 219.898C79.7467 220.222 81.2484 220.922 82.7351 221.933V220.3C80.856 220.209 79.0751 219.145 78.1393 216.226C79.7467 216.548 81.2484 217.356 82.7351 218.43V216.6C81.2585 216.43 79.8473 215.516 79.1078 212.635C80.3957 212.949 81.5327 213.501 82.7351 214.572V212.698C81.6056 212.452 80.5391 212.017 79.9731 209.809C80.7479 209.99 81.6786 210.017 82.7452 210.948L82.7225 209.829C81.8547 208.544 82.0459 207.987 82.1616 206.945C82.2421 206.024 82.5917 205.326 83.5929 205.294C84.589 205.334 84.9286 206.024 85.0292 206.945C85.1349 207.987 85.321 208.544 84.4481 209.829Z" fill="white"/>
<path d="M118.437 217.162C118.611 217.283 118.805 217.275 118.857 217.14C118.938 217.002 118.832 216.821 118.654 216.761C118.48 216.638 118.284 216.648 118.239 216.788C118.181 216.927 118.259 217.102 118.437 217.162Z" fill="#A61D38"/>
<path d="M119.358 215.177C119.511 215.33 119.7 215.35 119.773 215.283C119.886 215.16 119.843 214.974 119.698 214.869C119.534 214.731 119.35 214.71 119.267 214.781C119.169 214.899 119.2 215.089 119.358 215.177Z" fill="#A61D38"/>
<path d="M126.52 232.989C127.136 225.881 128.212 223.896 129.996 222.418L130.154 222.277L129.478 217.905L129.153 218.006C128.18 218.141 127.299 219.077 126.701 219.868L126.696 215.722L121.886 212.911L121.891 215.338C121.368 214.811 120.87 214.417 120.686 214.266C120.14 213.88 119.677 213.696 119.177 213.696C118.893 213.696 118.636 213.797 118.417 213.832C118.04 213.9 117.756 214.018 117.205 213.787C114.785 213.285 112.916 213.827 111.862 215.288C110.898 216.633 110.735 218.774 111.464 220.804C112.048 222.456 113.152 224.13 113.995 225.302C114.453 225.924 118.676 230.406 119.672 231.378C120.379 232.095 121.136 232.808 121.904 233.516V235.383L120.668 234.53L119.481 237.353L119.725 237.522C120.804 238.149 121.868 239.908 122.59 248.898C119.957 249.842 116.448 252.959 116.365 256.209C116.304 257.695 117.014 259.813 120.709 261.254C121.514 261.577 122.382 261.926 123.222 262.278C123.272 263.861 123.322 265.646 123.358 267.503C122.678 267.787 121.169 268.567 120.892 269.744C120.666 270.758 121.285 271.631 122.663 272.588C122.907 272.691 123.176 272.871 123.413 272.921C123.42 273.363 123.423 273.822 123.43 274.387C122.638 274.764 122.329 274.887 121.856 275.504C121.584 275.813 121.365 276.019 121.506 276.327C121.536 276.38 121.639 276.616 121.924 276.616C122.115 276.616 122.404 276.563 122.91 276.292C123.207 276.214 123.39 276.179 123.539 276.159C123.747 276.638 124.243 276.987 124.791 276.987C125.377 276.987 125.858 276.596 125.979 275.908C125.979 275.647 125.979 275.527 125.976 275.276C126.655 275.055 127.063 274.427 127.083 273.697C127.131 272.899 126.683 272 125.959 271.516C125.956 270.806 125.954 270.108 125.948 269.408C128.401 268.951 131.017 267.413 131.246 265.272C131.4 263.939 130.703 262.089 126.655 260.513C126.396 260.446 126.155 260.262 125.926 260.2C125.923 256.887 125.928 253.9 125.943 251.109C130.31 248.928 133.264 246.91 133.643 244.187C134.021 241.389 131.666 238.066 126.52 232.989ZM119.147 214.633C119.255 214.537 119.579 214.542 119.798 214.738C119.916 214.808 119.989 214.969 120.004 215.117C120.009 215.202 119.964 215.315 119.906 215.363C119.848 215.468 119.738 215.496 119.645 215.496C119.501 215.496 119.35 215.448 119.222 215.32C119.124 215.192 119.031 215.084 119.028 214.929C119.028 214.801 119.076 214.738 119.147 214.633ZM118.075 216.733C118.193 216.538 118.475 216.447 118.754 216.595C119.001 216.748 119.129 216.982 119.018 217.188C118.963 217.336 118.82 217.401 118.651 217.401C118.571 217.401 118.452 217.361 118.364 217.328C118.213 217.275 118.093 217.127 118.057 216.977C118.04 216.911 118.042 216.788 118.075 216.733ZM120.445 227.307C113.864 221.339 113.59 218.618 114.015 217.529C114.397 216.56 115.537 216.261 116.176 216.261C116.337 216.261 116.45 216.277 116.536 216.317C116.744 216.377 116.749 216.405 116.807 216.645C116.923 217.1 117.076 217.707 118.334 218.139C119.894 218.631 121.046 218.934 121.896 218.962L121.904 228.627C121.395 228.148 120.968 227.744 120.445 227.307ZM128.3 265.39C128.293 265.698 127.931 266.306 125.938 266.84C125.936 265.693 125.933 264.562 125.931 263.457C127.327 264.167 128.318 264.875 128.3 265.39ZM125.994 216.166V219L124.266 218.57L123.468 218.181C123.569 217.559 123.151 216.814 122.583 216.126V214.096L125.994 216.166ZM119.7 256.277C119.584 255.459 120.558 254.342 122.837 252.6C122.958 254.455 123.038 256.596 123.136 259.033C121.149 258.051 119.808 257.228 119.7 256.277ZM123.936 262.486C124.399 262.732 124.827 262.862 125.232 263.108C125.234 264.333 125.237 265.696 125.242 267.094L125.232 267.099V269.619L125.257 269.614C125.257 270.08 125.259 270.53 125.262 271.114C124.922 270.899 124.271 270.512 124.1 270.035C124.059 267.252 123.989 264.86 123.936 262.486ZM124.794 276.275C124.58 276.275 124.301 276.197 124.155 275.868L124.15 275.805C124.142 274.829 124.137 273.991 124.13 273.044C124.859 273.275 125.272 273.373 125.259 274.382V275.587L125.315 275.582C125.315 275.635 125.315 275.808 125.315 275.86C125.211 276.257 124.874 276.275 124.794 276.275ZM125.219 259.888C124.736 259.755 124.281 259.502 123.846 259.369C123.176 240.039 121.685 237.953 120.357 237.055L120.993 235.594L122.613 236.688L122.608 234.123C122.892 234.422 123.197 234.665 123.503 234.959C124.213 235.569 124.895 236.171 125.574 236.826C125.325 242.137 125.209 249.483 125.219 259.888ZM125.888 232.331C124.874 231.383 123.773 230.329 122.605 229.234L122.593 218.942C122.819 218.912 122.985 218.791 123.119 218.713L123.908 219.1L124.947 220.741L125.252 220.618L125.196 219.557L126.001 219.384V221.098L126.67 221.203C127.03 220.485 127.981 219.168 128.904 218.771L129.412 222.029C127.596 223.557 126.492 225.565 125.888 232.331ZM125.971 247.465C126.042 243.475 126.125 240.187 126.258 237.431C128.612 239.725 130.335 241.808 130.014 243.748C129.792 245.101 128.446 246.343 125.971 247.465Z" fill="white"/>
<path d="M94.7163 261.246L94.7088 252.261H78.8588V268.161H83.7489V277.032H99.609V261.244L94.7163 261.246ZM90.0325 254.329H92.631V260.937H90.0325V254.329ZM92.6838 268.163V270.123H90.6639V268.163H92.6838ZM81.2359 254.329H87.8642V256.917H81.2359V254.329ZM83.7463 266.095H81.1428V259.492H83.7463V266.095ZM85.7713 259.178H87.7837V261.246H85.7713V259.178ZM85.9952 263.52H92.6285V266.092H85.9952V263.52ZM88.6465 274.771H86.0581V268.163H88.6465V274.771ZM97.2318 274.721H90.601V272.143H97.2293L97.2318 274.721ZM97.3224 270.075H94.7038V263.467H97.3174V270.075H97.3224Z" fill="white"/>
<path d="M241.042 253.928C231.511 253.928 230.776 246.695 230.776 244.486C230.776 241.899 231.488 237.245 237.55 235.029C243.804 232.748 245.187 232.472 249.466 231.142V230.037C249.466 227.917 249.466 227.395 249.069 226.11C248.208 223.663 245.826 222.079 242.629 222.079C237.87 222.079 235.898 225.711 235.888 225.736L235.513 226.449L233.727 225.387L233.905 224.842C234.783 222.112 238.245 217.491 245.781 217.491C250.696 217.491 253.868 218.892 255.798 221.878C257.39 224.258 257.468 227.54 257.468 230.991C257.468 233.973 257.415 237.371 257.257 240.091C257.221 241.944 257.204 243.57 257.204 244.529C257.204 247.036 257.586 248.926 259.699 248.926C260.167 248.926 260.519 248.851 260.829 248.569L261.452 248.125L262.592 249.433L262.215 249.942C260.333 252.206 258.514 253.878 255.262 253.878C252.422 253.878 250.518 252.522 249.838 250.306C248.317 251.872 245.459 253.928 241.042 253.928ZM249.471 235.433C244.76 236.854 243.21 237.619 241.759 238.35C239.741 239.394 238.677 241.442 238.677 243.906C238.677 245.784 239.374 248.938 243.945 248.938C245.439 248.938 247.607 248.695 249.474 247.37L249.471 235.433Z" fill="#8C191C"/>
<path d="M182.801 253.87C178.233 253.87 174.759 253.305 171.164 252.166L170.646 252.043V249.44C170.646 246.022 170.586 244.702 170.528 243.62L170.41 241.893L172.477 241.896L172.555 242.629C172.618 244.175 173.154 245.758 174.112 246.85C175.637 248.524 179.053 249.568 182.28 249.568C188.994 249.568 192.118 247.031 192.118 241.58C192.118 236.897 189.228 234.994 185.231 232.294L184.597 231.887L180.389 229.051C174.548 225.194 171.542 222.097 171.542 215.905C171.542 212.916 172.714 203.045 187.439 203.045C193.487 203.045 198.183 203.818 198.374 203.838L198.98 203.969L198.965 204.569C198.965 204.584 198.93 206.529 198.93 208.587C198.93 210.226 198.91 211.661 198.95 213.132L198.993 214.231H197.24L197.159 213.528C197.066 211.674 196.515 210.354 195.471 209.299C194.038 207.871 190.911 207.241 187.598 207.241C179.767 207.241 178.857 211.252 178.857 214.229C178.857 218.385 181.002 219.745 185.623 222.817L190.949 226.338C195.499 229.37 199.806 232.244 199.806 239.745C199.801 252.477 187.915 253.87 182.801 253.87Z" fill="#8C191C"/>
<path d="M217.746 254.031C212.29 254.031 209.244 252.126 207.926 247.776C207.375 246.022 207.375 242.661 207.375 240.636C207.375 235.012 207.41 230.494 207.508 225.317L207.528 222.837H202.854V221.494L203.332 221.309C205.506 220.41 206.301 219.823 207.249 219.09C210.655 216.432 213.014 212.022 213.04 211.98L213.812 210.602H215.381V218.525H227.335V222.839H215.381V241.261C215.381 246.757 216.373 249.942 221.627 249.942C224.037 249.942 225.891 249.014 225.901 248.948L226.628 248.577L227.282 250.018L226.96 250.369C226.807 250.472 224.135 254.031 217.746 254.031Z" fill="#8C191C"/>
<path d="M265.575 253.614V251.897L266.267 251.862C266.906 251.825 268.39 251.564 269.328 250.402C270.42 249.229 270.581 246.2 270.581 240.27V230.243C270.581 225.904 270.42 224.069 269.874 223.133C269.152 222.087 267.482 221.999 266.677 221.908C266.604 221.906 266.421 221.896 266.358 221.893L265.671 221.843V219.835L266.561 219.878C266.659 219.891 266.778 219.891 267.047 219.891C268.139 219.891 270.702 219.732 273.366 219.205C275.469 218.919 276.643 218.201 277.174 218.006L277.562 217.82L278.268 218.214V220.987C279.949 219.682 283.546 217.642 288.366 217.642C294.788 217.642 298.89 220.588 300.045 225.924C300.395 227.294 300.596 230.487 300.596 232.241V242.471C300.596 248.278 300.749 249.849 301.838 250.939C302.442 251.41 303.587 251.809 304.623 251.857L305.229 251.892V253.584L303.562 253.516C301.021 253.323 298.84 253.245 296.591 253.245C294.008 253.245 291.653 253.245 288.582 253.551L287.792 253.614V251.937L288.343 251.875C289.739 251.712 290.735 251.335 291.266 250.708C292.39 249.581 292.549 246.87 292.607 244.526C292.617 244.147 292.627 243.753 292.642 243.291C292.692 241.989 292.692 239.241 292.692 237.225C292.692 234.623 292.692 231.9 292.383 229.204C291.907 224.659 289.48 222.583 284.96 222.583C281.77 222.583 279.846 223.301 278.372 224.054V242.476C278.372 248.283 278.646 249.854 279.737 250.944C280.233 251.415 281.362 251.815 282.409 251.862L283.111 251.897V253.589L281.259 253.521C278.779 253.323 276.641 253.25 274.43 253.25C271.874 253.25 269.555 253.25 266.358 253.556L265.575 253.614Z" fill="#8C191C"/>
<path d="M309.463 253.614V251.872L310.16 251.835C310.685 251.804 312.255 251.531 313.221 250.384C314.318 249.209 314.355 246.2 314.355 240.267V222.839H309.83V220.917L310.263 220.699C312.318 219.875 313.503 219.198 314.358 218.545C314.386 215.436 314.539 211.43 314.947 209.242C316.363 201.983 321.112 198.317 329.011 198.317C332.497 198.317 335.772 199.441 337.646 200.962L337.951 201.218L338.019 201.958L334.477 206.77L333.667 206.775L333.536 206.36C332.168 203.402 330.256 202.202 327.519 202.202C326.417 202.202 324.926 202.543 324.055 203.467C322.541 204.97 322.257 207.261 322.257 211.704V218.523H330.045V222.837H322.257V242.315C322.257 246.923 322.36 249.219 323.009 250.07C324.03 251.541 326.998 251.722 327.833 251.722H328.576V253.589L327.808 253.549C323.992 253.303 321.107 253.243 318.989 253.243C316.396 253.243 313.437 253.243 310.248 253.549L309.463 253.614Z" fill="#8C191C"/>
<path d="M349.866 254.236C339.158 254.236 332.812 247.548 332.812 236.332C332.812 227.693 337.4 217.531 350.626 217.531C361.41 217.531 367.762 224.227 367.762 235.381C367.762 244.087 363.153 254.236 349.866 254.236ZM350.387 221.575C348.277 221.575 346.554 222.112 345.369 223.183C342.504 225.548 341.072 229.879 341.072 235.963C341.072 238.33 341.586 250.108 350.178 250.108C352.286 250.108 353.994 249.606 355.214 248.539C358.059 246.175 359.468 241.909 359.468 235.757C359.468 233.388 358.973 221.575 350.387 221.575Z" fill="#8C191C"/>
<path d="M371.228 253.614V251.822L371.849 251.784C372.463 251.752 373.952 251.481 375.004 250.326C376.101 249.096 376.128 246.198 376.128 240.27V230.241C376.128 225.901 376.088 224.067 375.436 223.131C374.709 222.082 373.167 221.984 372.342 221.903C372.166 221.901 372.096 221.891 372.048 221.888L371.346 221.838V219.697L372.098 219.707C372.204 219.715 372.458 219.717 372.712 219.717C373.809 219.717 376.372 219.592 379.031 219.092C380.774 218.781 382.248 218.367 382.769 218.058L383.189 217.878L383.821 218.214V221.281C385.546 219.675 388.187 218.006 391.935 218.006C394.418 218.006 396.4 218.626 397.834 219.918L398.086 220.187V221.288L395.133 226.659H393.699L393.518 226.31C392.637 225.025 391.047 223.512 387.823 223.512C386.359 223.512 385.139 223.879 384.017 224.621V242.305C384.017 246.913 384.142 249.101 384.776 250.007C385.7 251.476 388.678 251.569 389.611 251.569H390.348V253.574L389.581 253.539C385.669 253.293 382.767 253.227 380.759 253.227C378.136 253.227 375.119 253.227 372.03 253.539L371.228 253.614Z" fill="#8C191C"/>
<path d="M426.518 254.061L425.535 253.727V250.786C423.779 252.131 420.358 254.076 415.694 254.076C406.077 254.076 399.834 247.427 399.834 237.065C399.834 233.672 400.528 230.414 401.736 227.666C404.674 221.293 410.824 217.644 418.532 217.644C421.384 217.644 423.915 218.001 425.424 218.274V210.84C425.424 206.483 425.369 204.149 424.73 203.213C424.008 202.177 422.486 202.034 421.595 201.991C421.507 201.989 421.439 201.984 421.374 201.976L420.695 201.923L420.803 200.335H421.545C421.764 200.335 425.824 199.991 429.127 199.353C430.528 199.105 431.843 198.826 432.558 198.54L432.908 198.4L433.541 198.756L433.519 199.107C433.25 202.004 433.224 208.195 433.224 212.806V241.427C433.224 245.733 433.275 248.351 433.919 249.222C434.646 250.269 436.163 250.402 436.988 250.447C437.144 250.447 437.222 250.452 437.277 250.474L437.959 250.58V252.455H437.229C436.457 252.455 433.375 252.61 430.379 253.18C428.724 253.371 427.409 253.662 426.848 253.97L426.518 254.061ZM418.373 221.843C411.541 221.843 408.2 226.486 408.2 236.121C408.2 239.999 409.307 249.089 419.52 249.089H419.817C421.072 249.089 423.351 248.901 425.424 247.646V224.197C424.808 223.577 422.662 221.843 418.373 221.843Z" fill="#8C191C"/>
<path d="M174.117 268.908H179.883L185.175 283.247L187.07 288.766H187.251L189.125 283.247L194.347 268.908H200.06V298.124H195.175V284.722C195.175 282.052 195.607 278.124 195.851 275.476H195.67L193.293 282.11L188.259 295.336H185.809L180.783 282.11L178.437 275.476H178.25C178.497 278.124 178.935 282.044 178.935 284.722V298.124H174.117V268.908Z" fill="#231F20"/>
<path d="M218.724 268.908H236.408V273.29H223.924V280.697H234.456V285.074H223.924V293.745H236.831V298.117H218.724V268.908Z" fill="#231F20"/>
<path d="M254.105 268.908H261.898C270.8 268.908 276.155 273.712 276.155 283.309C276.155 293.055 270.8 298.122 262.197 298.122H254.105V268.908ZM261.538 293.863C267.429 293.863 270.77 290.535 270.77 283.304C270.77 276.227 267.429 273.055 261.538 273.055H259.284V293.863H261.538Z" fill="#231F20"/>
<path d="M293.306 268.908H298.485V298.124H293.306V268.908Z" fill="#231F20"/>
<path d="M329.164 268.311C332.623 268.311 335.576 270.085 337.41 272.008L334.537 275.248C333.015 273.777 331.418 272.904 329.192 272.904C324.382 272.904 320.893 276.925 320.893 283.488C320.893 290.116 324.083 294.139 328.955 294.139C331.544 294.139 333.518 293.055 335.121 291.228L338.034 294.438C335.714 297.113 332.56 298.609 328.895 298.609C321.462 298.609 315.631 293.326 315.631 283.58C315.636 274.041 321.59 268.311 329.164 268.311Z" fill="#231F20"/>
<path d="M354.138 268.908H359.312V298.124H354.138V268.908Z" fill="#231F20"/>
<path d="M377.972 268.908H383.353L392.491 285.35L395.48 291.556H395.61C395.442 288.585 395.002 284.788 395.002 281.625V268.916H399.932V298.127H394.65L385.506 281.696L382.437 275.484H382.301C382.55 278.513 382.99 282.082 382.99 285.352V298.127H377.972V268.908Z" fill="#231F20"/>
<path d="M418.582 268.908H436.218V273.29H423.761V280.697H434.309V285.074H423.761V293.745H436.721V298.117H418.582V268.908Z" fill="#231F20"/>
</svg>
