<svg width="500" height="400" viewBox="0 0 500 400" fill="none" xmlns="http://www.w3.org/2000/svg">
<path d="M64.3923 227.987H104.718V186.129H67.2322C65.3305 190.559 61.0416 208.022 64.3923 227.987Z" fill="#8C191C"/>
<path d="M143.18 186.129H105.714V279.118V283.931C108.499 282.413 111.08 280.736 113.507 279.118C158.625 247.977 146.769 194.404 143.18 186.129Z" fill="#8C191C"/>
<path d="M96.9199 279.118C99.3624 280.736 101.946 282.41 104.718 283.931V279.118V229.016H64.5708C67.617 246.079 76.3558 264.958 96.9199 279.118Z" fill="#8C191C"/>
<path d="M104.718 186.129V227.987H64.3922C64.445 228.328 64.4979 228.674 64.5708 229.016H104.718V279.118V283.931C104.889 283.994 105.05 284.064 105.218 284.24C105.392 284.064 105.548 283.994 105.714 283.931V279.118V186.129H104.718Z" fill="white"/>
<path d="M84.4481 193.829L84.4758 194.966C85.2632 194.364 86.3951 193.852 87.3007 193.666C86.7951 195.894 85.6908 196.489 84.4884 196.708L84.4381 198.577C85.4418 197.807 86.9133 196.738 88.0402 196.522C87.3887 199.34 86.0228 200.392 84.4909 200.598V202.447C85.7059 201.677 87.6428 200.274 89.0489 200.058C88.244 202.957 86.4354 204.084 84.501 204.267L84.5085 206.014C85.7159 205.183 87.6428 203.998 89.0364 203.727C88.2641 206.563 86.38 208.24 84.5135 208.476V209.926C85.726 209.164 87.6428 207.914 89.0364 207.703C88.2943 210.627 86.4328 212.228 84.4884 212.399V213.563C85.9599 212.682 88.3698 211.186 90.0526 210.96C89.0892 214.09 86.8001 215.779 84.4884 215.98V217.365C85.2782 216.705 86.9309 216.068 87.8415 215.892C87.351 217.983 85.638 218.778 84.4834 219.029L84.4783 221.572C84.755 221.567 85.0015 221.534 85.2933 221.514C85.2103 220.623 85.721 219.717 86.8756 218.989C86.9259 219.622 86.546 220.641 86.3146 221.268C86.941 221.173 87.5422 220.997 88.161 220.706C87.834 219.426 88.2566 217.704 89.7281 216.211C90.0224 217.19 89.7432 218.813 89.6275 219.893C90.269 219.509 90.9381 219.037 91.5569 218.49C90.845 217.252 90.9859 215.383 92.3568 213.508C92.7719 214.434 92.7844 216.241 92.7995 217.325C93.358 216.69 93.9516 216.063 94.4874 215.337C93.529 214.123 93.4963 212.998 94.6534 210.672C95.0484 211.651 95.4106 213.016 95.4282 214.108C95.9388 213.49 96.2935 212.953 96.7111 212.133C96.4671 211.55 96.5878 211.129 96.8822 210.74C97.3274 210.208 97.9588 209.723 98.5273 210.075C99.3448 210.441 98.9222 211.329 98.6606 211.942C98.4568 212.424 98.1173 212.745 97.5261 212.682C97.096 213.41 96.5174 214.251 96.0244 214.858C97.1941 215.225 98.0066 215.528 98.8065 216.306C97.0683 217.022 96.0596 216.848 95.1993 216.131C94.6434 216.861 93.8258 217.699 93.2347 218.286C94.3818 218.64 95.1289 218.972 96.0571 219.9C94.1629 220.661 92.7844 220.44 91.9417 219.544C91.3053 220.096 90.6614 220.666 90.0073 221.052C91.1192 221.609 91.9141 222.254 92.5907 223.168C90.4501 223.62 89.0339 223.032 88.4201 221.808C87.7786 222.096 87.1825 222.305 86.5561 222.445C87.1573 222.975 87.5598 223.366 87.8818 224.061C86.4178 223.979 85.5801 223.63 85.3562 222.786C85.0795 222.806 84.7726 222.997 84.4808 222.995V225.813L82.6898 225.038V222.977C82.5037 222.902 82.0635 222.804 81.8874 222.726C81.6358 223.595 80.9843 223.941 79.5958 223.956C79.8825 223.251 80.0536 222.801 80.763 222.438C80.1341 222.267 79.5052 221.936 78.8763 221.617C78.3204 222.987 77.0501 223.539 74.8063 223.015C75.4578 222.094 76.303 221.238 77.4274 220.864C76.8539 220.498 76.3181 220.144 75.7546 219.597C74.9195 220.515 73.5259 220.846 71.6041 220.068C72.3889 219.235 73.1763 218.628 74.3611 218.417C73.7674 217.779 73.214 217.057 72.6455 216.331C71.7852 217.094 70.4948 217.358 68.7365 216.622C69.5313 215.789 70.4319 214.984 71.5538 214.989C71.2092 214.477 70.8922 213.922 70.535 213.357C70.1627 213.352 69.8433 213.357 69.4534 212.853C69.0408 212.326 68.6509 211.194 69.3502 210.832C69.7703 210.461 70.7639 211.006 71.0859 211.588C71.4003 212.135 71.2796 212.471 71.1815 212.85C71.5362 213.395 71.9236 213.945 72.2808 214.449C72.0368 212.853 72.4895 211.558 72.8895 210.634C74.3057 212.609 74.034 214.283 73.2543 215.516C73.8353 216.241 74.3384 216.783 74.9145 217.358C74.7484 216.259 74.8893 214.6 75.2893 213.666C76.6124 215.435 76.791 217.335 76.1823 218.517C76.7332 219.007 77.2664 219.426 77.8098 219.775C77.4954 218.781 77.3822 217.027 77.6463 216.058C79.1329 217.551 79.6008 219.238 79.2587 220.525C79.875 220.841 80.5114 221.065 81.1302 221.225C80.8334 220.631 80.5466 219.564 80.5894 218.876C81.7063 219.594 81.9981 220.445 81.9628 221.331C82.1364 221.343 82.5942 221.549 82.7703 221.549L82.7376 219.029C81.6358 218.781 79.9781 218.116 79.4348 215.975C80.4661 216.254 81.7893 216.484 82.7376 217.348V216.04C80.5139 215.862 78.2651 214.263 77.1507 211.134C79.0902 211.472 80.9466 212.391 82.7376 213.53V212.384C80.7831 212.238 78.9443 210.428 78.1393 207.874C79.7467 208.187 81.2484 208.88 82.7351 209.934V208.473C80.9189 208.278 79.0449 206.759 78.1393 203.898C79.7467 204.222 81.2484 204.922 82.7351 205.933V204.3C80.856 204.209 79.0751 203.145 78.1393 200.226C79.7467 200.548 81.2484 201.356 82.7351 202.43V200.6C81.2585 200.43 79.8473 199.516 79.1078 196.635C80.3957 196.949 81.5327 197.501 82.7351 198.572V196.698C81.6056 196.452 80.5391 196.017 79.9731 193.809C80.7479 193.99 81.6786 194.017 82.7452 194.948L82.7225 193.829C81.8547 192.544 82.0459 191.987 82.1616 190.945C82.2421 190.024 82.5917 189.326 83.5929 189.294C84.589 189.334 84.9286 190.024 85.0292 190.945C85.1349 191.987 85.321 192.544 84.4481 193.829Z" fill="white"/>
<path d="M118.437 201.162C118.611 201.283 118.805 201.275 118.857 201.14C118.938 201.002 118.832 200.821 118.654 200.761C118.48 200.638 118.284 200.648 118.239 200.788C118.181 200.927 118.259 201.102 118.437 201.162Z" fill="#A61D38"/>
<path d="M119.358 199.177C119.511 199.33 119.7 199.35 119.773 199.283C119.886 199.16 119.843 198.974 119.698 198.869C119.534 198.731 119.35 198.71 119.267 198.781C119.169 198.899 119.2 199.089 119.358 199.177Z" fill="#A61D38"/>
<path d="M126.52 216.989C127.136 209.881 128.212 207.896 129.996 206.418L130.154 206.277L129.478 201.905L129.153 202.006C128.18 202.141 127.299 203.077 126.701 203.868L126.696 199.722L121.886 196.911L121.891 199.338C121.368 198.811 120.87 198.417 120.686 198.266C120.14 197.88 119.677 197.696 119.177 197.696C118.893 197.696 118.636 197.797 118.417 197.832C118.04 197.9 117.756 198.018 117.205 197.787C114.785 197.285 112.916 197.827 111.862 199.288C110.898 200.633 110.735 202.774 111.464 204.804C112.048 206.456 113.152 208.13 113.995 209.302C114.453 209.924 118.676 214.406 119.672 215.378C120.379 216.095 121.136 216.808 121.904 217.516V219.383L120.668 218.53L119.481 221.353L119.725 221.522C120.804 222.149 121.868 223.908 122.59 232.898C119.957 233.842 116.448 236.959 116.365 240.209C116.304 241.695 117.014 243.813 120.709 245.254C121.514 245.577 122.382 245.926 123.222 246.278C123.272 247.861 123.322 249.646 123.358 251.503C122.678 251.787 121.169 252.567 120.892 253.744C120.666 254.758 121.285 255.631 122.663 256.588C122.907 256.691 123.176 256.871 123.413 256.921C123.42 257.363 123.423 257.822 123.43 258.387C122.638 258.764 122.329 258.887 121.856 259.504C121.584 259.813 121.365 260.019 121.506 260.327C121.536 260.38 121.639 260.616 121.924 260.616C122.115 260.616 122.404 260.563 122.91 260.292C123.207 260.214 123.39 260.179 123.539 260.159C123.747 260.638 124.243 260.987 124.791 260.987C125.377 260.987 125.858 260.596 125.979 259.908C125.979 259.647 125.979 259.527 125.976 259.276C126.655 259.055 127.063 258.427 127.083 257.697C127.131 256.899 126.683 256 125.959 255.516C125.956 254.806 125.954 254.108 125.948 253.408C128.401 252.951 131.017 251.413 131.246 249.272C131.4 247.939 130.703 246.089 126.655 244.513C126.396 244.446 126.155 244.262 125.926 244.2C125.923 240.887 125.928 237.9 125.943 235.109C130.31 232.928 133.264 230.91 133.643 228.187C134.021 225.389 131.666 222.066 126.52 216.989ZM119.147 198.633C119.255 198.537 119.579 198.542 119.798 198.738C119.916 198.808 119.989 198.969 120.004 199.117C120.009 199.202 119.964 199.315 119.906 199.363C119.848 199.468 119.738 199.496 119.645 199.496C119.501 199.496 119.35 199.448 119.222 199.32C119.124 199.192 119.031 199.084 119.028 198.929C119.028 198.801 119.076 198.738 119.147 198.633ZM118.075 200.733C118.193 200.538 118.475 200.447 118.754 200.595C119.001 200.748 119.129 200.982 119.018 201.188C118.963 201.336 118.82 201.401 118.651 201.401C118.571 201.401 118.452 201.361 118.364 201.328C118.213 201.275 118.093 201.127 118.057 200.977C118.04 200.911 118.042 200.788 118.075 200.733ZM120.445 211.307C113.864 205.339 113.59 202.618 114.015 201.529C114.397 200.56 115.537 200.261 116.176 200.261C116.337 200.261 116.45 200.277 116.536 200.317C116.744 200.377 116.749 200.405 116.807 200.645C116.923 201.1 117.076 201.707 118.334 202.139C119.894 202.631 121.046 202.934 121.896 202.962L121.904 212.627C121.395 212.148 120.968 211.744 120.445 211.307ZM128.3 249.39C128.293 249.698 127.931 250.306 125.938 250.84C125.936 249.693 125.933 248.562 125.931 247.457C127.327 248.167 128.318 248.875 128.3 249.39ZM125.994 200.166V203L124.266 202.57L123.468 202.181C123.569 201.559 123.151 200.814 122.583 200.126V198.096L125.994 200.166ZM119.7 240.277C119.584 239.459 120.558 238.342 122.837 236.6C122.958 238.455 123.038 240.596 123.136 243.033C121.149 242.051 119.808 241.228 119.7 240.277ZM123.936 246.486C124.399 246.732 124.827 246.862 125.232 247.108C125.234 248.333 125.237 249.696 125.242 251.094L125.232 251.099V253.619L125.257 253.614C125.257 254.08 125.259 254.53 125.262 255.114C124.922 254.899 124.271 254.512 124.1 254.035C124.059 251.252 123.989 248.86 123.936 246.486ZM124.794 260.275C124.58 260.275 124.301 260.197 124.155 259.868L124.15 259.805C124.142 258.829 124.137 257.991 124.13 257.044C124.859 257.275 125.272 257.373 125.259 258.382V259.587L125.315 259.582C125.315 259.635 125.315 259.808 125.315 259.86C125.211 260.257 124.874 260.275 124.794 260.275ZM125.219 243.888C124.736 243.755 124.281 243.502 123.846 243.369C123.176 224.039 121.685 221.953 120.357 221.055L120.993 219.594L122.613 220.688L122.608 218.123C122.892 218.422 123.197 218.665 123.503 218.959C124.213 219.569 124.895 220.171 125.574 220.826C125.325 226.137 125.209 233.483 125.219 243.888ZM125.888 216.331C124.874 215.383 123.773 214.329 122.605 213.234L122.593 202.942C122.819 202.912 122.985 202.791 123.119 202.713L123.908 203.1L124.947 204.741L125.252 204.618L125.196 203.557L126.001 203.384V205.098L126.67 205.203C127.03 204.485 127.981 203.168 128.904 202.771L129.412 206.029C127.596 207.557 126.492 209.565 125.888 216.331ZM125.971 231.465C126.042 227.475 126.125 224.187 126.258 221.431C128.612 223.725 130.335 225.808 130.014 227.748C129.792 229.101 128.446 230.343 125.971 231.465Z" fill="white"/>
<path d="M94.7163 245.246L94.7088 236.261H78.8588V252.161H83.7489V261.032H99.609V245.244L94.7163 245.246ZM90.0325 238.329H92.631V244.937H90.0325V238.329ZM92.6838 252.163V254.123H90.6639V252.163H92.6838ZM81.2359 238.329H87.8642V240.917H81.2359V238.329ZM83.7463 250.095H81.1428V243.492H83.7463V250.095ZM85.7713 243.178H87.7837V245.246H85.7713V243.178ZM85.9952 247.52H92.6285V250.092H85.9952V247.52ZM88.6465 258.771H86.0581V252.163H88.6465V258.771ZM97.2318 258.721H90.601V256.143H97.2293L97.2318 258.721ZM97.3224 254.075H94.7038V247.467H97.3174V254.075H97.3224Z" fill="white"/>
<path d="M241.042 237.928C231.511 237.928 230.776 230.695 230.776 228.486C230.776 225.899 231.488 221.245 237.55 219.029C243.804 216.748 245.187 216.472 249.466 215.142V214.037C249.466 211.917 249.466 211.395 249.069 210.11C248.208 207.663 245.826 206.079 242.629 206.079C237.87 206.079 235.898 209.711 235.888 209.736L235.513 210.449L233.727 209.387L233.905 208.842C234.783 206.112 238.245 201.491 245.781 201.491C250.696 201.491 253.868 202.892 255.798 205.878C257.39 208.258 257.468 211.54 257.468 214.991C257.468 217.973 257.415 221.371 257.257 224.092C257.221 225.944 257.204 227.57 257.204 228.529C257.204 231.036 257.586 232.926 259.699 232.926C260.167 232.926 260.519 232.851 260.829 232.569L261.452 232.125L262.592 233.433L262.215 233.942C260.333 236.206 258.514 237.878 255.262 237.878C252.422 237.878 250.518 236.522 249.838 234.306C248.317 235.872 245.459 237.928 241.042 237.928ZM249.471 219.433C244.76 220.854 243.21 221.619 241.759 222.35C239.741 223.394 238.677 225.442 238.677 227.906C238.677 229.784 239.374 232.938 243.945 232.938C245.439 232.938 247.607 232.695 249.474 231.37L249.471 219.433Z" fill="#8C191C"/>
<path d="M182.801 237.87C178.233 237.87 174.759 237.305 171.164 236.166L170.646 236.043V233.44C170.646 230.022 170.586 228.702 170.528 227.62L170.41 225.894L172.477 225.896L172.555 226.629C172.618 228.175 173.154 229.759 174.112 230.85C175.637 232.524 179.053 233.568 182.28 233.568C188.994 233.568 192.118 231.031 192.118 225.58C192.118 220.897 189.228 218.994 185.231 216.294L184.597 215.887L180.389 213.051C174.548 209.194 171.542 206.097 171.542 199.905C171.542 196.916 172.714 187.045 187.439 187.045C193.487 187.045 198.183 187.818 198.374 187.838L198.98 187.969L198.965 188.569C198.965 188.584 198.93 190.529 198.93 192.587C198.93 194.226 198.91 195.661 198.95 197.132L198.993 198.231H197.24L197.159 197.528C197.066 195.674 196.515 194.354 195.471 193.299C194.038 191.871 190.911 191.241 187.598 191.241C179.767 191.241 178.857 195.252 178.857 198.229C178.857 202.385 181.002 203.745 185.623 206.817L190.949 210.338C195.499 213.37 199.806 216.244 199.806 223.745C199.801 236.477 187.915 237.87 182.801 237.87Z" fill="#8C191C"/>
<path d="M217.746 238.031C212.29 238.031 209.244 236.126 207.926 231.776C207.375 230.022 207.375 226.661 207.375 224.636C207.375 219.012 207.41 214.494 207.508 209.317L207.528 206.837H202.854V205.494L203.332 205.309C205.506 204.41 206.301 203.823 207.249 203.09C210.655 200.432 213.014 196.023 213.04 195.98L213.812 194.602H215.381V202.525H227.335V206.84H215.381V225.261C215.381 230.757 216.373 233.942 221.627 233.942C224.037 233.942 225.891 233.014 225.901 232.948L226.628 232.577L227.282 234.018L226.96 234.369C226.807 234.472 224.135 238.031 217.746 238.031Z" fill="#8C191C"/>
<path d="M265.575 237.614V235.897L266.267 235.862C266.906 235.825 268.39 235.564 269.328 234.402C270.42 233.229 270.581 230.2 270.581 224.27V214.243C270.581 209.904 270.42 208.069 269.874 207.133C269.152 206.087 267.482 205.999 266.677 205.908C266.604 205.906 266.421 205.896 266.358 205.893L265.671 205.843V203.835L266.561 203.878C266.659 203.891 266.778 203.891 267.047 203.891C268.139 203.891 270.702 203.732 273.366 203.205C275.469 202.919 276.643 202.201 277.174 202.006L277.562 201.82L278.268 202.214V204.987C279.949 203.682 283.546 201.642 288.366 201.642C294.788 201.642 298.89 204.588 300.045 209.924C300.395 211.294 300.596 214.487 300.596 216.241V226.471C300.596 232.278 300.749 233.849 301.838 234.939C302.442 235.41 303.587 235.81 304.623 235.857L305.229 235.892V237.584L303.562 237.516C301.021 237.323 298.84 237.245 296.591 237.245C294.008 237.245 291.653 237.245 288.582 237.551L287.792 237.614V235.938L288.343 235.875C289.739 235.712 290.735 235.335 291.266 234.708C292.39 233.581 292.549 230.87 292.607 228.526C292.617 228.147 292.627 227.753 292.642 227.291C292.692 225.989 292.692 223.241 292.692 221.225C292.692 218.623 292.692 215.9 292.383 213.204C291.907 208.659 289.48 206.584 284.96 206.584C281.77 206.584 279.846 207.301 278.372 208.054V226.476C278.372 232.283 278.646 233.854 279.737 234.944C280.233 235.415 281.362 235.815 282.409 235.862L283.111 235.897V237.589L281.259 237.521C278.779 237.323 276.641 237.25 274.43 237.25C271.874 237.25 269.555 237.25 266.358 237.556L265.575 237.614Z" fill="#8C191C"/>
<path d="M309.463 237.614V235.872L310.16 235.835C310.685 235.804 312.255 235.531 313.221 234.384C314.318 233.209 314.355 230.2 314.355 224.267V206.84H309.83V204.917L310.263 204.699C312.318 203.875 313.503 203.198 314.358 202.545C314.386 199.436 314.539 195.43 314.947 193.242C316.363 185.984 321.112 182.317 329.011 182.317C332.497 182.317 335.772 183.441 337.646 184.962L337.951 185.218L338.019 185.958L334.477 190.77L333.667 190.775L333.536 190.361C332.168 187.402 330.256 186.202 327.519 186.202C326.417 186.202 324.926 186.543 324.055 187.467C322.541 188.97 322.257 191.262 322.257 195.704V202.523H330.045V206.837H322.257V226.315C322.257 230.923 322.36 233.219 323.009 234.07C324.03 235.541 326.998 235.722 327.833 235.722H328.576V237.589L327.808 237.549C323.992 237.303 321.107 237.243 318.989 237.243C316.396 237.243 313.437 237.243 310.248 237.549L309.463 237.614Z" fill="#8C191C"/>
<path d="M349.866 238.236C339.158 238.236 332.812 231.548 332.812 220.332C332.812 211.693 337.4 201.531 350.626 201.531C361.41 201.531 367.762 208.227 367.762 219.381C367.762 228.087 363.153 238.236 349.866 238.236ZM350.387 205.575C348.277 205.575 346.554 206.112 345.369 207.183C342.504 209.548 341.072 213.879 341.072 219.963C341.072 222.33 341.586 234.108 350.178 234.108C352.286 234.108 353.994 233.606 355.214 232.539C358.059 230.175 359.468 225.909 359.468 219.757C359.468 217.388 358.973 205.575 350.387 205.575Z" fill="#8C191C"/>
<path d="M371.228 237.614V235.822L371.849 235.784C372.463 235.752 373.952 235.481 375.004 234.326C376.101 233.096 376.128 230.198 376.128 224.27V214.241C376.128 209.901 376.088 208.067 375.436 207.131C374.709 206.082 373.167 205.984 372.342 205.903C372.166 205.901 372.096 205.891 372.048 205.888L371.346 205.838V203.697L372.098 203.707C372.204 203.715 372.458 203.717 372.712 203.717C373.809 203.717 376.372 203.592 379.031 203.092C380.774 202.781 382.248 202.367 382.769 202.058L383.189 201.878L383.821 202.214V205.281C385.546 203.675 388.187 202.006 391.935 202.006C394.418 202.006 396.4 202.626 397.834 203.918L398.086 204.187V205.288L395.133 210.659H393.699L393.518 210.31C392.637 209.025 391.047 207.512 387.823 207.512C386.359 207.512 385.139 207.879 384.017 208.621V226.305C384.017 230.913 384.142 233.101 384.776 234.008C385.7 235.476 388.678 235.569 389.611 235.569H390.348V237.574L389.581 237.539C385.669 237.293 382.767 237.228 380.759 237.228C378.136 237.228 375.119 237.228 372.03 237.539L371.228 237.614Z" fill="#8C191C"/>
<path d="M426.518 238.061L425.535 237.727V234.786C423.779 236.131 420.358 238.076 415.694 238.076C406.077 238.076 399.834 231.427 399.834 221.065C399.834 217.672 400.528 214.414 401.736 211.666C404.674 205.294 410.824 201.644 418.532 201.644C421.384 201.644 423.915 202.001 425.424 202.274V194.84C425.424 190.483 425.369 188.149 424.73 187.213C424.008 186.177 422.486 186.034 421.595 185.991C421.507 185.989 421.439 185.984 421.374 185.976L420.695 185.923L420.803 184.335H421.545C421.764 184.335 425.824 183.991 429.127 183.353C430.528 183.105 431.843 182.826 432.558 182.54L432.908 182.4L433.541 182.756L433.519 183.107C433.25 186.004 433.224 192.195 433.224 196.806V225.427C433.224 229.733 433.275 232.351 433.919 233.222C434.646 234.269 436.163 234.402 436.988 234.447C437.144 234.447 437.222 234.452 437.277 234.474L437.959 234.58V236.455H437.229C436.457 236.455 433.375 236.61 430.379 237.18C428.724 237.371 427.409 237.662 426.848 237.97L426.518 238.061ZM418.373 205.843C411.541 205.843 408.2 210.486 408.2 220.121C408.2 223.999 409.307 233.089 419.52 233.089H419.817C421.072 233.089 423.351 232.901 425.424 231.646V208.197C424.808 207.577 422.662 205.843 418.373 205.843Z" fill="#8C191C"/>
<path d="M174.117 252.908H179.883L185.175 267.247L187.07 272.766H187.251L189.125 267.247L194.347 252.908H200.06V282.124H195.175V268.722C195.175 266.052 195.607 262.124 195.851 259.476H195.67L193.293 266.11L188.259 279.336H185.809L180.783 266.11L178.437 259.476H178.25C178.497 262.124 178.935 266.044 178.935 268.722V282.124H174.117V252.908Z" fill="#231F20"/>
<path d="M218.724 252.908H236.408V257.29H223.924V264.697H234.456V269.074H223.924V277.745H236.831V282.117H218.724V252.908Z" fill="#231F20"/>
<path d="M254.105 252.908H261.898C270.8 252.908 276.155 257.712 276.155 267.309C276.155 277.055 270.8 282.122 262.197 282.122H254.105V252.908ZM261.538 277.863C267.429 277.863 270.77 274.535 270.77 267.304C270.77 260.227 267.429 257.055 261.538 257.055H259.284V277.863H261.538Z" fill="#231F20"/>
<path d="M293.306 252.908H298.485V282.124H293.306V252.908Z" fill="#231F20"/>
<path d="M329.164 252.311C332.623 252.311 335.576 254.085 337.41 256.008L334.537 259.248C333.015 257.777 331.418 256.904 329.192 256.904C324.382 256.904 320.893 260.925 320.893 267.488C320.893 274.116 324.083 278.139 328.955 278.139C331.544 278.139 333.518 277.055 335.121 275.228L338.034 278.438C335.714 281.113 332.56 282.609 328.895 282.609C321.462 282.609 315.631 277.326 315.631 267.58C315.636 258.041 321.59 252.311 329.164 252.311Z" fill="#231F20"/>
<path d="M354.138 252.908H359.312V282.124H354.138V252.908Z" fill="#231F20"/>
<path d="M377.972 252.908H383.353L392.491 269.35L395.48 275.556H395.61C395.442 272.585 395.002 268.788 395.002 265.625V252.916H399.932V282.127H394.65L385.506 265.696L382.437 259.484H382.301C382.55 262.513 382.99 266.082 382.99 269.352V282.127H377.972V252.908Z" fill="#231F20"/>
<path d="M418.582 252.908H436.218V257.29H423.761V264.697H434.309V269.074H423.761V277.745H436.721V282.117H418.582V252.908Z" fill="#231F20"/>
<path opacity="0.7" d="M173.051 128.4L172.731 129.6H175.511L175.211 128.4C175.038 127.747 174.858 127.053 174.671 126.32C174.498 125.587 174.325 124.88 174.151 124.2H174.071C173.911 124.893 173.745 125.607 173.571 126.34C173.411 127.06 173.238 127.747 173.051 128.4ZM168.331 135L172.411 121.96H175.951L180.031 135H176.911L176.111 131.9H172.131L171.331 135H168.331ZM187.381 135.24C185.688 135.24 184.395 134.74 183.501 133.74C182.608 132.74 182.161 131.147 182.161 128.96V121.96H185.121V129.26C185.121 130.54 185.315 131.433 185.701 131.94C186.088 132.447 186.648 132.7 187.381 132.7C188.115 132.7 188.681 132.447 189.081 131.94C189.481 131.433 189.681 130.54 189.681 129.26V121.96H192.521V128.96C192.521 131.147 192.081 132.74 191.201 133.74C190.335 134.74 189.061 135.24 187.381 135.24ZM199.082 135V124.44H195.502V121.96H205.622V124.44H202.042V135H199.082ZM208.655 135V121.96H211.595V126.98H216.095V121.96H219.055V135H216.095V129.56H211.595V135H208.655ZM228.432 135.24C227.258 135.24 226.225 134.967 225.332 134.42C224.452 133.873 223.758 133.093 223.252 132.08C222.758 131.053 222.512 129.833 222.512 128.42C222.512 126.993 222.758 125.787 223.252 124.8C223.758 123.8 224.452 123.04 225.332 122.52C226.225 121.987 227.258 121.72 228.432 121.72C229.605 121.72 230.632 121.987 231.512 122.52C232.405 123.04 233.098 123.8 233.592 124.8C234.098 125.8 234.352 127.007 234.352 128.42C234.352 129.833 234.098 131.053 233.592 132.08C233.098 133.093 232.405 133.873 231.512 134.42C230.632 134.967 229.605 135.24 228.432 135.24ZM228.432 132.7C229.325 132.7 230.032 132.313 230.552 131.54C231.072 130.767 231.332 129.727 231.332 128.42C231.332 127.113 231.072 126.093 230.552 125.36C230.032 124.627 229.325 124.26 228.432 124.26C227.538 124.26 226.832 124.627 226.312 125.36C225.792 126.093 225.532 127.113 225.532 128.42C225.532 129.727 225.792 130.767 226.312 131.54C226.832 132.313 227.538 132.7 228.432 132.7ZM237.804 135V121.96H242.504C243.424 121.96 244.264 122.087 245.024 122.34C245.784 122.58 246.39 122.993 246.844 123.58C247.297 124.167 247.524 124.98 247.524 126.02C247.524 126.98 247.31 127.773 246.884 128.4C246.47 129.013 245.91 129.473 245.204 129.78L248.164 135H244.864L242.364 130.3H240.744V135H237.804ZM240.744 127.96H242.264C243.037 127.96 243.624 127.8 244.024 127.48C244.437 127.147 244.644 126.66 244.644 126.02C244.644 125.38 244.437 124.933 244.024 124.68C243.624 124.427 243.037 124.3 242.264 124.3H240.744V127.96ZM256.073 135V121.96H260.553C261.513 121.96 262.38 122.093 263.153 122.36C263.94 122.613 264.567 123.047 265.033 123.66C265.5 124.273 265.733 125.107 265.733 126.16C265.733 127.173 265.5 128.007 265.033 128.66C264.567 129.313 263.947 129.8 263.173 130.12C262.4 130.427 261.553 130.58 260.633 130.58H259.013V135H256.073ZM259.013 128.24H260.453C262.053 128.24 262.853 127.547 262.853 126.16C262.853 125.48 262.64 125 262.213 124.72C261.787 124.44 261.173 124.3 260.373 124.3H259.013V128.24ZM271.051 128.4L270.731 129.6H273.511L273.211 128.4C273.038 127.747 272.858 127.053 272.671 126.32C272.498 125.587 272.325 124.88 272.151 124.2H272.071C271.911 124.893 271.745 125.607 271.571 126.34C271.411 127.06 271.238 127.747 271.051 128.4ZM266.331 135L270.411 121.96H273.951L278.031 135H274.911L274.111 131.9H270.131L269.331 135H266.331ZM286.021 135.24C284.834 135.24 283.754 134.987 282.781 134.48C281.821 133.973 281.054 133.227 280.481 132.24C279.921 131.24 279.641 130.013 279.641 128.56C279.641 127.12 279.927 125.893 280.501 124.88C281.087 123.853 281.861 123.073 282.821 122.54C283.781 121.993 284.841 121.72 286.001 121.72C286.947 121.72 287.761 121.893 288.441 122.24C289.121 122.587 289.674 122.98 290.101 123.42L288.561 125.3C288.227 125.007 287.874 124.76 287.501 124.56C287.127 124.36 286.661 124.26 286.101 124.26C285.087 124.26 284.261 124.633 283.621 125.38C282.981 126.127 282.661 127.153 282.661 128.46C282.661 129.793 282.967 130.833 283.581 131.58C284.194 132.327 285.107 132.7 286.321 132.7C286.587 132.7 286.847 132.667 287.101 132.6C287.354 132.533 287.561 132.433 287.721 132.3V130.06H285.561V127.66H290.321V133.66C289.867 134.1 289.261 134.473 288.501 134.78C287.754 135.087 286.927 135.24 286.021 135.24ZM294.015 135V121.96H302.175V124.44H296.955V127.06H301.395V129.52H296.955V132.52H302.375V135H294.015ZM314.036 128.4L313.716 129.6H316.496L316.196 128.4C316.022 127.747 315.842 127.053 315.656 126.32C315.482 125.587 315.309 124.88 315.136 124.2H315.056C314.896 124.893 314.729 125.607 314.556 126.34C314.396 127.06 314.222 127.747 314.036 128.4ZM309.316 135L313.396 121.96H316.936L321.016 135H317.896L317.096 131.9H313.116L312.316 135H309.316ZM324.516 135V124.44H320.936V121.96H331.056V124.44H327.476V135H324.516Z" fill="black"/>
</svg>
