<svg width="500" height="400" viewBox="0 0 500 400" fill="none" xmlns="http://www.w3.org/2000/svg">
<path d="M228.522 185.289C233.065 189.4 238.435 192.689 244.63 193.922C250.826 195.156 257.022 194.333 262.804 192.278C268.587 190.222 273.543 186.111 276.848 180.767C280.152 175.833 282.217 169.667 282.217 163.5C282.217 155.278 278.913 147.467 273.13 141.711C266.522 135.956 258.674 132.667 250.413 132.667C244.217 132.667 238.435 134.311 233.065 138.011C228.109 141.3 223.978 146.233 221.5 151.989C219.022 157.744 218.609 163.911 219.848 169.667C221.087 175.422 223.978 181.178 228.522 185.289Z" fill="#CC0000"/>
<path d="M184.326 228.867C193 237.5 203.326 244.078 214.478 249.011C225.63 253.533 238.022 256 250 256C268.587 256 286.348 250.656 302.043 240.378C317.326 230.1 329.304 215.711 336.326 198.856C343.348 182 345.413 163.5 341.696 145.411C337.978 127.322 329.304 110.878 316.087 98.1333C302.87 85.3889 286.348 76.3444 268.174 72.6444C250.413 69.3556 231.826 71 214.478 77.9889C197.543 84.9778 182.674 96.9 172.761 112.111C162.435 127.322 157.065 145.411 157.065 163.5C157.065 175.833 159.543 187.756 164.087 198.856C168.63 209.956 175.652 220.233 184.326 228.867ZM198.783 129.378C205.804 119.1 215.304 111.289 226.87 106.767C238.435 102.244 250.826 101.011 262.804 103.067C274.783 105.533 285.935 111.289 294.609 119.922C303.283 128.556 309.065 139.656 311.543 151.578C314.022 163.5 312.783 175.833 307.826 187.344C303.283 198.444 295.022 208.311 285.109 214.889C274.783 221.467 262.804 225.167 250.413 225.167C233.891 225.167 218.196 218.589 206.63 207.078C195.065 195.567 188.456 179.944 188.456 163.5C188.043 151.167 191.761 139.244 198.783 129.378Z" fill="#CC0000"/>
<path d="M173.174 267.922H163.261V279.022H157.065V285.6H163.261V306.978C163.261 313.556 166.978 315.611 174.826 315.611C176.891 315.611 178.956 315.611 180.609 315.2V307.389C179.783 307.8 178.543 307.8 177.304 307.8C174 307.8 173.174 306.978 173.174 303.689V285.6H180.609V279.022H173.174V267.922Z" fill="#CC0000"/>
<path d="M194.652 316.022C200.848 316.022 204.978 313.967 207.457 311.089C208.283 314.378 210.761 315.611 215.304 315.611C216.543 315.611 218.196 315.2 219.435 314.789V308.211H219.022C216.957 308.211 216.544 307.8 216.544 305.333V287.656C216.544 281.078 211.174 277.378 200.435 277.378C190.109 277.378 183.5 281.489 183.087 289.711H193C193.413 286.011 195.478 284.367 199.609 284.367C202.913 284.367 206.217 285.189 206.217 289.3C206.217 292.589 203.326 293 196.717 293.822C190.522 294.644 187.217 295.467 184.739 297.522C183.5 298.344 182.674 299.578 182.261 300.811C181.848 302.044 181.435 303.689 181.435 304.922C182.261 312.322 187.217 316.022 194.652 316.022ZM200.435 299.167C203.739 298.756 205.391 298.344 206.63 297.522V301.222C206.63 306.567 203.739 309.444 198.37 309.444C193.826 309.444 192.174 307.8 192.174 304.922C192.174 301.222 195.478 299.989 200.435 299.167Z" fill="#CC0000"/>
<path d="M232.652 298.756C232.652 292.178 234.717 287.244 242.152 287.244C243.391 287.244 244.63 287.244 245.87 287.656V278.611C245.043 278.2 244.217 278.2 243.804 278.2C241.326 278.2 238.848 279.022 236.783 280.256C234.717 281.489 233.065 283.544 232.239 286.011V279.433H222.739V315.611H232.652V298.756Z" fill="#CC0000"/>
<path d="M281.804 313.144V279.022H272.304V283.956C271.065 281.9 269.413 280.667 267.761 279.433C265.696 278.611 263.631 277.789 261.565 278.2C251.239 278.2 245.87 286.833 245.87 296.289C245.87 306.978 250.826 314.378 261.565 314.378C263.631 314.378 266.109 313.967 267.761 313.144C269.826 312.322 271.478 310.678 272.304 308.622V313.556C272.304 318.9 269.413 322.189 264.044 322.189C260.326 322.189 257.435 320.544 256.609 317.256H246.696C247.109 324.656 254.544 328.767 262.804 328.767C276.435 329.178 281.804 322.6 281.804 313.144ZM263.631 306.567C257.848 306.567 255.37 301.633 255.37 295.878C255.37 289.711 258.261 285.6 263.631 285.6C270.652 285.6 272.304 291.767 272.304 296.7C272.304 302.044 269 306.567 263.631 306.567Z" fill="#CC0000"/>
<path d="M303.283 278.2C292.13 278.2 284.696 286.011 284.696 297.522C284.696 308.622 291.717 316.433 303.283 316.433C311.957 316.433 317.739 312.322 320.63 304.1H311.957C311.13 306.567 307.826 308.622 304.109 308.622C298.326 308.622 295.435 305.744 295.022 299.578H321.457V297.522C321.044 286.833 314.848 277.789 303.283 278.2ZM294.609 293C294.609 291.767 295.022 290.944 295.435 290.122C295.848 289.3 296.674 288.478 297.087 287.656C297.5 286.833 298.739 286.422 299.978 286.011C300.804 285.6 302.044 285.6 303.283 285.6C307.826 285.6 310.304 287.656 311.544 293.411H294.609V293Z" fill="#CC0000"/>
<path d="M343.761 285.6V279.022H336.326V268.333H326.413V279.433H320.217V286.011H326.413V307.389C326.413 313.967 330.13 316.022 337.978 316.022C340.044 316.022 342.109 316.022 343.761 315.611V307.8C342.935 308.211 341.696 308.211 340.457 308.211C337.152 308.211 336.326 307.389 336.326 304.1V286.011H343.761V285.6Z" fill="#CC0000"/>
</svg>
