<svg width="500" height="500" viewBox="0 0 500 500" fill="none" xmlns="http://www.w3.org/2000/svg">
<path d="M228.522 235.289C233.065 239.4 238.435 242.689 244.63 243.922C250.826 245.156 257.022 244.333 262.804 242.278C268.587 240.222 273.543 236.111 276.848 230.767C280.152 225.833 282.217 219.667 282.217 213.5C282.217 205.278 278.913 197.467 273.13 191.711C266.522 185.956 258.674 182.667 250.413 182.667C244.217 182.667 238.435 184.311 233.065 188.011C228.109 191.3 223.978 196.233 221.5 201.989C219.022 207.744 218.609 213.911 219.848 219.667C221.087 225.422 223.978 231.178 228.522 235.289Z" fill="#CC0000"/>
<path d="M184.326 278.867C193 287.5 203.326 294.078 214.478 299.011C225.63 303.533 238.022 306 250 306C268.587 306 286.348 300.656 302.043 290.378C317.326 280.1 329.304 265.711 336.326 248.856C343.348 232 345.413 213.5 341.696 195.411C337.978 177.322 329.304 160.878 316.087 148.133C302.87 135.389 286.348 126.344 268.174 122.644C250.413 119.356 231.826 121 214.478 127.989C197.543 134.978 182.674 146.9 172.761 162.111C162.435 177.322 157.065 195.411 157.065 213.5C157.065 225.833 159.543 237.756 164.087 248.856C168.63 259.956 175.652 270.233 184.326 278.867ZM198.783 179.378C205.804 169.1 215.304 161.289 226.87 156.767C238.435 152.244 250.826 151.011 262.804 153.067C274.783 155.533 285.935 161.289 294.609 169.922C303.283 178.556 309.065 189.656 311.543 201.578C314.022 213.5 312.783 225.833 307.826 237.344C303.283 248.444 295.022 258.311 285.109 264.889C274.783 271.467 262.804 275.167 250.413 275.167C233.891 275.167 218.196 268.589 206.63 257.078C195.065 245.567 188.456 229.944 188.456 213.5C188.043 201.167 191.761 189.244 198.783 179.378Z" fill="#CC0000"/>
<path d="M173.174 317.922H163.261V329.022H157.065V335.6H163.261V356.978C163.261 363.556 166.978 365.611 174.826 365.611C176.891 365.611 178.956 365.611 180.609 365.2V357.389C179.783 357.8 178.543 357.8 177.304 357.8C174 357.8 173.174 356.978 173.174 353.689V335.6H180.609V329.022H173.174V317.922Z" fill="#CC0000"/>
<path d="M194.652 366.022C200.848 366.022 204.978 363.967 207.457 361.089C208.283 364.378 210.761 365.611 215.304 365.611C216.543 365.611 218.196 365.2 219.435 364.789V358.211H219.022C216.957 358.211 216.544 357.8 216.544 355.333V337.656C216.544 331.078 211.174 327.378 200.435 327.378C190.109 327.378 183.5 331.489 183.087 339.711H193C193.413 336.011 195.478 334.367 199.609 334.367C202.913 334.367 206.217 335.189 206.217 339.3C206.217 342.589 203.326 343 196.717 343.822C190.522 344.644 187.217 345.467 184.739 347.522C183.5 348.344 182.674 349.578 182.261 350.811C181.848 352.044 181.435 353.689 181.435 354.922C182.261 362.322 187.217 366.022 194.652 366.022ZM200.435 349.167C203.739 348.756 205.391 348.344 206.63 347.522V351.222C206.63 356.567 203.739 359.444 198.37 359.444C193.826 359.444 192.174 357.8 192.174 354.922C192.174 351.222 195.478 349.989 200.435 349.167Z" fill="#CC0000"/>
<path d="M232.652 348.756C232.652 342.178 234.717 337.244 242.152 337.244C243.391 337.244 244.63 337.244 245.87 337.656V328.611C245.043 328.2 244.217 328.2 243.804 328.2C241.326 328.2 238.848 329.022 236.783 330.256C234.717 331.489 233.065 333.544 232.239 336.011V329.433H222.739V365.611H232.652V348.756Z" fill="#CC0000"/>
<path d="M281.804 363.144V329.022H272.304V333.956C271.065 331.9 269.413 330.667 267.761 329.433C265.696 328.611 263.631 327.789 261.565 328.2C251.239 328.2 245.87 336.833 245.87 346.289C245.87 356.978 250.826 364.378 261.565 364.378C263.631 364.378 266.109 363.967 267.761 363.144C269.826 362.322 271.478 360.678 272.304 358.622V363.556C272.304 368.9 269.413 372.189 264.044 372.189C260.326 372.189 257.435 370.544 256.609 367.256H246.696C247.109 374.656 254.544 378.767 262.804 378.767C276.435 379.178 281.804 372.6 281.804 363.144ZM263.631 356.567C257.848 356.567 255.37 351.633 255.37 345.878C255.37 339.711 258.261 335.6 263.631 335.6C270.652 335.6 272.304 341.767 272.304 346.7C272.304 352.044 269 356.567 263.631 356.567Z" fill="#CC0000"/>
<path d="M303.283 328.2C292.13 328.2 284.696 336.011 284.696 347.522C284.696 358.622 291.717 366.433 303.283 366.433C311.957 366.433 317.739 362.322 320.63 354.1H311.957C311.13 356.567 307.826 358.622 304.109 358.622C298.326 358.622 295.435 355.744 295.022 349.578H321.457V347.522C321.044 336.833 314.848 327.789 303.283 328.2ZM294.609 343C294.609 341.767 295.022 340.944 295.435 340.122C295.848 339.3 296.674 338.478 297.087 337.656C297.5 336.833 298.739 336.422 299.978 336.011C300.804 335.6 302.044 335.6 303.283 335.6C307.826 335.6 310.304 337.656 311.544 343.411H294.609V343Z" fill="#CC0000"/>
<path d="M343.761 335.6V329.022H336.326V318.333H326.413V329.433H320.217V336.011H326.413V357.389C326.413 363.967 330.13 366.022 337.978 366.022C340.044 366.022 342.109 366.022 343.761 365.611V357.8C342.935 358.211 341.696 358.211 340.457 358.211C337.152 358.211 336.326 357.389 336.326 354.1V336.011H343.761V335.6Z" fill="#CC0000"/>
</svg>
