<svg width="500" height="500" viewBox="0 0 500 500" fill="none" xmlns="http://www.w3.org/2000/svg">
<g clip-path="url(#clip0_13_84)">
<path d="M387.2 222.569V277.635H414.4C422 277.635 426.4 276.438 429.6 273.645C433.6 270.054 435.6 263.669 435.6 250.102C435.6 236.535 433.6 230.151 429.6 226.56C426.4 223.766 422 222.569 414.4 222.569H387.2ZM424.4 250.102C424.4 262.073 423.6 264.866 421.2 266.463C419.6 267.66 417.6 268.059 413.6 268.059H398.4V231.747H413.6C417.6 231.747 419.6 231.747 421.2 233.343C423.6 235.338 424.4 238.131 424.4 250.102ZM449.6 289.807H369.798V210.2H449.6V289.807ZM304.602 231.747V222.569H351.802V240.127H341.798V231.747H322.598V244.915H337.798V253.694H322.598V268.458H342.202V258.881H352.198V277.635H304.605V268.458H312.202V231.747H304.602ZM261.802 263.27C261.802 269.256 262.198 273.645 262.998 277.236H273.802C273.398 274.443 273.002 269.256 273.002 262.472C272.598 254.492 270.198 253.295 264.598 252.097C270.998 250.9 273.802 248.107 273.802 238.131C273.802 230.151 272.598 226.959 270.198 224.964C268.598 223.367 265.802 222.569 261.398 222.569H227.798V277.635H238.998V256.088H254.602C257.802 256.088 258.998 256.487 260.202 257.285C261.405 258.083 261.802 259.28 261.802 263.27ZM238.998 247.309V232.146H257.002C259.402 232.146 260.202 232.545 260.598 232.944C261.398 233.742 262.198 234.939 262.198 239.728C262.198 244.516 261.398 246.112 260.598 246.91C260.202 247.309 259.402 247.708 257.002 247.708L238.998 247.309ZM289.802 289.807H209.802V210.2H289.6V289.807H289.802ZM189.002 268.458V277.635H150.998V268.458H164.598V231.747H150.998V222.569H188.998V231.747H175.398V268.458H189.002ZM124.8 222.569H114.4L106.8 266.063L98 225.762C97.6 222.968 96.4 222.569 94 222.569H88.4C86 222.569 84.8 223.367 84.4 225.762L75.6 266.063L68 222.569H56.8L67.6 274.842C68 277.236 68.8 277.635 71.6 277.635H79.2C81.6 277.635 82.4 277.236 83.2 274.842L91.6 236.934L100 274.842C100.4 277.236 101.2 277.635 104 277.635H111.2C113.6 277.635 114.8 277.236 115.2 274.842L124.8 222.569ZM130.4 289.807H50.4V210.2H130.202V289.807H130.4Z" fill="black"/>
</g>
<defs>
<clipPath id="clip0_13_84">
<rect width="400" height="80" fill="white" transform="translate(50 210)"/>
</clipPath>
</defs>
</svg>
