<svg width="500" height="400" viewBox="0 0 500 400" fill="none" xmlns="http://www.w3.org/2000/svg">
<g clip-path="url(#clip0_13_84)">
<path d="M387.2 198.569V253.635H414.4C422 253.635 426.4 252.438 429.6 249.645C433.6 246.054 435.6 239.669 435.6 226.102C435.6 212.535 433.6 206.151 429.6 202.56C426.4 199.766 422 198.569 414.4 198.569H387.2ZM424.4 226.102C424.4 238.073 423.6 240.866 421.2 242.463C419.6 243.66 417.6 244.059 413.6 244.059H398.4V207.747H413.6C417.6 207.747 419.6 207.747 421.2 209.343C423.6 211.338 424.4 214.131 424.4 226.102ZM449.6 265.807H369.798V186.2H449.6V265.807ZM304.602 207.747V198.569H351.802V216.127H341.798V207.747H322.598V220.915H337.798V229.694H322.598V244.458H342.202V234.881H352.198V253.635H304.605V244.458H312.202V207.747H304.602ZM261.802 239.27C261.802 245.256 262.198 249.645 262.998 253.236H273.802C273.398 250.443 273.002 245.256 273.002 238.472C272.598 230.492 270.198 229.295 264.598 228.097C270.998 226.9 273.802 224.107 273.802 214.131C273.802 206.151 272.598 202.959 270.198 200.964C268.598 199.367 265.802 198.569 261.398 198.569H227.798V253.635H238.998V232.088H254.602C257.802 232.088 258.998 232.487 260.202 233.285C261.405 234.083 261.802 235.28 261.802 239.27ZM238.998 223.309V208.146H257.002C259.402 208.146 260.202 208.545 260.598 208.944C261.398 209.742 262.198 210.939 262.198 215.728C262.198 220.516 261.398 222.112 260.598 222.91C260.202 223.309 259.402 223.708 257.002 223.708L238.998 223.309ZM289.802 265.807H209.802V186.2H289.6V265.807H289.802ZM189.002 244.458V253.635H150.998V244.458H164.598V207.747H150.998V198.569H188.998V207.747H175.398V244.458H189.002ZM124.8 198.569H114.4L106.8 242.063L98 201.762C97.6 198.968 96.4 198.569 94 198.569H88.4C86 198.569 84.8 199.367 84.4 201.762L75.6 242.063L68 198.569H56.8L67.6 250.842C68 253.236 68.8 253.635 71.6 253.635H79.2C81.6 253.635 82.4 253.236 83.2 250.842L91.6 212.934L100 250.842C100.4 253.236 101.2 253.635 104 253.635H111.2C113.6 253.635 114.8 253.236 115.2 250.842L124.8 198.569ZM130.4 265.807H50.4V186.2H130.202V265.807H130.4Z" fill="black"/>
</g>
<path opacity="0.7" d="M173.051 128.4L172.731 129.6H175.511L175.211 128.4C175.038 127.747 174.858 127.053 174.671 126.32C174.498 125.587 174.325 124.88 174.151 124.2H174.071C173.911 124.893 173.745 125.607 173.571 126.34C173.411 127.06 173.238 127.747 173.051 128.4ZM168.331 135L172.411 121.96H175.951L180.031 135H176.911L176.111 131.9H172.131L171.331 135H168.331ZM187.381 135.24C185.688 135.24 184.395 134.74 183.501 133.74C182.608 132.74 182.161 131.147 182.161 128.96V121.96H185.121V129.26C185.121 130.54 185.315 131.433 185.701 131.94C186.088 132.447 186.648 132.7 187.381 132.7C188.115 132.7 188.681 132.447 189.081 131.94C189.481 131.433 189.681 130.54 189.681 129.26V121.96H192.521V128.96C192.521 131.147 192.081 132.74 191.201 133.74C190.335 134.74 189.061 135.24 187.381 135.24ZM199.082 135V124.44H195.502V121.96H205.622V124.44H202.042V135H199.082ZM208.655 135V121.96H211.595V126.98H216.095V121.96H219.055V135H216.095V129.56H211.595V135H208.655ZM228.432 135.24C227.258 135.24 226.225 134.967 225.332 134.42C224.452 133.873 223.758 133.093 223.252 132.08C222.758 131.053 222.512 129.833 222.512 128.42C222.512 126.993 222.758 125.787 223.252 124.8C223.758 123.8 224.452 123.04 225.332 122.52C226.225 121.987 227.258 121.72 228.432 121.72C229.605 121.72 230.632 121.987 231.512 122.52C232.405 123.04 233.098 123.8 233.592 124.8C234.098 125.8 234.352 127.007 234.352 128.42C234.352 129.833 234.098 131.053 233.592 132.08C233.098 133.093 232.405 133.873 231.512 134.42C230.632 134.967 229.605 135.24 228.432 135.24ZM228.432 132.7C229.325 132.7 230.032 132.313 230.552 131.54C231.072 130.767 231.332 129.727 231.332 128.42C231.332 127.113 231.072 126.093 230.552 125.36C230.032 124.627 229.325 124.26 228.432 124.26C227.538 124.26 226.832 124.627 226.312 125.36C225.792 126.093 225.532 127.113 225.532 128.42C225.532 129.727 225.792 130.767 226.312 131.54C226.832 132.313 227.538 132.7 228.432 132.7ZM237.804 135V121.96H242.504C243.424 121.96 244.264 122.087 245.024 122.34C245.784 122.58 246.39 122.993 246.844 123.58C247.297 124.167 247.524 124.98 247.524 126.02C247.524 126.98 247.31 127.773 246.884 128.4C246.47 129.013 245.91 129.473 245.204 129.78L248.164 135H244.864L242.364 130.3H240.744V135H237.804ZM240.744 127.96H242.264C243.037 127.96 243.624 127.8 244.024 127.48C244.437 127.147 244.644 126.66 244.644 126.02C244.644 125.38 244.437 124.933 244.024 124.68C243.624 124.427 243.037 124.3 242.264 124.3H240.744V127.96ZM256.073 135V121.96H260.553C261.513 121.96 262.38 122.093 263.153 122.36C263.94 122.613 264.567 123.047 265.033 123.66C265.5 124.273 265.733 125.107 265.733 126.16C265.733 127.173 265.5 128.007 265.033 128.66C264.567 129.313 263.947 129.8 263.173 130.12C262.4 130.427 261.553 130.58 260.633 130.58H259.013V135H256.073ZM259.013 128.24H260.453C262.053 128.24 262.853 127.547 262.853 126.16C262.853 125.48 262.64 125 262.213 124.72C261.787 124.44 261.173 124.3 260.373 124.3H259.013V128.24ZM271.051 128.4L270.731 129.6H273.511L273.211 128.4C273.038 127.747 272.858 127.053 272.671 126.32C272.498 125.587 272.325 124.88 272.151 124.2H272.071C271.911 124.893 271.745 125.607 271.571 126.34C271.411 127.06 271.238 127.747 271.051 128.4ZM266.331 135L270.411 121.96H273.951L278.031 135H274.911L274.111 131.9H270.131L269.331 135H266.331ZM286.021 135.24C284.834 135.24 283.754 134.987 282.781 134.48C281.821 133.973 281.054 133.227 280.481 132.24C279.921 131.24 279.641 130.013 279.641 128.56C279.641 127.12 279.927 125.893 280.501 124.88C281.087 123.853 281.861 123.073 282.821 122.54C283.781 121.993 284.841 121.72 286.001 121.72C286.947 121.72 287.761 121.893 288.441 122.24C289.121 122.587 289.674 122.98 290.101 123.42L288.561 125.3C288.227 125.007 287.874 124.76 287.501 124.56C287.127 124.36 286.661 124.26 286.101 124.26C285.087 124.26 284.261 124.633 283.621 125.38C282.981 126.127 282.661 127.153 282.661 128.46C282.661 129.793 282.967 130.833 283.581 131.58C284.194 132.327 285.107 132.7 286.321 132.7C286.587 132.7 286.847 132.667 287.101 132.6C287.354 132.533 287.561 132.433 287.721 132.3V130.06H285.561V127.66H290.321V133.66C289.867 134.1 289.261 134.473 288.501 134.78C287.754 135.087 286.927 135.24 286.021 135.24ZM294.015 135V121.96H302.175V124.44H296.955V127.06H301.395V129.52H296.955V132.52H302.375V135H294.015ZM314.036 128.4L313.716 129.6H316.496L316.196 128.4C316.022 127.747 315.842 127.053 315.656 126.32C315.482 125.587 315.309 124.88 315.136 124.2H315.056C314.896 124.893 314.729 125.607 314.556 126.34C314.396 127.06 314.222 127.747 314.036 128.4ZM309.316 135L313.396 121.96H316.936L321.016 135H317.896L317.096 131.9H313.116L312.316 135H309.316ZM324.516 135V124.44H320.936V121.96H331.056V124.44H327.476V135H324.516Z" fill="black"/>
<defs>
<clipPath id="clip0_13_84">
<rect width="400" height="80" fill="white" transform="translate(50 186)"/>
</clipPath>
</defs>
</svg>
