<svg width="128" height="128" viewBox="0 0 128 128" fill="none" xmlns="http://www.w3.org/2000/svg">
<rect width="128" height="128" rx="16" fill="#F5F5F5"/>
<rect width="128" height="128" rx="16" fill="#8FC648"/>
<rect width="128" height="128" rx="16" fill="#FFCCAA"/>
<path d="M16 94.8704H15V95.8704V103V104H16H41.8945H42.8945V103V95.8704V94.8704H41.8945H34.263V68.3519H70.7196V94.8704H63.4733H63.0881H62.4733H62.0881V95.8704V103V104H62.4733H63.0881H63.4733H89.3679H90.3679H112H113V103V85.8889V84.8889H112H104.375H103.375V85.8889V94.8704H90.3679H89.3679H81.7363V34.1296H88.9826H89.3679H89.9826H90.3679V33.1296V26V25H89.9826H89.3679H88.9826H63.4733H63.0881H62.4733H62.0881V26V33.1296V34.1296H62.4733H63.0881H63.4733H70.7196V59.2222H34.263V34.1296H41.8945H42.8945V33.1296V26V25H41.8945H16H15V26V33.1296V34.1296H16H23.6315V94.8704H16Z" fill="black" stroke="black" stroke-width="2"/>
</svg>
