<svg width="24" height="24" viewBox="0 0 24 24" fill="none" xmlns="http://www.w3.org/2000/svg">
<g clip-path="url(#clip0)">
<path d="M20.7227 7.28125C21.582 6.63672 22.3555 5.86328 22.957 4.96094C22.1836 5.30469 21.2812 5.5625 20.3789 5.64844C21.3242 5.08984 22.0117 4.23047 22.3555 3.15625C21.4961 3.67188 20.5078 4.05859 19.5195 4.27344C18.6602 3.37109 17.5 2.85547 16.2109 2.85547C13.7188 2.85547 11.6992 4.875 11.6992 7.36719C11.6992 7.71094 11.7422 8.05469 11.8281 8.39844C8.08984 8.18359 4.73828 6.37891 2.50391 3.67188C2.11719 4.31641 1.90234 5.08984 1.90234 5.94922C1.90234 7.49609 2.67578 8.87109 3.92188 9.6875C3.19141 9.64453 2.46094 9.47266 1.85938 9.12891V9.17188C1.85938 11.3633 3.40625 13.168 5.46875 13.5977C5.125 13.6836 4.69531 13.7695 4.30859 13.7695C4.00781 13.7695 3.75 13.7266 3.44922 13.6836C4.00781 15.4883 5.68359 16.7773 7.66016 16.8203C6.11328 18.0234 4.17969 18.7539 2.07422 18.7539C1.6875 18.7539 1.34375 18.7109 1 18.668C2.97656 19.957 5.33984 20.6875 7.91797 20.6875C16.2109 20.6875 20.7227 13.8555 20.7227 7.88281C20.7227 7.66797 20.7227 7.49609 20.7227 7.28125Z" fill="black"/>
</g>
<defs>
<clipPath id="clip0">
<rect width="24" height="24" fill="white"/>
</clipPath>
</defs>
</svg>
